%TF.GenerationSoftware,KiCad,Pcbnew,(6.0.5)*%
%TF.CreationDate,2024-11-08T16:02:50+00:00*%
%TF.ProjectId,screw_switch,73637265-775f-4737-9769-7463682e6b69,rev?*%
%TF.SameCoordinates,Original*%
%TF.FileFunction,Soldermask,Top*%
%TF.FilePolarity,Negative*%
%FSLAX46Y46*%
G04 Gerber Fmt 4.6, Leading zero omitted, Abs format (unit mm)*
G04 Created by KiCad (PCBNEW (6.0.5)) date 2024-11-08 16:02:50*
%MOMM*%
%LPD*%
G01*
G04 APERTURE LIST*
G04 Aperture macros list*
%AMRoundRect*
0 Rectangle with rounded corners*
0 $1 Rounding radius*
0 $2 $3 $4 $5 $6 $7 $8 $9 X,Y pos of 4 corners*
0 Add a 4 corners polygon primitive as box body*
4,1,4,$2,$3,$4,$5,$6,$7,$8,$9,$2,$3,0*
0 Add four circle primitives for the rounded corners*
1,1,$1+$1,$2,$3*
1,1,$1+$1,$4,$5*
1,1,$1+$1,$6,$7*
1,1,$1+$1,$8,$9*
0 Add four rect primitives between the rounded corners*
20,1,$1+$1,$2,$3,$4,$5,0*
20,1,$1+$1,$4,$5,$6,$7,0*
20,1,$1+$1,$6,$7,$8,$9,0*
20,1,$1+$1,$8,$9,$2,$3,0*%
G04 Aperture macros list end*
%ADD10C,0.100000*%
%ADD11C,3.505000*%
%ADD12C,0.010000*%
%ADD13RoundRect,0.218750X-0.256250X0.218750X-0.256250X-0.218750X0.256250X-0.218750X0.256250X0.218750X0*%
%ADD14RoundRect,0.200000X-0.275000X0.200000X-0.275000X-0.200000X0.275000X-0.200000X0.275000X0.200000X0*%
G04 APERTURE END LIST*
D10*
X99150000Y-99500000D02*
X99650000Y-99500000D01*
X99650000Y-99500000D02*
X99650000Y-100000000D01*
X99650000Y-100000000D02*
X99150000Y-100000000D01*
X99150000Y-100000000D02*
X99150000Y-99500000D01*
G36*
X99150000Y-99500000D02*
G01*
X99650000Y-99500000D01*
X99650000Y-100000000D01*
X99150000Y-100000000D01*
X99150000Y-99500000D01*
G37*
X100350000Y-99500000D02*
X100850000Y-99500000D01*
X100850000Y-99500000D02*
X100850000Y-100000000D01*
X100850000Y-100000000D02*
X100350000Y-100000000D01*
X100350000Y-100000000D02*
X100350000Y-99500000D01*
G36*
X100350000Y-99500000D02*
G01*
X100850000Y-99500000D01*
X100850000Y-100000000D01*
X100350000Y-100000000D01*
X100350000Y-99500000D01*
G37*
D11*
X109752500Y-96500000D02*
G75*
G03*
X109752500Y-96500000I-1752500J0D01*
G01*
D10*
X99900000Y-100000000D02*
X100100000Y-100000000D01*
X100100000Y-100000000D02*
X100100000Y-93000000D01*
X100100000Y-93000000D02*
X99900000Y-93000000D01*
X99900000Y-93000000D02*
X99900000Y-100000000D01*
G36*
X99900000Y-100000000D02*
G01*
X100100000Y-100000000D01*
X100100000Y-93000000D01*
X99900000Y-93000000D01*
X99900000Y-100000000D01*
G37*
D11*
X93752500Y-96500000D02*
G75*
G03*
X93752500Y-96500000I-1752500J0D01*
G01*
D12*
X94300000Y-101600000D02*
X97700000Y-101600000D01*
X97700000Y-101600000D02*
X97700000Y-99800000D01*
X97700000Y-99800000D02*
X94300000Y-99800000D01*
X94300000Y-99800000D02*
X94300000Y-101600000D01*
G36*
X94300000Y-101600000D02*
G01*
X97700000Y-101600000D01*
X97700000Y-99800000D01*
X94300000Y-99800000D01*
X94300000Y-101600000D01*
G37*
X110300000Y-101600000D02*
X113700000Y-101600000D01*
X113700000Y-101600000D02*
X113700000Y-99800000D01*
X113700000Y-99800000D02*
X110300000Y-99800000D01*
X110300000Y-99800000D02*
X110300000Y-101600000D01*
G36*
X110300000Y-101600000D02*
G01*
X113700000Y-101600000D01*
X113700000Y-99800000D01*
X110300000Y-99800000D01*
X110300000Y-101600000D01*
G37*
X86350000Y-101600000D02*
X89750000Y-101600000D01*
X89750000Y-101600000D02*
X89750000Y-99800000D01*
X89750000Y-99800000D02*
X86350000Y-99800000D01*
X86350000Y-99800000D02*
X86350000Y-101600000D01*
G36*
X86350000Y-101600000D02*
G01*
X89750000Y-101600000D01*
X89750000Y-99800000D01*
X86350000Y-99800000D01*
X86350000Y-101600000D01*
G37*
X102300000Y-101600000D02*
X105700000Y-101600000D01*
X105700000Y-101600000D02*
X105700000Y-99800000D01*
X105700000Y-99800000D02*
X102300000Y-99800000D01*
X102300000Y-99800000D02*
X102300000Y-101600000D01*
G36*
X102300000Y-101600000D02*
G01*
X105700000Y-101600000D01*
X105700000Y-99800000D01*
X102300000Y-99800000D01*
X102300000Y-101600000D01*
G37*
X102300000Y-101600000D02*
X105700000Y-101600000D01*
X105700000Y-101600000D02*
X105700000Y-99800000D01*
X105700000Y-99800000D02*
X102300000Y-99800000D01*
X102300000Y-99800000D02*
X102300000Y-101600000D01*
G36*
X102300000Y-101600000D02*
G01*
X105700000Y-101600000D01*
X105700000Y-99800000D01*
X102300000Y-99800000D01*
X102300000Y-101600000D01*
G37*
D13*
%TO.C,REF\u002A\u002A*%
X101000000Y-93962500D03*
X101000000Y-95537500D03*
%TD*%
D14*
%TO.C,REF\u002A\u002A*%
X101000000Y-96925000D03*
X101000000Y-98575000D03*
%TD*%
D13*
%TO.C,REF\u002A\u002A*%
X99000000Y-93962500D03*
X99000000Y-95537500D03*
%TD*%
D14*
%TO.C,REF\u002A\u002A*%
X99000000Y-96925000D03*
X99000000Y-98575000D03*
%TD*%
M02*
