%TF.GenerationSoftware,KiCad,Pcbnew,(6.0.5)*%
%TF.CreationDate,2024-11-08T16:02:50+00:00*%
%TF.ProjectId,screw_switch,73637265-775f-4737-9769-7463682e6b69,rev?*%
%TF.SameCoordinates,Original*%
%TF.FileFunction,Copper,L2,Bot*%
%TF.FilePolarity,Positive*%
%FSLAX46Y46*%
G04 Gerber Fmt 4.6, Leading zero omitted, Abs format (unit mm)*
G04 Created by KiCad (PCBNEW (6.0.5)) date 2024-11-08 16:02:50*
%MOMM*%
%LPD*%
G01*
G04 APERTURE LIST*
%TA.AperFunction,NonConductor*%
%ADD10C,0.010000*%
%TD*%
%TA.AperFunction,NonConductor*%
%ADD11C,3.350000*%
%TD*%
%TA.AperFunction,NonConductor*%
%ADD12C,2.305000*%
%TD*%
G04 APERTURE END LIST*
D10*
G36*
X89750000Y-101600000D02*
G01*
X86350000Y-101600000D01*
X86350000Y-99800000D01*
X89750000Y-99800000D01*
X89750000Y-101600000D01*
G37*
X89750000Y-101600000D02*
X86350000Y-101600000D01*
X86350000Y-99800000D01*
X89750000Y-99800000D01*
X89750000Y-101600000D01*
G36*
X113700000Y-95450000D02*
G01*
X113700000Y-101600000D01*
X110300000Y-101600000D01*
X110300000Y-99700000D01*
X108000000Y-99700000D01*
X108000000Y-93200000D01*
X111400000Y-93200000D01*
X113700000Y-95450000D01*
G37*
X113700000Y-95450000D02*
X113700000Y-101600000D01*
X110300000Y-101600000D01*
X110300000Y-99700000D01*
X108000000Y-99700000D01*
X108000000Y-93200000D01*
X111400000Y-93200000D01*
X113700000Y-95450000D01*
D11*
X93675000Y-96500000D02*
G75*
G03*
X93675000Y-96500000I-1675000J0D01*
G01*
D12*
X112552500Y-95500000D02*
G75*
G03*
X112552500Y-95500000I-1152500J0D01*
G01*
D10*
G36*
X92050000Y-99700000D02*
G01*
X89750000Y-99700000D01*
X89750000Y-101600000D01*
X86350000Y-101600000D01*
X86350000Y-95500000D01*
X88650000Y-93200000D01*
X92050000Y-93200000D01*
X92050000Y-99700000D01*
G37*
X92050000Y-99700000D02*
X89750000Y-99700000D01*
X89750000Y-101600000D01*
X86350000Y-101600000D01*
X86350000Y-95500000D01*
X88650000Y-93200000D01*
X92050000Y-93200000D01*
X92050000Y-99700000D01*
G36*
X113700000Y-101600000D02*
G01*
X110300000Y-101600000D01*
X110300000Y-99800000D01*
X113700000Y-99800000D01*
X113700000Y-101600000D01*
G37*
X113700000Y-101600000D02*
X110300000Y-101600000D01*
X110300000Y-99800000D01*
X113700000Y-99800000D01*
X113700000Y-101600000D01*
G36*
X105700000Y-101600000D02*
G01*
X102300000Y-101600000D01*
X102300000Y-99800000D01*
X105700000Y-99800000D01*
X105700000Y-101600000D01*
G37*
X105700000Y-101600000D02*
X102300000Y-101600000D01*
X102300000Y-99800000D01*
X105700000Y-99800000D01*
X105700000Y-101600000D01*
G36*
X97700000Y-101600000D02*
G01*
X94300000Y-101600000D01*
X94300000Y-99800000D01*
X97700000Y-99800000D01*
X97700000Y-101600000D01*
G37*
X97700000Y-101600000D02*
X94300000Y-101600000D01*
X94300000Y-99800000D01*
X97700000Y-99800000D01*
X97700000Y-101600000D01*
D12*
X89802500Y-95500000D02*
G75*
G03*
X89802500Y-95500000I-1152500J0D01*
G01*
D11*
X109675000Y-96500000D02*
G75*
G03*
X109675000Y-96500000I-1675000J0D01*
G01*
M02*
