%TF.GenerationSoftware,KiCad,Pcbnew,(6.0.5)*%
%TF.CreationDate,2024-11-08T16:02:50+00:00*%
%TF.ProjectId,screw_switch,73637265-775f-4737-9769-7463682e6b69,rev?*%
%TF.SameCoordinates,Original*%
%TF.FileFunction,Soldermask,Bot*%
%TF.FilePolarity,Negative*%
%FSLAX46Y46*%
G04 Gerber Fmt 4.6, Leading zero omitted, Abs format (unit mm)*
G04 Created by KiCad (PCBNEW (6.0.5)) date 2024-11-08 16:02:50*
%MOMM*%
%LPD*%
G01*
G04 APERTURE LIST*
%ADD10C,0.100000*%
%ADD11C,0.010000*%
%ADD12C,3.505000*%
G04 APERTURE END LIST*
D10*
X99900000Y-100000000D02*
X100100000Y-100000000D01*
X100100000Y-100000000D02*
X100100000Y-93000000D01*
X100100000Y-93000000D02*
X99900000Y-93000000D01*
X99900000Y-93000000D02*
X99900000Y-100000000D01*
G36*
X99900000Y-100000000D02*
G01*
X100100000Y-100000000D01*
X100100000Y-93000000D01*
X99900000Y-93000000D01*
X99900000Y-100000000D01*
G37*
D11*
X110300000Y-99800000D02*
X113700000Y-99800000D01*
X113700000Y-99800000D02*
X113700000Y-101600000D01*
X113700000Y-101600000D02*
X110300000Y-101600000D01*
X110300000Y-101600000D02*
X110300000Y-99800000D01*
G36*
X110300000Y-99800000D02*
G01*
X113700000Y-99800000D01*
X113700000Y-101600000D01*
X110300000Y-101600000D01*
X110300000Y-99800000D01*
G37*
D12*
X109752500Y-96500000D02*
G75*
G03*
X109752500Y-96500000I-1752500J0D01*
G01*
D11*
X102300000Y-100000000D02*
X105700000Y-100000000D01*
X105700000Y-100000000D02*
X105700000Y-101600000D01*
X105700000Y-101600000D02*
X102300000Y-101600000D01*
X102300000Y-101600000D02*
X102300000Y-100000000D01*
G36*
X102300000Y-100000000D02*
G01*
X105700000Y-100000000D01*
X105700000Y-101600000D01*
X102300000Y-101600000D01*
X102300000Y-100000000D01*
G37*
X86350000Y-99800000D02*
X89750000Y-99800000D01*
X89750000Y-99800000D02*
X89750000Y-101600000D01*
X89750000Y-101600000D02*
X86350000Y-101600000D01*
X86350000Y-101600000D02*
X86350000Y-99800000D01*
G36*
X86350000Y-99800000D02*
G01*
X89750000Y-99800000D01*
X89750000Y-101600000D01*
X86350000Y-101600000D01*
X86350000Y-99800000D01*
G37*
D12*
X93752500Y-96500000D02*
G75*
G03*
X93752500Y-96500000I-1752500J0D01*
G01*
D11*
X94300000Y-99800000D02*
X97700000Y-99800000D01*
X97700000Y-99800000D02*
X97700000Y-101600000D01*
X97700000Y-101600000D02*
X94300000Y-101600000D01*
X94300000Y-101600000D02*
X94300000Y-99800000D01*
G36*
X94300000Y-99800000D02*
G01*
X97700000Y-99800000D01*
X97700000Y-101600000D01*
X94300000Y-101600000D01*
X94300000Y-99800000D01*
G37*
M02*
