%TF.GenerationSoftware,KiCad,Pcbnew,(6.0.5)*%
%TF.CreationDate,2024-11-08T16:02:50+00:00*%
%TF.ProjectId,screw_switch,73637265-775f-4737-9769-7463682e6b69,rev?*%
%TF.SameCoordinates,Original*%
%TF.FileFunction,Legend,Bot*%
%TF.FilePolarity,Positive*%
%FSLAX46Y46*%
G04 Gerber Fmt 4.6, Leading zero omitted, Abs format (unit mm)*
G04 Created by KiCad (PCBNEW (6.0.5)) date 2024-11-08 16:02:50*
%MOMM*%
%LPD*%
G01*
G04 APERTURE LIST*
%ADD10C,0.100000*%
%ADD11C,0.010000*%
%ADD12C,3.505000*%
G04 APERTURE END LIST*
%TO.C,G\u002A\u002A\u002A*%
G36*
X112585154Y-93321243D02*
G01*
X112715836Y-93377177D01*
X112777974Y-93424900D01*
X112890522Y-93546427D01*
X113000800Y-93706036D01*
X113101272Y-93892216D01*
X113184408Y-94093451D01*
X113218495Y-94203760D01*
X113247642Y-94298082D01*
X113284755Y-94494385D01*
X113293044Y-94691051D01*
X113275149Y-94911888D01*
X113267376Y-94983490D01*
X113260635Y-95156146D01*
X113274414Y-95325849D01*
X113311039Y-95505464D01*
X113372835Y-95707859D01*
X113462130Y-95945904D01*
X113526673Y-96109371D01*
X113578979Y-96248655D01*
X113612282Y-96350498D01*
X113628267Y-96422809D01*
X113628622Y-96473489D01*
X113615033Y-96510447D01*
X113589186Y-96541586D01*
X113534347Y-96595467D01*
X113902506Y-97572900D01*
X114016649Y-97875941D01*
X114018775Y-97881585D01*
X114115716Y-98138795D01*
X114206918Y-98380476D01*
X114290336Y-98601230D01*
X114363925Y-98795662D01*
X114425641Y-98958375D01*
X114473438Y-99083973D01*
X114487350Y-99120281D01*
X114505274Y-99167059D01*
X114519105Y-99202238D01*
X114523526Y-99222850D01*
X114520432Y-99293547D01*
X114502727Y-99381793D01*
X114479550Y-99452568D01*
X114441906Y-99511881D01*
X114385821Y-99544468D01*
X114372836Y-99548806D01*
X114318614Y-99554649D01*
X114261329Y-99532171D01*
X114182662Y-99475122D01*
X114059877Y-99376831D01*
X114028920Y-99245521D01*
X114150065Y-99245521D01*
X114155290Y-99272825D01*
X114184152Y-99339175D01*
X114189417Y-99345856D01*
X114194274Y-99337591D01*
X114179345Y-99287894D01*
X114172479Y-99269833D01*
X114154789Y-99234371D01*
X114150065Y-99245521D01*
X114028920Y-99245521D01*
X114018231Y-99200180D01*
X114378765Y-99200180D01*
X114382513Y-99213947D01*
X114395889Y-99263060D01*
X114404048Y-99276077D01*
X114419341Y-99288863D01*
X114423345Y-99249637D01*
X114421811Y-99216106D01*
X114407723Y-99149263D01*
X114402263Y-99135694D01*
X114390284Y-99123159D01*
X114380267Y-99162687D01*
X114378765Y-99200180D01*
X114018231Y-99200180D01*
X113997372Y-99111704D01*
X113979993Y-99046625D01*
X113940735Y-98917500D01*
X113885358Y-98746882D01*
X113816149Y-98541534D01*
X113735398Y-98308220D01*
X113645392Y-98053704D01*
X113548420Y-97784749D01*
X113481531Y-97601039D01*
X113396435Y-97368007D01*
X113327315Y-97180348D01*
X113272111Y-97033169D01*
X113228761Y-96921579D01*
X113195205Y-96840684D01*
X113169382Y-96785594D01*
X113149231Y-96751413D01*
X113132692Y-96733253D01*
X113117703Y-96726218D01*
X113102204Y-96725419D01*
X113085060Y-96725506D01*
X113040054Y-96716025D01*
X113006347Y-96690930D01*
X113238580Y-96690930D01*
X113656214Y-97804068D01*
X113684882Y-97880408D01*
X113790713Y-98160691D01*
X113879747Y-98393426D01*
X113953975Y-98583462D01*
X114015387Y-98735655D01*
X114065973Y-98854856D01*
X114107725Y-98945920D01*
X114142635Y-99013699D01*
X114172692Y-99063044D01*
X114221142Y-99128835D01*
X114257202Y-99166245D01*
X114270663Y-99163749D01*
X114268433Y-99116707D01*
X114261748Y-99056998D01*
X114249414Y-98987775D01*
X114230129Y-98905054D01*
X114202590Y-98804851D01*
X114165492Y-98683184D01*
X114117533Y-98536070D01*
X114057410Y-98359525D01*
X113983819Y-98149567D01*
X113895458Y-97902211D01*
X113791024Y-97613476D01*
X113669212Y-97279377D01*
X113528722Y-96895931D01*
X113428163Y-96621928D01*
X113238580Y-96690930D01*
X113006347Y-96690930D01*
X113000442Y-96686534D01*
X112962186Y-96630038D01*
X112921242Y-96539540D01*
X112873566Y-96408043D01*
X112815119Y-96228552D01*
X112790856Y-96152913D01*
X112717466Y-95940326D01*
X112646803Y-95768029D01*
X112572159Y-95624190D01*
X112486819Y-95496977D01*
X112384073Y-95374558D01*
X112257208Y-95245104D01*
X112194644Y-95182770D01*
X112043034Y-95009723D01*
X111930092Y-94836759D01*
X111845857Y-94646693D01*
X111780370Y-94422342D01*
X111768222Y-94369581D01*
X111726527Y-94105185D01*
X111726475Y-93878753D01*
X111732795Y-93850209D01*
X111818130Y-93850209D01*
X111819116Y-93976951D01*
X111832943Y-94130606D01*
X111857370Y-94294145D01*
X111890154Y-94450538D01*
X111929050Y-94582754D01*
X112009974Y-94770178D01*
X112139520Y-94973102D01*
X112313590Y-95162790D01*
X112340461Y-95188184D01*
X112431524Y-95275795D01*
X112503937Y-95351259D01*
X112563321Y-95423892D01*
X112615302Y-95503006D01*
X112665502Y-95597915D01*
X112719544Y-95717933D01*
X112783052Y-95872374D01*
X112861649Y-96070552D01*
X113086358Y-96640276D01*
X113288902Y-96572337D01*
X113302118Y-96567869D01*
X113402463Y-96531602D01*
X113480321Y-96499551D01*
X113519789Y-96478200D01*
X113522602Y-96474222D01*
X113524143Y-96442375D01*
X113510724Y-96379291D01*
X113480767Y-96279574D01*
X113432694Y-96137825D01*
X113364926Y-95948647D01*
X113294652Y-95750611D01*
X113235593Y-95566838D01*
X113195590Y-95411869D01*
X113172666Y-95273336D01*
X113164846Y-95138871D01*
X113170154Y-94996106D01*
X113186612Y-94832674D01*
X113194802Y-94718673D01*
X113194275Y-94571555D01*
X113182960Y-94445012D01*
X113177820Y-94415427D01*
X113131011Y-94235602D01*
X113059518Y-94046993D01*
X112970208Y-93862581D01*
X112869953Y-93695348D01*
X112765620Y-93558277D01*
X112664078Y-93464349D01*
X112649150Y-93454739D01*
X112532192Y-93409659D01*
X112391181Y-93391217D01*
X112249346Y-93400531D01*
X112129918Y-93438713D01*
X112110826Y-93449156D01*
X111976595Y-93547518D01*
X111877744Y-93666120D01*
X111824965Y-93792553D01*
X111818130Y-93850209D01*
X111732795Y-93850209D01*
X111768459Y-93689122D01*
X111852876Y-93535127D01*
X111980117Y-93415602D01*
X112150580Y-93329381D01*
X112265303Y-93301405D01*
X112427471Y-93295352D01*
X112585154Y-93321243D01*
G37*
G36*
X98123911Y-95434580D02*
G01*
X98175027Y-95453804D01*
X98216691Y-95477810D01*
X98085109Y-95705717D01*
X98044018Y-95675389D01*
X98005852Y-95640168D01*
X97980379Y-95593961D01*
X97975175Y-95540681D01*
X97977662Y-95523624D01*
X97996924Y-95480196D01*
X98030575Y-95449637D01*
X98074332Y-95433811D01*
X98123911Y-95434580D01*
G37*
G36*
X96142576Y-94329758D02*
G01*
X96139513Y-94353657D01*
X96133745Y-94387124D01*
X96126146Y-94424339D01*
X96124979Y-94429293D01*
X96118886Y-94441654D01*
X96106184Y-94440904D01*
X96080666Y-94427475D01*
X96040956Y-94404549D01*
X96088904Y-94366426D01*
X96107862Y-94351131D01*
X96130711Y-94331936D01*
X96141576Y-94321716D01*
X96142058Y-94321249D01*
X96142576Y-94329758D01*
G37*
G36*
X99712899Y-96054230D02*
G01*
X99629327Y-96198981D01*
X99521503Y-96385737D01*
X99334091Y-96710344D01*
X99042157Y-96546394D01*
X98888198Y-96459930D01*
X98790700Y-96553879D01*
X98703494Y-96634650D01*
X98600697Y-96719770D01*
X98496610Y-96793507D01*
X98384532Y-96860536D01*
X98257761Y-96925532D01*
X98211047Y-96946892D01*
X98110937Y-96987069D01*
X98004096Y-97023766D01*
X97897084Y-97054982D01*
X97796454Y-97078718D01*
X97708766Y-97092973D01*
X97704933Y-97093405D01*
X97661469Y-97098652D01*
X97625665Y-97103565D01*
X97604945Y-97107128D01*
X97593585Y-97108877D01*
X97576528Y-97107051D01*
X97569292Y-97105287D01*
X97547919Y-97107306D01*
X97541181Y-97108405D01*
X97512995Y-97110548D01*
X97471438Y-97112127D01*
X97422847Y-97112859D01*
X97233455Y-97104644D01*
X97025669Y-97074318D01*
X96822087Y-97021847D01*
X96623553Y-96947405D01*
X96511123Y-96893666D01*
X96338931Y-96791691D01*
X96178794Y-96672129D01*
X96031813Y-96536570D01*
X95899089Y-96386603D01*
X95781723Y-96223816D01*
X95680817Y-96049803D01*
X95597470Y-95866149D01*
X95532787Y-95674446D01*
X95487865Y-95476283D01*
X95463808Y-95273249D01*
X95462073Y-95233693D01*
X95461957Y-95223283D01*
X96144162Y-95223283D01*
X96163749Y-95380687D01*
X96203088Y-95535724D01*
X96261194Y-95685626D01*
X96337084Y-95827626D01*
X96429774Y-95958952D01*
X96538282Y-96076838D01*
X96588814Y-96120858D01*
X96668151Y-96180227D01*
X96756931Y-96238318D01*
X96848902Y-96291343D01*
X96937812Y-96335516D01*
X97017409Y-96367053D01*
X97032255Y-96371855D01*
X97085708Y-96388093D01*
X97136310Y-96402086D01*
X97174804Y-96411232D01*
X97298937Y-96428926D01*
X97458770Y-96432966D01*
X97619957Y-96417493D01*
X97777842Y-96383008D01*
X97927767Y-96330016D01*
X97959853Y-96315094D01*
X98014155Y-96286532D01*
X98073007Y-96252642D01*
X98131455Y-96216518D01*
X98184541Y-96181255D01*
X98207897Y-96164161D01*
X98715331Y-96164161D01*
X98783919Y-96203760D01*
X98926581Y-95979290D01*
X98940083Y-96064937D01*
X98944296Y-96090637D01*
X98952532Y-96125623D01*
X98964675Y-96144282D01*
X98984954Y-96148487D01*
X99017601Y-96140109D01*
X99066846Y-96121021D01*
X99135001Y-96093486D01*
X99068578Y-96214888D01*
X99002154Y-96336291D01*
X99034513Y-96354974D01*
X99036191Y-96355930D01*
X99061116Y-96367624D01*
X99077176Y-96370895D01*
X99084407Y-96362706D01*
X99101336Y-96337680D01*
X99125639Y-96298990D01*
X99155315Y-96249831D01*
X99188363Y-96193398D01*
X99289246Y-96018664D01*
X99246975Y-95994259D01*
X99230733Y-95985365D01*
X99211503Y-95978689D01*
X99190896Y-95979476D01*
X99162480Y-95988307D01*
X99119826Y-96005767D01*
X99107308Y-96010994D01*
X99069257Y-96025972D01*
X99041246Y-96035609D01*
X99028610Y-96038021D01*
X99027618Y-96036637D01*
X99022819Y-96019175D01*
X99016846Y-95986397D01*
X99010758Y-95943898D01*
X99009361Y-95933135D01*
X99002484Y-95890026D01*
X98994205Y-95862191D01*
X98982038Y-95843530D01*
X98963495Y-95827941D01*
X98957085Y-95823594D01*
X98932596Y-95811282D01*
X98917648Y-95810626D01*
X98911300Y-95819330D01*
X98895253Y-95845263D01*
X98871936Y-95884856D01*
X98843336Y-95934724D01*
X98819775Y-95976652D01*
X98811440Y-95991484D01*
X98715331Y-96164161D01*
X98207897Y-96164161D01*
X98227315Y-96149949D01*
X98254818Y-96125696D01*
X98275242Y-96103615D01*
X98244383Y-96084963D01*
X98578156Y-96084963D01*
X98606221Y-96105051D01*
X98629102Y-96118290D01*
X98645321Y-96122182D01*
X98653261Y-96113234D01*
X98670735Y-96087511D01*
X98695505Y-96048204D01*
X98725574Y-95998487D01*
X98758948Y-95941533D01*
X98861539Y-95763840D01*
X98827751Y-95743035D01*
X98815833Y-95736090D01*
X98802408Y-95731268D01*
X98789667Y-95733279D01*
X98775680Y-95744290D01*
X98758520Y-95766469D01*
X98736255Y-95801982D01*
X98706958Y-95852996D01*
X98668699Y-95921677D01*
X98581614Y-96078728D01*
X98578156Y-96084963D01*
X98244383Y-96084963D01*
X97957402Y-95911501D01*
X97918058Y-95887827D01*
X97856266Y-95850955D01*
X98184155Y-95850955D01*
X98222776Y-95873252D01*
X98232719Y-95878759D01*
X98252298Y-95886272D01*
X98272939Y-95886289D01*
X98301142Y-95878164D01*
X98343410Y-95861248D01*
X98352647Y-95857399D01*
X98391149Y-95841661D01*
X98420220Y-95830265D01*
X98434160Y-95825458D01*
X98445039Y-95821850D01*
X98471651Y-95811454D01*
X98506772Y-95796915D01*
X98570648Y-95769860D01*
X98505113Y-95883370D01*
X98481100Y-95926190D01*
X98460916Y-95964773D01*
X98448210Y-95992220D01*
X98445043Y-96004387D01*
X98445325Y-96004741D01*
X98459478Y-96014490D01*
X98484488Y-96027082D01*
X98518469Y-96042271D01*
X98718877Y-95682829D01*
X98689983Y-95662175D01*
X98686924Y-95659984D01*
X98675037Y-95652183D01*
X98663170Y-95648014D01*
X98647815Y-95648270D01*
X98625468Y-95653745D01*
X98592625Y-95665235D01*
X98545780Y-95683531D01*
X98481426Y-95709431D01*
X98345176Y-95764399D01*
X98464124Y-95535747D01*
X98394148Y-95487237D01*
X98184155Y-95850955D01*
X97856266Y-95850955D01*
X97848711Y-95846447D01*
X97767630Y-95798386D01*
X97676458Y-95744600D01*
X97576842Y-95686042D01*
X97470425Y-95623667D01*
X97358854Y-95558428D01*
X97300639Y-95524460D01*
X97889018Y-95524460D01*
X97889295Y-95586871D01*
X97907117Y-95646481D01*
X97940832Y-95695900D01*
X97941659Y-95696732D01*
X97968749Y-95719485D01*
X98007375Y-95746861D01*
X98049462Y-95773117D01*
X98125366Y-95817013D01*
X98335959Y-95452255D01*
X98232359Y-95397448D01*
X98204251Y-95382769D01*
X98172253Y-95367236D01*
X98162441Y-95362473D01*
X98131808Y-95350868D01*
X98106896Y-95346096D01*
X98082255Y-95346300D01*
X98025193Y-95356647D01*
X97968590Y-95384703D01*
X97925838Y-95430438D01*
X97895925Y-95494659D01*
X97889018Y-95524460D01*
X97300639Y-95524460D01*
X97243771Y-95491278D01*
X97142556Y-95432336D01*
X97459086Y-95432336D01*
X97491747Y-95451193D01*
X97493694Y-95452302D01*
X97518676Y-95464008D01*
X97534712Y-95467288D01*
X97536878Y-95465598D01*
X97549453Y-95448947D01*
X97569995Y-95417498D01*
X97596210Y-95374850D01*
X97625803Y-95324598D01*
X97706591Y-95184668D01*
X97759720Y-95211393D01*
X97787396Y-95224778D01*
X97806889Y-95230507D01*
X97818798Y-95225245D01*
X97829841Y-95208737D01*
X97846835Y-95179355D01*
X97703303Y-95092867D01*
X97559773Y-95006380D01*
X97544858Y-95040582D01*
X97537908Y-95058452D01*
X97538078Y-95073416D01*
X97550685Y-95087463D01*
X97579076Y-95107098D01*
X97628206Y-95139412D01*
X97567513Y-95244536D01*
X97459086Y-95432336D01*
X97142556Y-95432336D01*
X97126823Y-95423174D01*
X97009655Y-95355069D01*
X96893912Y-95287916D01*
X96781238Y-95222670D01*
X96676145Y-95161942D01*
X97014240Y-95161942D01*
X97035167Y-95182213D01*
X97049476Y-95194907D01*
X97069591Y-95204978D01*
X97088001Y-95199526D01*
X97108333Y-95176830D01*
X97134211Y-95135170D01*
X97149444Y-95109006D01*
X97166210Y-95082766D01*
X97178543Y-95070316D01*
X97190540Y-95068094D01*
X97206298Y-95072540D01*
X97230033Y-95082857D01*
X97258909Y-95100210D01*
X97277977Y-95114102D01*
X97307402Y-95134064D01*
X97317587Y-95141112D01*
X97324399Y-95150573D01*
X97322984Y-95164889D01*
X97312533Y-95189093D01*
X97292233Y-95228222D01*
X97251252Y-95305811D01*
X97279317Y-95325899D01*
X97302198Y-95339138D01*
X97318418Y-95343030D01*
X97325843Y-95334805D01*
X97342978Y-95309732D01*
X97367449Y-95270995D01*
X97397241Y-95221796D01*
X97430338Y-95165338D01*
X97531221Y-94990602D01*
X97452835Y-94945346D01*
X97379293Y-95072723D01*
X97223417Y-94982728D01*
X97258159Y-94915861D01*
X97260415Y-94911512D01*
X97277451Y-94876911D01*
X97284395Y-94855868D01*
X97282148Y-94842769D01*
X97271610Y-94831996D01*
X97267945Y-94829128D01*
X97252215Y-94819270D01*
X97243486Y-94817946D01*
X97237689Y-94817067D01*
X97222347Y-94824547D01*
X97204171Y-94843738D01*
X97181139Y-94876668D01*
X97151235Y-94925366D01*
X97112438Y-94991859D01*
X97014240Y-95161942D01*
X96676145Y-95161942D01*
X96673277Y-95160285D01*
X96571677Y-95101715D01*
X96478081Y-95047912D01*
X96394134Y-94999835D01*
X96381446Y-94992605D01*
X96720077Y-94992605D01*
X96955235Y-95128373D01*
X97005782Y-95043243D01*
X97011057Y-95034363D01*
X97043311Y-94980141D01*
X97079054Y-94920155D01*
X97111473Y-94865840D01*
X97166616Y-94773565D01*
X96941256Y-94643454D01*
X96898896Y-94702788D01*
X97048630Y-94796897D01*
X97031659Y-94826292D01*
X97029704Y-94829657D01*
X97019596Y-94843764D01*
X97007553Y-94847946D01*
X96987426Y-94842229D01*
X96953070Y-94826643D01*
X96945809Y-94823227D01*
X96914259Y-94809346D01*
X96895481Y-94805353D01*
X96882992Y-94811292D01*
X96870311Y-94827210D01*
X96856218Y-94846949D01*
X96849170Y-94856819D01*
X96909203Y-94895389D01*
X96918653Y-94901557D01*
X96950334Y-94925800D01*
X96962918Y-94946238D01*
X96957638Y-94967454D01*
X96935724Y-94994030D01*
X96928459Y-95000887D01*
X96917368Y-95005920D01*
X96901920Y-95003160D01*
X96877096Y-94991334D01*
X96837875Y-94969164D01*
X96759677Y-94924016D01*
X96720077Y-94992605D01*
X96381446Y-94992605D01*
X96321481Y-94958434D01*
X96261767Y-94924663D01*
X96216638Y-94899480D01*
X96187737Y-94883834D01*
X96176709Y-94878683D01*
X96173910Y-94884153D01*
X96167973Y-94907862D01*
X96160773Y-94945884D01*
X96153299Y-94993374D01*
X96145311Y-95066281D01*
X96144162Y-95223283D01*
X95461957Y-95223283D01*
X95461378Y-95171066D01*
X95462331Y-95102338D01*
X95464720Y-95033253D01*
X95468331Y-94969554D01*
X95472952Y-94916989D01*
X95478368Y-94881299D01*
X95482037Y-94863458D01*
X95489021Y-94824915D01*
X95495977Y-94782314D01*
X95497685Y-94772004D01*
X95507055Y-94725291D01*
X95518876Y-94674360D01*
X96244533Y-94674360D01*
X96255614Y-94699616D01*
X96273771Y-94725131D01*
X96273859Y-94725255D01*
X96322265Y-94768260D01*
X96381872Y-94799140D01*
X96446103Y-94814949D01*
X96508382Y-94812744D01*
X96543069Y-94802161D01*
X96597459Y-94769169D01*
X96639642Y-94721909D01*
X96667085Y-94664740D01*
X96677261Y-94602027D01*
X96667638Y-94538130D01*
X96648156Y-94492235D01*
X96608062Y-94440111D01*
X96551750Y-94401933D01*
X96477399Y-94376152D01*
X96443639Y-94368792D01*
X96423015Y-94368740D01*
X96409492Y-94378631D01*
X96395515Y-94400731D01*
X96386245Y-94417537D01*
X96380100Y-94437235D01*
X96390754Y-94445623D01*
X96420785Y-94447475D01*
X96455804Y-94454424D01*
X96499297Y-94474362D01*
X96539666Y-94502170D01*
X96567984Y-94532681D01*
X96581530Y-94566073D01*
X96583261Y-94612907D01*
X96570164Y-94659144D01*
X96544385Y-94697977D01*
X96508072Y-94722599D01*
X96507981Y-94722633D01*
X96471830Y-94728120D01*
X96427454Y-94724458D01*
X96385021Y-94713375D01*
X96354698Y-94696593D01*
X96341609Y-94682643D01*
X96337563Y-94665031D01*
X96348803Y-94640035D01*
X96362712Y-94619277D01*
X96376497Y-94613979D01*
X96397547Y-94623491D01*
X96418033Y-94632914D01*
X96431801Y-94628263D01*
X96446742Y-94606169D01*
X96466542Y-94571875D01*
X96340365Y-94499027D01*
X96310716Y-94537433D01*
X96306519Y-94543013D01*
X96280794Y-94581560D01*
X96258470Y-94620882D01*
X96245927Y-94650423D01*
X96244533Y-94674360D01*
X95518876Y-94674360D01*
X95519973Y-94669632D01*
X95534178Y-94614936D01*
X95562245Y-94513562D01*
X95490440Y-94470959D01*
X95829361Y-94470959D01*
X95829672Y-94471756D01*
X95841851Y-94483591D01*
X95865153Y-94499014D01*
X95868920Y-94501154D01*
X95891179Y-94510174D01*
X95910577Y-94506284D01*
X95936626Y-94488020D01*
X95974649Y-94457716D01*
X96106724Y-94533970D01*
X96099778Y-94582216D01*
X96098212Y-94593796D01*
X96097731Y-94620242D01*
X96107597Y-94636883D01*
X96132103Y-94653138D01*
X96141032Y-94658042D01*
X96164311Y-94668069D01*
X96175767Y-94668548D01*
X96175824Y-94668444D01*
X96179105Y-94654731D01*
X96185366Y-94622417D01*
X96193953Y-94575094D01*
X96204215Y-94516356D01*
X96215496Y-94449797D01*
X96250836Y-94238307D01*
X96194421Y-94205736D01*
X96561717Y-94205736D01*
X96932423Y-94427997D01*
X96944666Y-94435330D01*
X97011775Y-94475353D01*
X97090783Y-94522228D01*
X97180036Y-94574990D01*
X97277882Y-94632677D01*
X97382668Y-94694322D01*
X97492740Y-94758961D01*
X97606447Y-94825630D01*
X97722137Y-94893365D01*
X97838155Y-94961199D01*
X97952849Y-95028171D01*
X98064568Y-95093315D01*
X98171656Y-95155664D01*
X98272464Y-95214257D01*
X98365336Y-95268128D01*
X98448622Y-95316313D01*
X98520667Y-95357847D01*
X98579820Y-95391766D01*
X98624427Y-95417104D01*
X98652837Y-95432897D01*
X98663395Y-95438182D01*
X98663745Y-95438046D01*
X98670050Y-95424831D01*
X98677120Y-95394250D01*
X98684237Y-95351205D01*
X98690687Y-95300601D01*
X98695752Y-95247342D01*
X98698716Y-95196334D01*
X98697131Y-95071714D01*
X98676301Y-94907102D01*
X98634706Y-94749251D01*
X98573177Y-94599547D01*
X98492545Y-94459378D01*
X98393641Y-94330132D01*
X98277294Y-94213195D01*
X98144334Y-94109954D01*
X97995592Y-94021798D01*
X97897618Y-93975327D01*
X97774848Y-93929482D01*
X97653433Y-93899380D01*
X97527140Y-93883178D01*
X97522834Y-93882861D01*
X97359133Y-93881386D01*
X97196882Y-93899900D01*
X97039100Y-93937494D01*
X96888804Y-93993258D01*
X96749011Y-94066282D01*
X96622741Y-94155658D01*
X96561717Y-94205736D01*
X96194421Y-94205736D01*
X96166840Y-94189812D01*
X96093717Y-94248843D01*
X96074287Y-94264502D01*
X96026599Y-94302813D01*
X95973674Y-94345209D01*
X95923806Y-94385045D01*
X95891020Y-94411823D01*
X95858443Y-94440026D01*
X95836715Y-94460809D01*
X95829361Y-94470959D01*
X95490440Y-94470959D01*
X95342304Y-94383068D01*
X95122365Y-94252574D01*
X95207452Y-94105263D01*
X95662281Y-94105263D01*
X95664315Y-94152741D01*
X95688791Y-94198158D01*
X95735645Y-94241215D01*
X95782330Y-94274827D01*
X95711754Y-94410449D01*
X95779446Y-94449531D01*
X95844196Y-94339941D01*
X95863158Y-94308090D01*
X95896520Y-94252948D01*
X95928294Y-94201390D01*
X95953584Y-94161406D01*
X95998221Y-94092460D01*
X95905459Y-94038904D01*
X95862957Y-94014812D01*
X95832065Y-93999330D01*
X95809527Y-93992042D01*
X95789712Y-93991156D01*
X95766986Y-93994884D01*
X95729773Y-94008276D01*
X95693519Y-94040652D01*
X95682751Y-94056022D01*
X95662281Y-94105263D01*
X95207452Y-94105263D01*
X95214215Y-94093555D01*
X95225101Y-94074797D01*
X95268259Y-94001651D01*
X95316935Y-93920604D01*
X95365933Y-93840258D01*
X95410060Y-93769216D01*
X95514055Y-93603898D01*
X95948217Y-93854562D01*
X96023642Y-93777263D01*
X96056050Y-93745369D01*
X96130883Y-93678241D01*
X96214397Y-93610028D01*
X96298991Y-93546811D01*
X96377062Y-93494665D01*
X96407230Y-93476448D01*
X96585248Y-93383411D01*
X96773122Y-93308168D01*
X96967650Y-93251515D01*
X97165625Y-93214248D01*
X97184755Y-93212599D01*
X97381963Y-93212599D01*
X97384034Y-93220327D01*
X97391761Y-93218256D01*
X97389691Y-93210528D01*
X97381963Y-93212599D01*
X97184755Y-93212599D01*
X97363846Y-93197161D01*
X97559109Y-93201052D01*
X97759765Y-93226444D01*
X97961121Y-93273172D01*
X98154103Y-93339654D01*
X98337503Y-93424885D01*
X98510117Y-93527862D01*
X98670739Y-93647585D01*
X98818164Y-93783049D01*
X98951185Y-93933252D01*
X99068598Y-94097193D01*
X99144250Y-94230056D01*
X99169196Y-94273868D01*
X99251775Y-94462274D01*
X99315128Y-94661408D01*
X99321825Y-94687798D01*
X99360917Y-94893180D01*
X99378052Y-95101271D01*
X99373265Y-95309891D01*
X99346591Y-95516864D01*
X99298065Y-95720009D01*
X99276736Y-95791957D01*
X99274089Y-95800883D01*
X99712899Y-96054230D01*
G37*
G36*
X95817362Y-94079314D02*
G01*
X95847438Y-94087524D01*
X95868978Y-94102419D01*
X95871010Y-94125259D01*
X95855290Y-94159769D01*
X95844950Y-94177255D01*
X95831632Y-94194139D01*
X95818738Y-94196251D01*
X95799617Y-94186826D01*
X95766035Y-94160935D01*
X95751679Y-94131110D01*
X95759719Y-94099022D01*
X95769913Y-94084637D01*
X95787728Y-94076118D01*
X95817362Y-94079314D01*
G37*
G36*
X112793144Y-98197537D02*
G01*
X112838624Y-98225218D01*
X112849835Y-98247089D01*
X112866255Y-98279122D01*
X112854167Y-98343253D01*
X112825256Y-98399929D01*
X112894404Y-98459328D01*
X112905550Y-98468902D01*
X112969880Y-98524162D01*
X112985844Y-98537875D01*
X112954198Y-98590540D01*
X112935425Y-98633773D01*
X112940741Y-98685536D01*
X112985421Y-98718816D01*
X113017708Y-98742580D01*
X113029405Y-98762323D01*
X113044827Y-98788354D01*
X113045741Y-98789897D01*
X113056442Y-98840947D01*
X113043274Y-98877765D01*
X113025493Y-98908063D01*
X113042281Y-98952297D01*
X113086492Y-98989944D01*
X113101594Y-99002805D01*
X113152093Y-99052698D01*
X113152122Y-99052870D01*
X113161497Y-99108465D01*
X113138111Y-99147322D01*
X113127135Y-99165562D01*
X113122109Y-99170679D01*
X113091831Y-99203057D01*
X113080285Y-99215403D01*
X113032449Y-99268880D01*
X113028393Y-99273427D01*
X112949534Y-99335914D01*
X112857247Y-99372421D01*
X112762839Y-99381736D01*
X112677614Y-99362643D01*
X112612876Y-99313930D01*
X112592593Y-99292103D01*
X112899506Y-99292103D01*
X112907332Y-99304235D01*
X112930011Y-99300585D01*
X112972338Y-99265594D01*
X112989003Y-99248839D01*
X112987624Y-99240985D01*
X112949689Y-99251928D01*
X112912097Y-99270952D01*
X112899506Y-99292103D01*
X112592593Y-99292103D01*
X112572278Y-99270241D01*
X112663128Y-99270241D01*
X112695135Y-99284757D01*
X112733240Y-99291800D01*
X112778818Y-99288063D01*
X112780808Y-99287243D01*
X112785762Y-99275567D01*
X112748142Y-99264714D01*
X112705366Y-99259461D01*
X112668735Y-99260979D01*
X112663128Y-99270241D01*
X112572278Y-99270241D01*
X112570365Y-99268182D01*
X112514202Y-99220880D01*
X112476797Y-99190008D01*
X112444195Y-99133788D01*
X112446424Y-99122774D01*
X112488937Y-99122774D01*
X112490360Y-99133615D01*
X112516726Y-99154916D01*
X112520446Y-99156607D01*
X112539320Y-99161032D01*
X112524136Y-99139027D01*
X112506690Y-99123385D01*
X112488937Y-99122774D01*
X112446424Y-99122774D01*
X112455779Y-99076551D01*
X112466601Y-99049054D01*
X112459268Y-99005880D01*
X112520486Y-99005880D01*
X112520497Y-99012919D01*
X112536209Y-99044444D01*
X112563464Y-99087771D01*
X112592655Y-99128069D01*
X112602289Y-99138113D01*
X112614173Y-99150504D01*
X112622011Y-99154136D01*
X112669214Y-99166952D01*
X112733783Y-99177668D01*
X112755890Y-99180568D01*
X112812002Y-99189933D01*
X112841700Y-99198028D01*
X112862013Y-99204406D01*
X112903785Y-99204900D01*
X112940996Y-99196644D01*
X112953841Y-99182399D01*
X112956428Y-99166384D01*
X112983439Y-99137177D01*
X112993759Y-99127386D01*
X113009756Y-99084440D01*
X113071717Y-99084440D01*
X113071941Y-99117403D01*
X113073779Y-99120877D01*
X113098111Y-99125552D01*
X113107274Y-99110569D01*
X113101561Y-99071273D01*
X113097224Y-99060076D01*
X113084621Y-99041258D01*
X113075390Y-99063125D01*
X113071717Y-99084440D01*
X113009756Y-99084440D01*
X113011912Y-99078653D01*
X113008915Y-99018180D01*
X112984624Y-98966600D01*
X112980488Y-98962664D01*
X112939447Y-98954937D01*
X112867180Y-98973946D01*
X112829888Y-98984958D01*
X112739430Y-99000922D01*
X112648492Y-99006421D01*
X112595854Y-99005794D01*
X112542504Y-99005501D01*
X112520486Y-99005880D01*
X112459268Y-99005880D01*
X112457099Y-98993108D01*
X112406333Y-98942757D01*
X112375933Y-98918278D01*
X112345902Y-98863541D01*
X112346561Y-98860219D01*
X112393827Y-98860219D01*
X112396889Y-98874176D01*
X112424650Y-98904810D01*
X112425983Y-98905419D01*
X112440233Y-98904606D01*
X112423815Y-98874203D01*
X112402789Y-98851486D01*
X112393827Y-98860219D01*
X112346561Y-98860219D01*
X112357318Y-98806031D01*
X112366684Y-98781341D01*
X112366447Y-98768024D01*
X112436404Y-98768024D01*
X112455171Y-98817533D01*
X112475985Y-98854550D01*
X112501285Y-98882385D01*
X112510073Y-98892055D01*
X112558600Y-98911020D01*
X112636474Y-98919861D01*
X112668967Y-98922725D01*
X112728428Y-98931870D01*
X112760926Y-98942592D01*
X112772619Y-98948076D01*
X112809838Y-98946544D01*
X112843797Y-98930664D01*
X112853986Y-98908050D01*
X112856853Y-98893616D01*
X112882129Y-98875779D01*
X112967723Y-98875779D01*
X112974274Y-98884891D01*
X112997744Y-98858091D01*
X113005832Y-98841393D01*
X112999933Y-98804694D01*
X112999841Y-98804579D01*
X112982936Y-98799102D01*
X112972149Y-98835648D01*
X112967723Y-98875779D01*
X112882129Y-98875779D01*
X112886629Y-98872603D01*
X112914192Y-98850539D01*
X112922702Y-98801160D01*
X112899311Y-98738375D01*
X112885221Y-98714486D01*
X112868756Y-98684689D01*
X112860846Y-98681733D01*
X112821675Y-98687285D01*
X112762473Y-98705181D01*
X112741085Y-98711966D01*
X112648040Y-98729552D01*
X112557962Y-98732569D01*
X112491432Y-98730288D01*
X112446861Y-98740289D01*
X112436404Y-98768024D01*
X112366447Y-98768024D01*
X112365810Y-98732243D01*
X112352964Y-98711154D01*
X112311874Y-98681175D01*
X112307272Y-98679364D01*
X112264999Y-98640653D01*
X112249443Y-98583463D01*
X112252816Y-98572120D01*
X112288569Y-98572120D01*
X112289274Y-98586706D01*
X112304623Y-98606035D01*
X112343726Y-98635621D01*
X112370831Y-98651567D01*
X112375318Y-98650080D01*
X112347079Y-98621230D01*
X112309610Y-98585934D01*
X112288569Y-98572120D01*
X112252816Y-98572120D01*
X112266258Y-98526923D01*
X112271927Y-98518764D01*
X112285499Y-98491683D01*
X112274671Y-98469729D01*
X112264897Y-98461967D01*
X112335499Y-98461967D01*
X112373254Y-98545890D01*
X112386303Y-98573356D01*
X112413870Y-98612178D01*
X112441231Y-98626089D01*
X112454023Y-98632593D01*
X112522576Y-98645109D01*
X112561691Y-98650992D01*
X112624597Y-98662826D01*
X112661163Y-98673005D01*
X112679282Y-98678163D01*
X112732911Y-98663254D01*
X112797342Y-98606741D01*
X112807836Y-98594427D01*
X112825226Y-98556037D01*
X112882303Y-98556037D01*
X112884841Y-98573189D01*
X112901842Y-98584274D01*
X112909828Y-98577385D01*
X112910637Y-98545724D01*
X112904557Y-98531832D01*
X112891098Y-98517487D01*
X112887108Y-98523282D01*
X112882303Y-98556037D01*
X112825226Y-98556037D01*
X112829679Y-98546206D01*
X112818544Y-98486939D01*
X112816798Y-98482155D01*
X112800869Y-98445991D01*
X112779528Y-98430354D01*
X112740232Y-98431875D01*
X112670434Y-98447189D01*
X112624755Y-98456235D01*
X112526967Y-98467760D01*
X112441439Y-98469119D01*
X112335499Y-98461967D01*
X112264897Y-98461967D01*
X112233777Y-98437254D01*
X112173960Y-98378579D01*
X112151515Y-98316306D01*
X112152671Y-98312995D01*
X112190373Y-98312995D01*
X112198064Y-98326149D01*
X112229479Y-98357676D01*
X112246206Y-98367586D01*
X112253439Y-98360739D01*
X112245748Y-98347584D01*
X112214331Y-98316057D01*
X112197605Y-98306147D01*
X112190373Y-98312995D01*
X112152671Y-98312995D01*
X112172437Y-98256375D01*
X112206271Y-98210512D01*
X112182624Y-98190615D01*
X112236688Y-98190615D01*
X112274854Y-98275604D01*
X112286283Y-98300111D01*
X112308640Y-98335164D01*
X112313768Y-98338781D01*
X112340104Y-98357353D01*
X112392237Y-98373183D01*
X112476599Y-98389160D01*
X112520395Y-98396678D01*
X112599875Y-98408768D01*
X112645981Y-98412054D01*
X112665803Y-98406671D01*
X112666433Y-98392754D01*
X112671977Y-98373712D01*
X112700000Y-98339296D01*
X112703361Y-98335951D01*
X112705545Y-98331523D01*
X112776143Y-98331523D01*
X112789969Y-98342201D01*
X112800453Y-98333877D01*
X112812243Y-98297729D01*
X112807471Y-98262508D01*
X112793660Y-98261394D01*
X112778928Y-98300160D01*
X112776143Y-98331523D01*
X112705545Y-98331523D01*
X112725879Y-98290293D01*
X112718172Y-98223918D01*
X112697000Y-98146124D01*
X112573580Y-98174342D01*
X112527874Y-98183149D01*
X112429558Y-98194697D01*
X112343424Y-98196587D01*
X112236688Y-98190615D01*
X112182624Y-98190615D01*
X112125740Y-98142751D01*
X112090054Y-98112104D01*
X112061400Y-98080824D01*
X112058044Y-98063516D01*
X112098849Y-98063516D01*
X112113040Y-98070133D01*
X112119657Y-98055942D01*
X112105466Y-98049325D01*
X112098849Y-98063516D01*
X112058044Y-98063516D01*
X112056255Y-98054290D01*
X112068163Y-98018585D01*
X112078700Y-97966227D01*
X112061131Y-97918014D01*
X112030253Y-97890230D01*
X112117476Y-97890230D01*
X112123393Y-97918605D01*
X112150463Y-97975903D01*
X112166756Y-98007173D01*
X112181651Y-98033378D01*
X112195626Y-98057961D01*
X112213529Y-98083117D01*
X112214993Y-98084009D01*
X112247683Y-98093443D01*
X112310476Y-98106249D01*
X112391280Y-98119923D01*
X112466459Y-98131331D01*
X112527282Y-98139144D01*
X112558931Y-98139797D01*
X112569478Y-98133273D01*
X112566997Y-98119555D01*
X112574408Y-98099254D01*
X112603975Y-98072244D01*
X112674996Y-98072244D01*
X112698889Y-98068995D01*
X112716761Y-98053726D01*
X112716240Y-98011621D01*
X112705413Y-97985894D01*
X112697097Y-97977347D01*
X112692572Y-97993016D01*
X112679745Y-98034723D01*
X112675923Y-98047580D01*
X112674996Y-98072244D01*
X112603975Y-98072244D01*
X112607515Y-98069010D01*
X112621559Y-98058871D01*
X112637384Y-98039275D01*
X112639046Y-98009991D01*
X112625994Y-97960458D01*
X112597678Y-97880117D01*
X112592413Y-97865778D01*
X112560606Y-97787136D01*
X112537848Y-97748180D01*
X112522540Y-97746061D01*
X112469583Y-97793230D01*
X112375671Y-97840223D01*
X112262102Y-97871022D01*
X112142059Y-97880952D01*
X112131867Y-97881261D01*
X112117476Y-97890230D01*
X112030253Y-97890230D01*
X112010882Y-97872800D01*
X111924260Y-97827304D01*
X111892597Y-97815043D01*
X112096581Y-97815043D01*
X112097616Y-97824650D01*
X112117946Y-97832250D01*
X112120431Y-97832872D01*
X112185241Y-97833483D01*
X112270812Y-97815967D01*
X112361292Y-97785594D01*
X112440826Y-97747636D01*
X112493561Y-97707362D01*
X112495603Y-97704977D01*
X112525855Y-97667737D01*
X112537396Y-97649811D01*
X112520343Y-97654141D01*
X112469454Y-97670971D01*
X112392966Y-97697663D01*
X112299202Y-97731368D01*
X112261250Y-97745225D01*
X112173196Y-97778224D01*
X112120040Y-97800532D01*
X112096581Y-97815043D01*
X111892597Y-97815043D01*
X111797574Y-97778247D01*
X111755285Y-97759218D01*
X111711401Y-97719361D01*
X111672067Y-97650813D01*
X111666537Y-97639072D01*
X111641984Y-97575307D01*
X111638926Y-97524552D01*
X111651828Y-97478470D01*
X111703662Y-97478470D01*
X111710975Y-97529256D01*
X111756883Y-97572220D01*
X111798820Y-97590098D01*
X111896293Y-97602839D01*
X112024125Y-97594662D01*
X112176952Y-97565653D01*
X112225162Y-97555847D01*
X112279295Y-97551818D01*
X112300718Y-97560087D01*
X112285643Y-97578005D01*
X112230282Y-97602926D01*
X112164088Y-97621325D01*
X112064290Y-97638461D01*
X111958906Y-97648366D01*
X111864060Y-97649635D01*
X111795873Y-97640858D01*
X111786544Y-97638328D01*
X111737395Y-97630981D01*
X111712865Y-97637681D01*
X111710968Y-97647147D01*
X111730273Y-97679475D01*
X111779142Y-97712737D01*
X111847179Y-97740997D01*
X111923986Y-97758312D01*
X111925076Y-97758449D01*
X111992399Y-97763091D01*
X112059217Y-97757398D01*
X112139322Y-97739137D01*
X112246512Y-97706073D01*
X112279179Y-97695123D01*
X112415228Y-97642755D01*
X112517124Y-97588892D01*
X112593087Y-97528467D01*
X112651339Y-97456409D01*
X112674250Y-97414776D01*
X112696656Y-97353177D01*
X112704481Y-97301208D01*
X112694303Y-97273434D01*
X112688229Y-97275970D01*
X112660216Y-97301918D01*
X112619506Y-97347405D01*
X112598459Y-97370597D01*
X112556907Y-97405769D01*
X112529784Y-97414065D01*
X112522124Y-97408324D01*
X112524218Y-97386925D01*
X112527390Y-97384021D01*
X112555904Y-97352811D01*
X112594870Y-97305867D01*
X112618208Y-97272189D01*
X112634905Y-97214560D01*
X112610691Y-97169524D01*
X112544808Y-97136158D01*
X112436498Y-97113542D01*
X112398484Y-97112324D01*
X112304790Y-97125779D01*
X112192012Y-97155986D01*
X112072143Y-97198472D01*
X111957173Y-97248760D01*
X111859096Y-97302375D01*
X111789904Y-97354843D01*
X111735523Y-97416037D01*
X111703662Y-97478470D01*
X111651828Y-97478470D01*
X111655454Y-97465520D01*
X111684016Y-97404790D01*
X111740996Y-97333049D01*
X111824592Y-97268799D01*
X111940594Y-97207827D01*
X112094794Y-97145921D01*
X112101147Y-97143611D01*
X112207631Y-97106031D01*
X112285018Y-97082483D01*
X112344753Y-97070662D01*
X112398283Y-97068264D01*
X112457051Y-97072985D01*
X112506704Y-97080658D01*
X112620559Y-97118576D01*
X112698891Y-97178690D01*
X112739802Y-97257980D01*
X112740306Y-97288168D01*
X112741393Y-97353428D01*
X112701766Y-97462017D01*
X112646699Y-97575686D01*
X112633948Y-97614669D01*
X112615336Y-97671569D01*
X112609168Y-97752806D01*
X112626211Y-97829018D01*
X112635721Y-97853095D01*
X112641498Y-97864167D01*
X112658925Y-97897566D01*
X112676293Y-97912258D01*
X112698538Y-97917497D01*
X112733909Y-97947374D01*
X112764986Y-97988771D01*
X112766564Y-97993304D01*
X112778043Y-98026301D01*
X112775725Y-98041557D01*
X112751983Y-98082458D01*
X112749310Y-98085004D01*
X112737439Y-98123607D01*
X112740072Y-98130447D01*
X112754297Y-98167398D01*
X112793144Y-98197537D01*
G37*
G36*
X112384737Y-97181089D02*
G01*
X112408401Y-97196588D01*
X112421385Y-97205093D01*
X112421886Y-97237070D01*
X112383841Y-97264593D01*
X112365271Y-97272075D01*
X112344849Y-97291927D01*
X112360542Y-97323146D01*
X112374893Y-97349857D01*
X112368944Y-97390425D01*
X112365746Y-97394366D01*
X112312270Y-97431570D01*
X112247129Y-97444558D01*
X112190872Y-97428890D01*
X112174691Y-97418219D01*
X112148253Y-97410279D01*
X112117641Y-97423560D01*
X112068250Y-97462007D01*
X112054692Y-97473052D01*
X112007453Y-97506773D01*
X111971534Y-97517710D01*
X111929762Y-97512071D01*
X111926795Y-97511360D01*
X111874331Y-97489728D01*
X111865115Y-97460518D01*
X111934320Y-97460518D01*
X111939220Y-97470318D01*
X111978763Y-97458411D01*
X112015629Y-97438466D01*
X112024869Y-97407030D01*
X112012757Y-97386664D01*
X111986907Y-97389114D01*
X111950570Y-97433324D01*
X111934320Y-97460518D01*
X111865115Y-97460518D01*
X111864557Y-97458749D01*
X111896305Y-97415037D01*
X111919522Y-97381211D01*
X111918779Y-97351256D01*
X111916087Y-97347224D01*
X111919137Y-97332285D01*
X112068361Y-97332285D01*
X112082879Y-97354513D01*
X112113495Y-97362991D01*
X112130854Y-97353130D01*
X112149035Y-97318884D01*
X112135419Y-97288928D01*
X112197642Y-97288928D01*
X112200865Y-97300020D01*
X112212151Y-97338865D01*
X112223202Y-97367112D01*
X112243109Y-97402751D01*
X112253759Y-97397343D01*
X112253075Y-97350308D01*
X112257346Y-97309634D01*
X112284701Y-97257911D01*
X112305670Y-97233979D01*
X112297722Y-97229309D01*
X112253786Y-97242825D01*
X112250656Y-97243895D01*
X112208056Y-97262855D01*
X112197642Y-97288928D01*
X112135419Y-97288928D01*
X112133619Y-97284967D01*
X112099863Y-97274628D01*
X112070986Y-97293419D01*
X112068361Y-97332285D01*
X111919137Y-97332285D01*
X111922070Y-97317919D01*
X111955878Y-97284681D01*
X112005627Y-97256659D01*
X112059431Y-97243001D01*
X112078225Y-97240772D01*
X112144249Y-97226596D01*
X112217929Y-97204801D01*
X112248430Y-97195361D01*
X112317428Y-97180141D01*
X112366987Y-97177292D01*
X112384737Y-97181089D01*
G37*
G36*
X102657485Y-93932772D02*
G01*
X102676566Y-93996168D01*
X102655176Y-94054741D01*
X102615376Y-94074488D01*
X102549689Y-94066175D01*
X102504887Y-94022845D01*
X102502202Y-94014529D01*
X102511271Y-93951034D01*
X102558853Y-93907118D01*
X102623280Y-93904452D01*
X102657485Y-93932772D01*
G37*
G36*
X103926594Y-99901327D02*
G01*
X103930720Y-99924894D01*
X103923401Y-99943214D01*
X103916803Y-99946038D01*
X103859277Y-99952685D01*
X103749385Y-99958565D01*
X103594824Y-99963659D01*
X103403292Y-99967948D01*
X103182487Y-99971416D01*
X102940106Y-99974043D01*
X102683846Y-99975812D01*
X102421406Y-99976704D01*
X102160483Y-99976700D01*
X101908774Y-99975784D01*
X101673976Y-99973935D01*
X101463788Y-99971137D01*
X101285907Y-99967371D01*
X101148031Y-99962619D01*
X101057856Y-99956862D01*
X101023080Y-99950083D01*
X101020971Y-99938745D01*
X101020873Y-99874086D01*
X101026181Y-99763818D01*
X101026226Y-99763167D01*
X101161590Y-99763167D01*
X101161677Y-99849937D01*
X102423789Y-99849937D01*
X102423789Y-98949692D01*
X102423791Y-98920261D01*
X102424195Y-98661765D01*
X102425541Y-98458902D01*
X102428204Y-98304888D01*
X102432555Y-98192937D01*
X102438968Y-98116265D01*
X102447815Y-98068085D01*
X102459469Y-98041613D01*
X102474302Y-98030064D01*
X102489033Y-98025721D01*
X102540973Y-98042188D01*
X102570357Y-98114788D01*
X102575847Y-98240745D01*
X102574990Y-98268384D01*
X102573711Y-98367183D01*
X102573114Y-98512546D01*
X102573205Y-98693304D01*
X102573989Y-98898290D01*
X102575470Y-99116335D01*
X102581553Y-99849937D01*
X103133727Y-99849937D01*
X103288778Y-99849181D01*
X103447373Y-99846600D01*
X103573156Y-99842517D01*
X103656031Y-99837272D01*
X103685900Y-99831210D01*
X103685900Y-99831161D01*
X103665586Y-99801680D01*
X103610737Y-99735728D01*
X103529684Y-99643033D01*
X103430760Y-99533323D01*
X103331769Y-99422055D01*
X103245846Y-99315225D01*
X103200703Y-99241857D01*
X103192899Y-99197082D01*
X103200720Y-99161576D01*
X103215555Y-99062636D01*
X103232439Y-98922591D01*
X103250131Y-98754794D01*
X103267390Y-98572597D01*
X103282974Y-98389352D01*
X103295643Y-98218413D01*
X103304154Y-98073130D01*
X103307267Y-97966857D01*
X103307267Y-97732680D01*
X103199605Y-97687696D01*
X103197080Y-97686642D01*
X103144025Y-97667225D01*
X103098029Y-97663284D01*
X103043873Y-97679188D01*
X102966338Y-97719306D01*
X102850204Y-97788009D01*
X102608466Y-97933306D01*
X102224264Y-97857460D01*
X101840062Y-97781615D01*
X101848211Y-97623826D01*
X101856361Y-97466037D01*
X101633100Y-97408523D01*
X101618183Y-97404715D01*
X101510697Y-97379469D01*
X101431726Y-97364665D01*
X101397449Y-97363399D01*
X101396909Y-97364393D01*
X101389500Y-97407340D01*
X101376642Y-97511562D01*
X101358479Y-97675656D01*
X101335157Y-97898219D01*
X101306820Y-98177848D01*
X101273612Y-98513138D01*
X101235678Y-98902688D01*
X101193163Y-99345093D01*
X101184087Y-99443767D01*
X101172462Y-99583248D01*
X101164514Y-99695669D01*
X101161590Y-99763167D01*
X101026226Y-99763167D01*
X101036254Y-99619609D01*
X101050448Y-99453126D01*
X101054538Y-99408631D01*
X101071812Y-99216860D01*
X101088195Y-99029433D01*
X101102004Y-98865846D01*
X101111554Y-98745590D01*
X101119525Y-98648025D01*
X101133092Y-98495309D01*
X101150403Y-98308659D01*
X101170064Y-98103101D01*
X101190677Y-97893664D01*
X101209677Y-97700217D01*
X101224456Y-97536582D01*
X101232640Y-97419525D01*
X101234386Y-97340534D01*
X101229850Y-97291097D01*
X101219188Y-97262700D01*
X101202557Y-97246832D01*
X101055643Y-97150045D01*
X100929304Y-97056193D01*
X100837180Y-96971570D01*
X100767267Y-96886233D01*
X100745646Y-96854921D01*
X100706227Y-96786961D01*
X100684363Y-96718058D01*
X100675095Y-96627510D01*
X100673781Y-96520346D01*
X100795337Y-96520346D01*
X100829283Y-96697701D01*
X100923694Y-96857752D01*
X101078916Y-97001552D01*
X101295293Y-97130156D01*
X101303256Y-97134041D01*
X101417279Y-97184213D01*
X101551668Y-97232851D01*
X101716854Y-97283149D01*
X101923271Y-97338304D01*
X102181351Y-97401509D01*
X102244411Y-97428833D01*
X102259568Y-97476717D01*
X102253379Y-97494399D01*
X102212155Y-97522622D01*
X102123373Y-97530807D01*
X102053069Y-97534299D01*
X102005689Y-97553616D01*
X101988242Y-97597994D01*
X101987619Y-97602822D01*
X101991547Y-97637732D01*
X102020965Y-97663845D01*
X102088079Y-97687820D01*
X102205094Y-97716317D01*
X102297553Y-97737118D01*
X102405160Y-97757948D01*
X102470387Y-97759037D01*
X102505232Y-97736180D01*
X102521697Y-97685170D01*
X102521872Y-97683723D01*
X102678694Y-97683723D01*
X102680287Y-97716615D01*
X102704112Y-97709995D01*
X102768494Y-97678314D01*
X102857087Y-97628398D01*
X103022187Y-97530807D01*
X103022739Y-96954968D01*
X103021738Y-96778480D01*
X103018468Y-96618596D01*
X103013328Y-96492151D01*
X103006724Y-96409033D01*
X102999063Y-96379130D01*
X102989510Y-96381529D01*
X102937021Y-96408351D01*
X102862660Y-96455355D01*
X102750484Y-96531580D01*
X102709536Y-97119411D01*
X102709360Y-97121934D01*
X102697113Y-97307004D01*
X102687595Y-97468963D01*
X102681293Y-97597854D01*
X102678694Y-97683723D01*
X102521872Y-97683723D01*
X102531780Y-97601801D01*
X102533301Y-97587356D01*
X102542812Y-97487944D01*
X102554707Y-97353200D01*
X102567860Y-97197151D01*
X102581147Y-97033827D01*
X102593440Y-96877256D01*
X102603615Y-96741465D01*
X102610545Y-96640484D01*
X102613105Y-96588340D01*
X102609731Y-96581369D01*
X102566717Y-96551035D01*
X102488577Y-96511705D01*
X102393589Y-96470890D01*
X102300035Y-96436100D01*
X102226195Y-96414846D01*
X102190348Y-96414639D01*
X102189892Y-96415258D01*
X102177340Y-96453985D01*
X102161437Y-96526377D01*
X102154076Y-96584667D01*
X102172234Y-96628774D01*
X102235786Y-96658835D01*
X102237669Y-96659502D01*
X102302329Y-96696745D01*
X102329130Y-96740346D01*
X102309660Y-96774961D01*
X102238019Y-96787912D01*
X102116441Y-96770659D01*
X101947820Y-96723330D01*
X101869343Y-96696338D01*
X101678972Y-96613219D01*
X101547125Y-96522632D01*
X101470464Y-96421817D01*
X101445652Y-96308013D01*
X101447487Y-96285521D01*
X101473372Y-96223197D01*
X101516532Y-96188821D01*
X101559815Y-96198800D01*
X101570122Y-96216183D01*
X101589378Y-96283514D01*
X101601002Y-96369912D01*
X101617381Y-96395623D01*
X101676533Y-96444108D01*
X101762032Y-96498842D01*
X101856081Y-96548692D01*
X101940883Y-96582525D01*
X101986727Y-96588351D01*
X102012680Y-96560137D01*
X102030408Y-96483255D01*
X102046717Y-96392736D01*
X102067011Y-96309331D01*
X102088848Y-96264510D01*
X102117350Y-96244182D01*
X102125972Y-96243055D01*
X102186263Y-96253421D01*
X102283449Y-96281657D01*
X102401093Y-96323184D01*
X102646596Y-96416752D01*
X102860066Y-96287772D01*
X103073535Y-96158792D01*
X103403320Y-96221632D01*
X103510826Y-96242034D01*
X103627664Y-96263982D01*
X103708784Y-96278942D01*
X103741055Y-96284472D01*
X103746611Y-96310527D01*
X103749006Y-96375450D01*
X103763563Y-96448645D01*
X103815436Y-96483800D01*
X103853488Y-96503389D01*
X103868361Y-96542697D01*
X103866390Y-96547495D01*
X103821202Y-96592671D01*
X103740818Y-96639765D01*
X103648517Y-96677137D01*
X103567577Y-96693142D01*
X103541246Y-96690971D01*
X103501042Y-96662403D01*
X103507538Y-96615124D01*
X103561604Y-96567422D01*
X103598847Y-96536575D01*
X103616821Y-96465050D01*
X103614205Y-96449996D01*
X103602157Y-96422006D01*
X103572712Y-96400620D01*
X103514654Y-96381622D01*
X103416765Y-96360800D01*
X103267826Y-96333938D01*
X103149503Y-96313165D01*
X103149986Y-96890433D01*
X103150436Y-96954968D01*
X103151205Y-97065282D01*
X103154597Y-97231552D01*
X103159743Y-97366650D01*
X103166232Y-97459931D01*
X103173651Y-97500752D01*
X103196214Y-97519308D01*
X103265470Y-97557880D01*
X103359784Y-97600428D01*
X103522736Y-97667053D01*
X103542656Y-97587687D01*
X103547321Y-97528263D01*
X103509461Y-97469484D01*
X103498694Y-97461119D01*
X103468930Y-97418240D01*
X103489621Y-97376151D01*
X103564660Y-97330908D01*
X103697939Y-97278570D01*
X103806579Y-97237344D01*
X103995939Y-97141440D01*
X104132016Y-97031204D01*
X104221188Y-96902043D01*
X104258020Y-96809954D01*
X104279949Y-96674811D01*
X104261078Y-96531236D01*
X104199416Y-96367917D01*
X104092973Y-96173545D01*
X104069052Y-96135898D01*
X103947192Y-95973658D01*
X103784476Y-95789559D01*
X103590688Y-95593181D01*
X103375614Y-95394101D01*
X103149038Y-95201897D01*
X102920745Y-95026145D01*
X102917241Y-95023592D01*
X102812812Y-94940138D01*
X102756295Y-94874935D01*
X102739317Y-94818398D01*
X102727089Y-94763384D01*
X102678617Y-94720225D01*
X102611106Y-94720676D01*
X102543942Y-94769583D01*
X102535471Y-94779699D01*
X102476447Y-94822580D01*
X102399996Y-94817797D01*
X102340870Y-94805670D01*
X102227804Y-94798993D01*
X102077693Y-94809161D01*
X102025470Y-94805616D01*
X101989287Y-94765572D01*
X102007318Y-94722152D01*
X102069925Y-94682247D01*
X102158628Y-94653202D01*
X102254665Y-94641104D01*
X102339274Y-94652039D01*
X102373896Y-94661991D01*
X102438011Y-94659024D01*
X102503179Y-94611696D01*
X102526629Y-94591206D01*
X102583936Y-94561121D01*
X102655294Y-94561041D01*
X102762377Y-94589074D01*
X102764699Y-94588739D01*
X102780693Y-94553800D01*
X102799575Y-94473590D01*
X102817736Y-94362850D01*
X102831543Y-94268067D01*
X102852010Y-94179790D01*
X102884688Y-94124893D01*
X102941133Y-94086437D01*
X103032900Y-94047486D01*
X103121391Y-94012455D01*
X103064453Y-93913860D01*
X102971862Y-93778896D01*
X102815626Y-93619025D01*
X102635389Y-93492772D01*
X102441738Y-93404629D01*
X102245260Y-93359089D01*
X102056542Y-93360645D01*
X101886169Y-93413791D01*
X101789271Y-93475284D01*
X101671181Y-93606038D01*
X101599932Y-93776558D01*
X101575367Y-93987647D01*
X101597329Y-94240106D01*
X101665659Y-94534739D01*
X101697948Y-94650595D01*
X101736981Y-94802975D01*
X101766873Y-94934155D01*
X101782939Y-95024569D01*
X101800178Y-95168766D01*
X101592037Y-95334389D01*
X101565832Y-95355517D01*
X101378459Y-95521921D01*
X101202315Y-95703209D01*
X101051740Y-95883672D01*
X100941071Y-96047600D01*
X100907462Y-96109500D01*
X100821512Y-96324631D01*
X100795337Y-96520346D01*
X100673781Y-96520346D01*
X100673465Y-96494615D01*
X100674933Y-96405320D01*
X100684972Y-96282389D01*
X100708200Y-96186609D01*
X100748930Y-96095155D01*
X100818726Y-95976519D01*
X100968101Y-95770220D01*
X101151573Y-95558026D01*
X101355919Y-95354789D01*
X101567915Y-95175360D01*
X101674401Y-95093474D01*
X101577392Y-94750277D01*
X101548933Y-94646288D01*
X101505612Y-94476194D01*
X101468857Y-94318300D01*
X101444459Y-94196724D01*
X101442056Y-94182120D01*
X101429974Y-93940956D01*
X101469724Y-93725134D01*
X101555565Y-93539895D01*
X101681756Y-93390479D01*
X101842558Y-93282124D01*
X102032230Y-93220072D01*
X102245032Y-93209560D01*
X102475224Y-93255830D01*
X102547271Y-93284512D01*
X102702424Y-93372358D01*
X102864479Y-93491489D01*
X103015196Y-93627798D01*
X103136336Y-93767176D01*
X103168115Y-93811172D01*
X103243912Y-93932271D01*
X103272172Y-94021836D01*
X103251022Y-94089560D01*
X103178588Y-94145136D01*
X103052995Y-94198259D01*
X103016409Y-94215575D01*
X102989340Y-94245468D01*
X102969056Y-94299952D01*
X102950905Y-94391728D01*
X102930236Y-94533499D01*
X102923890Y-94581766D01*
X102909573Y-94723544D01*
X102907532Y-94818836D01*
X102918055Y-94859992D01*
X102936131Y-94873203D01*
X102997855Y-94919823D01*
X103089432Y-94989775D01*
X103198578Y-95073702D01*
X103412246Y-95244790D01*
X103709471Y-95509019D01*
X103957035Y-95764716D01*
X104152984Y-96009339D01*
X104295366Y-96240350D01*
X104382227Y-96455208D01*
X104411615Y-96651373D01*
X104409775Y-96674811D01*
X104400615Y-96791500D01*
X104344227Y-96969171D01*
X104236659Y-97122251D01*
X104074216Y-97255520D01*
X103853201Y-97373760D01*
X103689197Y-97446995D01*
X103679660Y-97630888D01*
X103670124Y-97814782D01*
X103560449Y-97814782D01*
X103499084Y-97818161D01*
X103458279Y-97839924D01*
X103445987Y-97893664D01*
X103443095Y-97943254D01*
X103437231Y-98046489D01*
X103429586Y-98182638D01*
X103421080Y-98335403D01*
X103414299Y-98443305D01*
X103399584Y-98631567D01*
X103382437Y-98811984D01*
X103365334Y-98956951D01*
X103329710Y-99215642D01*
X103595427Y-99509125D01*
X103685382Y-99608658D01*
X103790417Y-99726178D01*
X103861955Y-99809266D01*
X103879038Y-99831210D01*
X103905510Y-99865216D01*
X103926594Y-99901327D01*
G37*
G36*
X103849008Y-96879273D02*
G01*
X103874734Y-96911015D01*
X103871919Y-96929648D01*
X103823274Y-96989770D01*
X103717404Y-97035960D01*
X103643980Y-97055415D01*
X103555626Y-97068768D01*
X103509727Y-97055014D01*
X103496584Y-97013152D01*
X103500618Y-96991023D01*
X103543285Y-96946312D01*
X103639848Y-96904197D01*
X103675124Y-96893105D01*
X103778219Y-96873179D01*
X103849008Y-96879273D01*
G37*
G36*
X102084596Y-97023843D02*
G01*
X102158553Y-97035260D01*
X102250791Y-97060812D01*
X102291688Y-97095952D01*
X102288844Y-97145196D01*
X102284839Y-97153628D01*
X102257697Y-97172587D01*
X102199537Y-97173657D01*
X102095338Y-97157818D01*
X102064948Y-97152103D01*
X101974775Y-97129328D01*
X101930637Y-97102355D01*
X101918944Y-97063951D01*
X101920880Y-97039333D01*
X101938764Y-97017305D01*
X101988235Y-97013377D01*
X102084596Y-97023843D01*
G37*
%TD*%
%LPC*%
D10*
X99900000Y-100000000D02*
X100100000Y-100000000D01*
X100100000Y-100000000D02*
X100100000Y-93000000D01*
X100100000Y-93000000D02*
X99900000Y-93000000D01*
X99900000Y-93000000D02*
X99900000Y-100000000D01*
G36*
X99900000Y-100000000D02*
G01*
X100100000Y-100000000D01*
X100100000Y-93000000D01*
X99900000Y-93000000D01*
X99900000Y-100000000D01*
G37*
D11*
X110300000Y-99800000D02*
X113700000Y-99800000D01*
X113700000Y-99800000D02*
X113700000Y-101600000D01*
X113700000Y-101600000D02*
X110300000Y-101600000D01*
X110300000Y-101600000D02*
X110300000Y-99800000D01*
G36*
X110300000Y-99800000D02*
G01*
X113700000Y-99800000D01*
X113700000Y-101600000D01*
X110300000Y-101600000D01*
X110300000Y-99800000D01*
G37*
D12*
X109752500Y-96500000D02*
G75*
G03*
X109752500Y-96500000I-1752500J0D01*
G01*
D11*
X102300000Y-100000000D02*
X105700000Y-100000000D01*
X105700000Y-100000000D02*
X105700000Y-101600000D01*
X105700000Y-101600000D02*
X102300000Y-101600000D01*
X102300000Y-101600000D02*
X102300000Y-100000000D01*
G36*
X102300000Y-100000000D02*
G01*
X105700000Y-100000000D01*
X105700000Y-101600000D01*
X102300000Y-101600000D01*
X102300000Y-100000000D01*
G37*
X86350000Y-99800000D02*
X89750000Y-99800000D01*
X89750000Y-99800000D02*
X89750000Y-101600000D01*
X89750000Y-101600000D02*
X86350000Y-101600000D01*
X86350000Y-101600000D02*
X86350000Y-99800000D01*
G36*
X86350000Y-99800000D02*
G01*
X89750000Y-99800000D01*
X89750000Y-101600000D01*
X86350000Y-101600000D01*
X86350000Y-99800000D01*
G37*
D12*
X93752500Y-96500000D02*
G75*
G03*
X93752500Y-96500000I-1752500J0D01*
G01*
D11*
X94300000Y-99800000D02*
X97700000Y-99800000D01*
X97700000Y-99800000D02*
X97700000Y-101600000D01*
X97700000Y-101600000D02*
X94300000Y-101600000D01*
X94300000Y-101600000D02*
X94300000Y-99800000D01*
G36*
X94300000Y-99800000D02*
G01*
X97700000Y-99800000D01*
X97700000Y-101600000D01*
X94300000Y-101600000D01*
X94300000Y-99800000D01*
G37*
M02*
