%TF.GenerationSoftware,KiCad,Pcbnew,(6.0.5)*%
%TF.CreationDate,2024-11-08T16:02:50+00:00*%
%TF.ProjectId,screw_switch,73637265-775f-4737-9769-7463682e6b69,rev?*%
%TF.SameCoordinates,Original*%
%TF.FileFunction,Legend,Top*%
%TF.FilePolarity,Positive*%
%FSLAX46Y46*%
G04 Gerber Fmt 4.6, Leading zero omitted, Abs format (unit mm)*
G04 Created by KiCad (PCBNEW (6.0.5)) date 2024-11-08 16:02:50*
%MOMM*%
%LPD*%
G01*
G04 APERTURE LIST*
G04 Aperture macros list*
%AMRoundRect*
0 Rectangle with rounded corners*
0 $1 Rounding radius*
0 $2 $3 $4 $5 $6 $7 $8 $9 X,Y pos of 4 corners*
0 Add a 4 corners polygon primitive as box body*
4,1,4,$2,$3,$4,$5,$6,$7,$8,$9,$2,$3,0*
0 Add four circle primitives for the rounded corners*
1,1,$1+$1,$2,$3*
1,1,$1+$1,$4,$5*
1,1,$1+$1,$6,$7*
1,1,$1+$1,$8,$9*
0 Add four rect primitives between the rounded corners*
20,1,$1+$1,$2,$3,$4,$5,0*
20,1,$1+$1,$4,$5,$6,$7,0*
20,1,$1+$1,$6,$7,$8,$9,0*
20,1,$1+$1,$8,$9,$2,$3,0*%
G04 Aperture macros list end*
%ADD10C,0.100000*%
%ADD11C,0.375000*%
%ADD12C,0.120000*%
%ADD13C,3.505000*%
%ADD14C,0.010000*%
%ADD15RoundRect,0.218750X-0.256250X0.218750X-0.256250X-0.218750X0.256250X-0.218750X0.256250X0.218750X0*%
%ADD16RoundRect,0.200000X-0.275000X0.200000X-0.275000X-0.200000X0.275000X-0.200000X0.275000X0.200000X0*%
G04 APERTURE END LIST*
D10*
X98700000Y-94650000D02*
X98850000Y-94650000D01*
X101150000Y-94650000D02*
X101300000Y-94650000D01*
X98850000Y-94850000D02*
X99150000Y-94850000D01*
X101150000Y-94850000D02*
X101150000Y-94650000D01*
X100700000Y-94650000D02*
X100850000Y-94650000D01*
X100850000Y-94850000D02*
X101150000Y-94850000D01*
X99150000Y-94850000D02*
X99150000Y-94650000D01*
X100850000Y-94650000D02*
X100850000Y-94850000D01*
X99150000Y-94650000D02*
X99300000Y-94650000D01*
X98850000Y-94650000D02*
X98850000Y-94850000D01*
D11*
X87392857Y-98607142D02*
X87464285Y-98392857D01*
X87535714Y-98321428D01*
X87678571Y-98250000D01*
X87892857Y-98250000D01*
X88035714Y-98321428D01*
X88107142Y-98392857D01*
X88178571Y-98535714D01*
X88178571Y-99107142D01*
X86678571Y-99107142D01*
X86678571Y-98607142D01*
X86750000Y-98464285D01*
X86821428Y-98392857D01*
X86964285Y-98321428D01*
X87107142Y-98321428D01*
X87250000Y-98392857D01*
X87321428Y-98464285D01*
X87392857Y-98607142D01*
X87392857Y-99107142D01*
X86678571Y-97607142D02*
X87892857Y-97607142D01*
X88035714Y-97535714D01*
X88107142Y-97464285D01*
X88178571Y-97321428D01*
X88178571Y-97035714D01*
X88107142Y-96892857D01*
X88035714Y-96821428D01*
X87892857Y-96750000D01*
X86678571Y-96750000D01*
X86678571Y-96178571D02*
X86678571Y-95178571D01*
X88178571Y-96178571D01*
X88178571Y-95178571D01*
X86678571Y-94750000D02*
X86678571Y-93750000D01*
X88178571Y-94750000D01*
X88178571Y-93750000D01*
X96607142Y-94392857D02*
X96535714Y-94607142D01*
X96464285Y-94678571D01*
X96321428Y-94750000D01*
X96107142Y-94750000D01*
X95964285Y-94678571D01*
X95892857Y-94607142D01*
X95821428Y-94464285D01*
X95821428Y-93892857D01*
X97321428Y-93892857D01*
X97321428Y-94392857D01*
X97250000Y-94535714D01*
X97178571Y-94607142D01*
X97035714Y-94678571D01*
X96892857Y-94678571D01*
X96750000Y-94607142D01*
X96678571Y-94535714D01*
X96607142Y-94392857D01*
X96607142Y-93892857D01*
X97321428Y-95392857D02*
X96107142Y-95392857D01*
X95964285Y-95464285D01*
X95892857Y-95535714D01*
X95821428Y-95678571D01*
X95821428Y-95964285D01*
X95892857Y-96107142D01*
X95964285Y-96178571D01*
X96107142Y-96250000D01*
X97321428Y-96250000D01*
X97321428Y-96821428D02*
X97321428Y-97821428D01*
X95821428Y-96821428D01*
X95821428Y-97821428D01*
X97321428Y-98250000D02*
X97321428Y-99250000D01*
X95821428Y-98250000D01*
X95821428Y-99250000D01*
X104178571Y-98938095D02*
X102678571Y-98938095D01*
X103750000Y-98404761D01*
X102678571Y-97871428D01*
X104178571Y-97871428D01*
X103750000Y-97185714D02*
X103750000Y-96423809D01*
X104178571Y-97338095D02*
X102678571Y-96804761D01*
X104178571Y-96271428D01*
X104178571Y-95738095D02*
X102678571Y-95738095D01*
X104178571Y-94976190D02*
X102678571Y-94976190D01*
X104178571Y-94061904D01*
X102678571Y-94061904D01*
X111821428Y-94061904D02*
X113321428Y-94061904D01*
X112250000Y-94595238D01*
X113321428Y-95128571D01*
X111821428Y-95128571D01*
X112250000Y-95814285D02*
X112250000Y-96576190D01*
X111821428Y-95661904D02*
X113321428Y-96195238D01*
X111821428Y-96728571D01*
X111821428Y-97261904D02*
X113321428Y-97261904D01*
X111821428Y-98023809D02*
X113321428Y-98023809D01*
X111821428Y-98938095D01*
X113321428Y-98938095D01*
D12*
%TO.C,REF\u002A\u002A*%
X101735000Y-93265000D02*
X100265000Y-93265000D01*
X101735000Y-95550000D02*
X101735000Y-93265000D01*
X100265000Y-93265000D02*
X100265000Y-95550000D01*
X101522500Y-97512742D02*
X101522500Y-97987258D01*
X100477500Y-97512742D02*
X100477500Y-97987258D01*
X98265000Y-93265000D02*
X98265000Y-95550000D01*
X99735000Y-93265000D02*
X98265000Y-93265000D01*
X99735000Y-95550000D02*
X99735000Y-93265000D01*
X99522500Y-97512742D02*
X99522500Y-97987258D01*
X98477500Y-97512742D02*
X98477500Y-97987258D01*
%TD*%
%LPC*%
D10*
X99150000Y-99500000D02*
X99650000Y-99500000D01*
X99650000Y-99500000D02*
X99650000Y-100000000D01*
X99650000Y-100000000D02*
X99150000Y-100000000D01*
X99150000Y-100000000D02*
X99150000Y-99500000D01*
G36*
X99150000Y-99500000D02*
G01*
X99650000Y-99500000D01*
X99650000Y-100000000D01*
X99150000Y-100000000D01*
X99150000Y-99500000D01*
G37*
X100350000Y-99500000D02*
X100850000Y-99500000D01*
X100850000Y-99500000D02*
X100850000Y-100000000D01*
X100850000Y-100000000D02*
X100350000Y-100000000D01*
X100350000Y-100000000D02*
X100350000Y-99500000D01*
G36*
X100350000Y-99500000D02*
G01*
X100850000Y-99500000D01*
X100850000Y-100000000D01*
X100350000Y-100000000D01*
X100350000Y-99500000D01*
G37*
D13*
X109752500Y-96500000D02*
G75*
G03*
X109752500Y-96500000I-1752500J0D01*
G01*
D10*
X99900000Y-100000000D02*
X100100000Y-100000000D01*
X100100000Y-100000000D02*
X100100000Y-93000000D01*
X100100000Y-93000000D02*
X99900000Y-93000000D01*
X99900000Y-93000000D02*
X99900000Y-100000000D01*
G36*
X99900000Y-100000000D02*
G01*
X100100000Y-100000000D01*
X100100000Y-93000000D01*
X99900000Y-93000000D01*
X99900000Y-100000000D01*
G37*
D13*
X93752500Y-96500000D02*
G75*
G03*
X93752500Y-96500000I-1752500J0D01*
G01*
D14*
X94300000Y-101600000D02*
X97700000Y-101600000D01*
X97700000Y-101600000D02*
X97700000Y-99800000D01*
X97700000Y-99800000D02*
X94300000Y-99800000D01*
X94300000Y-99800000D02*
X94300000Y-101600000D01*
G36*
X94300000Y-101600000D02*
G01*
X97700000Y-101600000D01*
X97700000Y-99800000D01*
X94300000Y-99800000D01*
X94300000Y-101600000D01*
G37*
X110300000Y-101600000D02*
X113700000Y-101600000D01*
X113700000Y-101600000D02*
X113700000Y-99800000D01*
X113700000Y-99800000D02*
X110300000Y-99800000D01*
X110300000Y-99800000D02*
X110300000Y-101600000D01*
G36*
X110300000Y-101600000D02*
G01*
X113700000Y-101600000D01*
X113700000Y-99800000D01*
X110300000Y-99800000D01*
X110300000Y-101600000D01*
G37*
X86350000Y-101600000D02*
X89750000Y-101600000D01*
X89750000Y-101600000D02*
X89750000Y-99800000D01*
X89750000Y-99800000D02*
X86350000Y-99800000D01*
X86350000Y-99800000D02*
X86350000Y-101600000D01*
G36*
X86350000Y-101600000D02*
G01*
X89750000Y-101600000D01*
X89750000Y-99800000D01*
X86350000Y-99800000D01*
X86350000Y-101600000D01*
G37*
X102300000Y-101600000D02*
X105700000Y-101600000D01*
X105700000Y-101600000D02*
X105700000Y-99800000D01*
X105700000Y-99800000D02*
X102300000Y-99800000D01*
X102300000Y-99800000D02*
X102300000Y-101600000D01*
G36*
X102300000Y-101600000D02*
G01*
X105700000Y-101600000D01*
X105700000Y-99800000D01*
X102300000Y-99800000D01*
X102300000Y-101600000D01*
G37*
X102300000Y-101600000D02*
X105700000Y-101600000D01*
X105700000Y-101600000D02*
X105700000Y-99800000D01*
X105700000Y-99800000D02*
X102300000Y-99800000D01*
X102300000Y-99800000D02*
X102300000Y-101600000D01*
G36*
X102300000Y-101600000D02*
G01*
X105700000Y-101600000D01*
X105700000Y-99800000D01*
X102300000Y-99800000D01*
X102300000Y-101600000D01*
G37*
D15*
%TO.C,REF\u002A\u002A*%
X101000000Y-93962500D03*
X101000000Y-95537500D03*
%TD*%
D16*
%TO.C,REF\u002A\u002A*%
X101000000Y-96925000D03*
X101000000Y-98575000D03*
%TD*%
D15*
%TO.C,REF\u002A\u002A*%
X99000000Y-93962500D03*
X99000000Y-95537500D03*
%TD*%
D16*
%TO.C,REF\u002A\u002A*%
X99000000Y-96925000D03*
X99000000Y-98575000D03*
%TD*%
M02*
