%TF.GenerationSoftware,KiCad,Pcbnew,(6.0.5)*%
%TF.CreationDate,2024-11-08T16:15:15+00:00*%
%TF.ProjectId,Main Board,4d61696e-2042-46f6-9172-642e6b696361,rev?*%
%TF.SameCoordinates,Original*%
%TF.FileFunction,Paste,Bot*%
%TF.FilePolarity,Positive*%
%FSLAX46Y46*%
G04 Gerber Fmt 4.6, Leading zero omitted, Abs format (unit mm)*
G04 Created by KiCad (PCBNEW (6.0.5)) date 2024-11-08 16:15:15*
%MOMM*%
%LPD*%
G01*
G04 APERTURE LIST*
G04 Aperture macros list*
%AMRoundRect*
0 Rectangle with rounded corners*
0 $1 Rounding radius*
0 $2 $3 $4 $5 $6 $7 $8 $9 X,Y pos of 4 corners*
0 Add a 4 corners polygon primitive as box body*
4,1,4,$2,$3,$4,$5,$6,$7,$8,$9,$2,$3,0*
0 Add four circle primitives for the rounded corners*
1,1,$1+$1,$2,$3*
1,1,$1+$1,$4,$5*
1,1,$1+$1,$6,$7*
1,1,$1+$1,$8,$9*
0 Add four rect primitives between the rounded corners*
20,1,$1+$1,$2,$3,$4,$5,0*
20,1,$1+$1,$4,$5,$6,$7,0*
20,1,$1+$1,$6,$7,$8,$9,0*
20,1,$1+$1,$8,$9,$2,$3,0*%
%AMRotRect*
0 Rectangle, with rotation*
0 The origin of the aperture is its center*
0 $1 length*
0 $2 width*
0 $3 Rotation angle, in degrees counterclockwise*
0 Add horizontal line*
21,1,$1,$2,0,0,$3*%
G04 Aperture macros list end*
%ADD10RoundRect,0.197500X0.632500X-0.197500X0.632500X0.197500X-0.632500X0.197500X-0.632500X-0.197500X0*%
%ADD11RoundRect,0.225000X-0.250000X0.225000X-0.250000X-0.225000X0.250000X-0.225000X0.250000X0.225000X0*%
%ADD12RoundRect,0.200000X0.079538X0.330604X-0.290014X0.177530X-0.079538X-0.330604X0.290014X-0.177530X0*%
%ADD13RoundRect,0.225000X0.250000X-0.225000X0.250000X0.225000X-0.250000X0.225000X-0.250000X-0.225000X0*%
%ADD14RoundRect,0.225000X0.017678X-0.335876X0.335876X-0.017678X-0.017678X0.335876X-0.335876X0.017678X0*%
%ADD15RoundRect,0.200000X0.275000X-0.200000X0.275000X0.200000X-0.275000X0.200000X-0.275000X-0.200000X0*%
%ADD16RoundRect,0.225000X-0.017678X0.335876X-0.335876X0.017678X0.017678X-0.335876X0.335876X-0.017678X0*%
%ADD17RotRect,0.750000X0.650000X225.000000*%
%ADD18RotRect,0.500000X0.250000X225.000000*%
%ADD19RoundRect,0.200000X0.200000X0.275000X-0.200000X0.275000X-0.200000X-0.275000X0.200000X-0.275000X0*%
%ADD20RoundRect,0.225000X0.225000X0.250000X-0.225000X0.250000X-0.225000X-0.250000X0.225000X-0.250000X0*%
%ADD21RoundRect,0.225000X-0.225000X-0.250000X0.225000X-0.250000X0.225000X0.250000X-0.225000X0.250000X0*%
%ADD22RoundRect,1.000000X0.230873X-0.295504X-0.230873X0.295504X-0.230873X0.295504X0.230873X-0.295504X0*%
%ADD23RoundRect,0.137500X0.856062X-0.425699X-0.205954X0.933620X-0.856062X0.425699X0.205954X-0.933620X0*%
%ADD24R,2.200000X0.600000*%
%ADD25R,2.600000X1.800000*%
%ADD26RoundRect,0.200000X-0.200000X-0.275000X0.200000X-0.275000X0.200000X0.275000X-0.200000X0.275000X0*%
%ADD27RotRect,0.300000X0.325000X315.000000*%
%ADD28RotRect,0.300000X0.325000X45.000000*%
%ADD29RoundRect,0.250000X-0.650000X0.325000X-0.650000X-0.325000X0.650000X-0.325000X0.650000X0.325000X0*%
%ADD30RoundRect,0.197500X-0.059581X0.659934X-0.424513X0.508774X0.059581X-0.659934X0.424513X-0.508774X0*%
%ADD31RoundRect,0.200000X-0.275000X0.200000X-0.275000X-0.200000X0.275000X-0.200000X0.275000X0.200000X0*%
%ADD32R,1.500000X0.800000*%
%ADD33R,2.000000X1.450000*%
%ADD34R,0.750000X0.650000*%
%ADD35R,0.500000X0.250000*%
%ADD36RoundRect,0.100000X1.600000X1.700000X-1.600000X1.700000X-1.600000X-1.700000X1.600000X-1.700000X0*%
%ADD37RoundRect,0.200000X-0.079538X-0.330604X0.290014X-0.177530X0.079538X0.330604X-0.290014X0.177530X0*%
%ADD38RoundRect,0.100000X0.521491X-0.380070X-0.380070X0.521491X-0.521491X0.380070X0.380070X-0.521491X0*%
%ADD39RoundRect,0.150000X-0.309359X-0.521491X0.521491X0.309359X0.309359X0.521491X-0.521491X-0.309359X0*%
%ADD40R,1.000000X1.800000*%
%ADD41R,0.250000X0.675000*%
%ADD42R,0.575000X0.250000*%
%ADD43RoundRect,0.125000X0.875000X0.375000X-0.875000X0.375000X-0.875000X-0.375000X0.875000X-0.375000X0*%
G04 APERTURE END LIST*
D10*
%TO.C,U7*%
X90000000Y-100850000D03*
X86000000Y-100850000D03*
X86000000Y-99050000D03*
X90000000Y-99050000D03*
%TD*%
D11*
%TO.C,C5*%
X120290000Y-101775000D03*
X120290000Y-103325000D03*
%TD*%
D12*
%TO.C,R3*%
X107466960Y-115855623D03*
X105942558Y-116487051D03*
%TD*%
D13*
%TO.C,C12*%
X79500000Y-121275000D03*
X79500000Y-119725000D03*
%TD*%
D14*
%TO.C,C1*%
X128701992Y-102048008D03*
X129798008Y-100951992D03*
%TD*%
D15*
%TO.C,R14*%
X91900000Y-100775000D03*
X91900000Y-99125000D03*
%TD*%
D16*
%TO.C,C15*%
X109714501Y-81994473D03*
X108618485Y-83090489D03*
%TD*%
D15*
%TO.C,R7*%
X101110000Y-89405000D03*
X101110000Y-87755000D03*
%TD*%
D17*
%TO.C,U10*%
X113201040Y-88117157D03*
X113766726Y-88682843D03*
D18*
X113625304Y-87197918D03*
X113978858Y-87551472D03*
X114332411Y-87905025D03*
X114685965Y-88258579D03*
X113342462Y-89602082D03*
X112988908Y-89248528D03*
X112635355Y-88894975D03*
X112281801Y-88541421D03*
%TD*%
D19*
%TO.C,R6*%
X111614999Y-106550000D03*
X109964999Y-106550000D03*
%TD*%
D20*
%TO.C,C9*%
X116215000Y-98250001D03*
X114665000Y-98250001D03*
%TD*%
D21*
%TO.C,C8*%
X117665000Y-98250001D03*
X119215000Y-98250001D03*
%TD*%
D14*
%TO.C,C14*%
X106514843Y-85194131D03*
X107610859Y-84098115D03*
%TD*%
D22*
%TO.C,IC2*%
X147158303Y-74445716D03*
X145156755Y-76009496D03*
X143155208Y-77573276D03*
X141153661Y-79137057D03*
X139152113Y-80700837D03*
X137150566Y-82264617D03*
X135149019Y-83828397D03*
X125196851Y-71090203D03*
X127198398Y-69526423D03*
X129199946Y-67962643D03*
X131201493Y-66398863D03*
X133203040Y-64835083D03*
X135204587Y-63271302D03*
X137206135Y-61707522D03*
D23*
X139133664Y-76064299D03*
%TD*%
D13*
%TO.C,C10*%
X76500000Y-121275000D03*
X76500000Y-119725000D03*
%TD*%
D24*
%TO.C,J2*%
X70757500Y-80500000D03*
X70757500Y-81500000D03*
X70757500Y-82500000D03*
X70757500Y-83500000D03*
X70757500Y-84500000D03*
X70757500Y-85500000D03*
X70757500Y-86500000D03*
X70757500Y-87500000D03*
D25*
X73127500Y-77900000D03*
X73127500Y-90100000D03*
%TD*%
D26*
%TO.C,R9*%
X118775000Y-108000000D03*
X120425000Y-108000000D03*
%TD*%
D27*
%TO.C,U1*%
X126896447Y-100207107D03*
X126542893Y-99853553D03*
D28*
X126348439Y-99305546D03*
X126701992Y-98951992D03*
X127055546Y-98598439D03*
D27*
X127603553Y-98792893D03*
X127957107Y-99146447D03*
D28*
X128151561Y-99694454D03*
X127798008Y-100048008D03*
X127444454Y-100401561D03*
%TD*%
D29*
%TO.C,C20*%
X142250000Y-101775000D03*
X142250000Y-104725000D03*
%TD*%
D11*
%TO.C,C4*%
X120339999Y-104925002D03*
X120339999Y-106475002D03*
%TD*%
D13*
%TO.C,C11*%
X78000000Y-121275000D03*
X78000000Y-119725000D03*
%TD*%
D29*
%TO.C,C21*%
X139750000Y-101775000D03*
X139750000Y-104725000D03*
%TD*%
D30*
%TO.C,U5*%
X104666125Y-108897826D03*
X106196858Y-112593344D03*
X104533875Y-113282174D03*
X103003142Y-109586656D03*
%TD*%
D31*
%TO.C,R13*%
X84100000Y-99124999D03*
X84100000Y-100774999D03*
%TD*%
D20*
%TO.C,C19*%
X118000000Y-79250000D03*
X116450000Y-79250000D03*
%TD*%
D32*
%TO.C,J3*%
X57792500Y-80795000D03*
X57792500Y-81895000D03*
X57792500Y-82995000D03*
X57792500Y-84095000D03*
X57792500Y-85195000D03*
X57792500Y-86295000D03*
X57792500Y-87395000D03*
X57792500Y-88495000D03*
D33*
X55192500Y-90875000D03*
X63492500Y-90875000D03*
X63492500Y-77125000D03*
X55192500Y-77125000D03*
%TD*%
D34*
%TO.C,U11*%
X115725000Y-80850000D03*
X115725000Y-81650000D03*
D35*
X116675000Y-80500000D03*
X116675000Y-81000000D03*
X116675000Y-81500000D03*
X116675000Y-82000000D03*
X114775000Y-82000000D03*
X114775000Y-81500000D03*
X114775000Y-81000000D03*
X114775000Y-80500000D03*
%TD*%
D15*
%TO.C,R2*%
X98560000Y-89415000D03*
X98560000Y-87765000D03*
%TD*%
D36*
%TO.C,BT2*%
X138550000Y-135000000D03*
X107450000Y-135000000D03*
%TD*%
D37*
%TO.C,R4*%
X105330264Y-115008844D03*
X106854666Y-114377416D03*
%TD*%
D19*
%TO.C,R1*%
X111615002Y-105000000D03*
X109965002Y-105000000D03*
%TD*%
D14*
%TO.C,C16*%
X110461002Y-88559100D03*
X111557018Y-87463084D03*
%TD*%
D11*
%TO.C,C3*%
X88000000Y-53425000D03*
X88000000Y-54975000D03*
%TD*%
D38*
%TO.C,U3*%
X137745629Y-96415425D03*
X137286010Y-96875045D03*
X136826390Y-97334664D03*
X136366771Y-97794283D03*
X135907151Y-98253903D03*
X135447532Y-98713522D03*
X134987913Y-99173142D03*
X134528293Y-99632761D03*
X130480107Y-95584575D03*
X130939726Y-95124955D03*
X131399346Y-94665336D03*
X131858965Y-94205717D03*
X132318585Y-93746097D03*
X132778204Y-93286478D03*
X133237823Y-92826858D03*
X133697443Y-92367239D03*
%TD*%
D20*
%TO.C,C7*%
X117215000Y-108000000D03*
X115665000Y-108000000D03*
%TD*%
D39*
%TO.C,Q1*%
X92558839Y-109934664D03*
X91215336Y-108591161D03*
X93212913Y-107937087D03*
%TD*%
D17*
%TO.C,U9*%
X109250000Y-84750000D03*
X109815686Y-85315686D03*
D18*
X109674264Y-83830761D03*
X110027818Y-84184315D03*
X110381371Y-84537868D03*
X110734925Y-84891422D03*
X109391422Y-86234925D03*
X109037868Y-85881371D03*
X108684315Y-85527818D03*
X108330761Y-85174264D03*
%TD*%
D12*
%TO.C,R5*%
X103869736Y-107171156D03*
X102345334Y-107802584D03*
%TD*%
D40*
%TO.C,Y1*%
X118190000Y-100213000D03*
X115690000Y-100213000D03*
%TD*%
D16*
%TO.C,C17*%
X113678338Y-85341763D03*
X112582322Y-86437779D03*
%TD*%
D41*
%TO.C,U6*%
X118190000Y-102799999D03*
D42*
X118253000Y-103612999D03*
X118253000Y-104112999D03*
X118253000Y-104612999D03*
X118253000Y-105112999D03*
D41*
X118190000Y-105925999D03*
X117690000Y-105925999D03*
X117190000Y-105925999D03*
X116690000Y-105925999D03*
X116190000Y-105925999D03*
X115690000Y-105925999D03*
X115190000Y-105925999D03*
X114690000Y-105925999D03*
X114190000Y-105925999D03*
X113690000Y-105925999D03*
D42*
X113627000Y-105112999D03*
X113627000Y-104612999D03*
X113627000Y-104112999D03*
X113627000Y-103612999D03*
D41*
X113690000Y-102799999D03*
X114190000Y-102799999D03*
X114690000Y-102799999D03*
X115190000Y-102799999D03*
X115690000Y-102799999D03*
X116190000Y-102799999D03*
X116690000Y-102799999D03*
X117190000Y-102799999D03*
X117690000Y-102799999D03*
%TD*%
D14*
%TO.C,C6*%
X129286864Y-94108489D03*
X130382880Y-93012473D03*
%TD*%
D15*
%TO.C,R8*%
X82550000Y-100775000D03*
X82550000Y-99125000D03*
%TD*%
D21*
%TO.C,C18*%
X113450000Y-79250000D03*
X115000000Y-79250000D03*
%TD*%
D11*
%TO.C,C2*%
X90200000Y-53425000D03*
X90200000Y-54975000D03*
%TD*%
D43*
%TO.C,U2*%
X85000000Y-52700000D03*
X85000000Y-54200000D03*
X85000000Y-55700000D03*
X85000000Y-57200000D03*
X85000000Y-58700000D03*
X85000000Y-60200000D03*
X85000000Y-61700000D03*
X85000000Y-63200000D03*
X85000000Y-64700000D03*
X85000000Y-66200000D03*
X69000000Y-66200000D03*
X69000000Y-64700000D03*
X69000000Y-63200000D03*
X69000000Y-61700000D03*
X69000000Y-60200000D03*
X69000000Y-58700000D03*
X69000000Y-57200000D03*
X69000000Y-55700000D03*
X69000000Y-54200000D03*
X69000000Y-52700000D03*
%TD*%
M02*
