  0
SECTION
  2
HEADER
  9
$ANGBASE
  50
0.0
  9
$ANGDIR
  70
1
  9
$MEASUREMENT
  70
1
  0
ENDSEC
  0
SECTION
  2
TABLES
  0
TABLE
  2
LTYPE
  70
4
  0
LTYPE
  5
40F
  2
CONTINUOUS
  70
0
  3
Solid line
  72
65
  73
0
  40
0.0
  0
LTYPE
  5
410
  2
DASHDOT
 70
0
  3
Dash Dot ____ _ ____ _
 72
65
 73
4
 40
2.0
 49
1.25
 49
-0.25
 49
0.25
 49
-0.25
  0
LTYPE
  5
411
  2
DASHED
 70
0
  3
Dashed __ __ __ __ __
 72
65
 73
2
 40
0.75
 49
0.5
 49
-0.25
  0
LTYPE
  5
43B
  2
DOTTED
 70
0
  3
Dotted .  .  .  .
 72
65
 73
2
 40
0.2
 49
0.0
 49
-0.2
  0
ENDTAB
  0
TABLE
  2
STYLE
  70
4
  0
STYLE
  2
KICAD
  70
0
  40
0
  41
1
  42
1
  50
0
  71
0
  3
isocp.shx
  0
STYLE
  2
KICADB
  70
0
  40
0
  41
1
  42
1
  50
0
  71
0
  3
isocp.shx
  0
STYLE
  2
KICADI
  70
0
  40
0
  41
1
  42
1
  50
15
  71
0
  3
isocp.shx
  0
STYLE
  2
KICADBI
  70
0
  40
0
  41
1
  42
1
  50
15
  71
0
  3
isocp.shx
  0
ENDTAB
  0
TABLE
  2
LAYER
  70
1
  0
LAYER
  2
BLACK
  70
0
  62
7
  6
CONTINUOUS
  0
ENDTAB
  0
ENDSEC
  0
SECTION
  2
ENTITIES
0
LINE
8
BLACK
6
CONTINUOUS
10
133.18
20
-49.9556
11
133.194
21
-49.9584
0
LINE
8
BLACK
6
CONTINUOUS
10
133.194
20
-49.9584
11
134.433
21
-50.8055
0
LINE
8
BLACK
6
CONTINUOUS
10
134.433
20
-50.8055
11
135.651
21
-51.6833
0
LINE
8
BLACK
6
CONTINUOUS
10
135.651
20
-51.6833
11
136.847
21
-52.5912
0
LINE
8
BLACK
6
CONTINUOUS
10
136.847
20
-52.5912
11
138.019
21
-53.5288
0
LINE
8
BLACK
6
CONTINUOUS
10
138.019
20
-53.5288
11
139.168
21
-54.4953
0
LINE
8
BLACK
6
CONTINUOUS
10
139.168
20
-54.4953
11
140.293
21
-55.4902
0
LINE
8
BLACK
6
CONTINUOUS
10
140.293
20
-55.4902
11
141.392
21
-56.5129
0
LINE
8
BLACK
6
CONTINUOUS
10
141.392
20
-56.5129
11
142.465
21
-57.5627
0
LINE
8
BLACK
6
CONTINUOUS
10
142.465
20
-57.5627
11
143.511
21
-58.639
0
LINE
8
BLACK
6
CONTINUOUS
10
143.511
20
-58.639
11
144.531
21
-59.7412
0
LINE
8
BLACK
6
CONTINUOUS
10
144.531
20
-59.7412
11
145.523
21
-60.8684
0
LINE
8
BLACK
6
CONTINUOUS
10
145.523
20
-60.8684
11
146.486
21
-62.02
0
LINE
8
BLACK
6
CONTINUOUS
10
146.486
20
-62.02
11
147.42
21
-63.1954
0
LINE
8
BLACK
6
CONTINUOUS
10
147.42
20
-63.1954
11
148.324
21
-64.3937
0
LINE
8
BLACK
6
CONTINUOUS
10
148.324
20
-64.3937
11
149.198
21
-65.6142
0
LINE
8
BLACK
6
CONTINUOUS
10
149.198
20
-65.6142
11
150.042
21
-66.8562
0
LINE
8
BLACK
6
CONTINUOUS
10
150.042
20
-66.8562
11
150.042
21
-66.8562
0
LINE
8
BLACK
6
CONTINUOUS
10
150.042
20
-66.8562
11
150.044
21
-66.8704
0
LINE
8
BLACK
6
CONTINUOUS
10
150.044
20
-66.8704
11
150.05
21
-66.8837
0
LINE
8
BLACK
6
CONTINUOUS
10
150.05
20
-66.8837
11
150.05
21
-133.166
0
LINE
8
BLACK
6
CONTINUOUS
10
150.05
20
-133.166
11
150.044
21
-133.18
0
LINE
8
BLACK
6
CONTINUOUS
10
150.044
20
-133.18
11
150.042
21
-133.194
0
LINE
8
BLACK
6
CONTINUOUS
10
150.042
20
-133.194
11
149.198
21
-134.433
0
LINE
8
BLACK
6
CONTINUOUS
10
149.198
20
-134.433
11
148.323
21
-135.65
0
LINE
8
BLACK
6
CONTINUOUS
10
148.323
20
-135.65
11
147.418
21
-136.845
0
LINE
8
BLACK
6
CONTINUOUS
10
147.418
20
-136.845
11
146.484
21
-138.018
0
LINE
8
BLACK
6
CONTINUOUS
10
146.484
20
-138.018
11
145.52
21
-139.166
0
LINE
8
BLACK
6
CONTINUOUS
10
145.52
20
-139.166
11
144.529
21
-140.29
0
LINE
8
BLACK
6
CONTINUOUS
10
144.529
20
-140.29
11
143.509
21
-141.389
0
LINE
8
BLACK
6
CONTINUOUS
10
143.509
20
-141.389
11
142.462
21
-142.462
0
LINE
8
BLACK
6
CONTINUOUS
10
142.462
20
-142.462
11
141.389
21
-143.509
0
LINE
8
BLACK
6
CONTINUOUS
10
141.389
20
-143.509
11
140.29
21
-144.529
0
LINE
8
BLACK
6
CONTINUOUS
10
140.29
20
-144.529
11
139.166
21
-145.52
0
LINE
8
BLACK
6
CONTINUOUS
10
139.166
20
-145.52
11
138.018
21
-146.484
0
LINE
8
BLACK
6
CONTINUOUS
10
138.018
20
-146.484
11
136.845
21
-147.418
0
LINE
8
BLACK
6
CONTINUOUS
10
136.845
20
-147.418
11
135.65
21
-148.323
0
LINE
8
BLACK
6
CONTINUOUS
10
135.65
20
-148.323
11
134.433
21
-149.198
0
LINE
8
BLACK
6
CONTINUOUS
10
134.433
20
-149.198
11
133.194
21
-150.042
0
LINE
8
BLACK
6
CONTINUOUS
10
133.194
20
-150.042
11
133.18
21
-150.044
0
LINE
8
BLACK
6
CONTINUOUS
10
133.18
20
-150.044
11
133.166
21
-150.05
0
LINE
8
BLACK
6
CONTINUOUS
10
133.166
20
-150.05
11
66.8337
21
-150.05
0
LINE
8
BLACK
6
CONTINUOUS
10
66.8337
20
-150.05
11
66.8203
21
-150.044
0
LINE
8
BLACK
6
CONTINUOUS
10
66.8203
20
-150.044
11
66.8061
21
-150.042
0
LINE
8
BLACK
6
CONTINUOUS
10
66.8061
20
-150.042
11
65.5672
21
-149.198
0
LINE
8
BLACK
6
CONTINUOUS
10
65.5672
20
-149.198
11
64.3498
21
-148.323
0
LINE
8
BLACK
6
CONTINUOUS
10
64.3498
20
-148.323
11
63.1546
21
-147.418
0
LINE
8
BLACK
6
CONTINUOUS
10
63.1546
20
-147.418
11
61.9824
21
-146.484
0
LINE
8
BLACK
6
CONTINUOUS
10
61.9824
20
-146.484
11
60.8339
21
-145.52
0
LINE
8
BLACK
6
CONTINUOUS
10
60.8339
20
-145.52
11
59.7098
21
-144.529
0
LINE
8
BLACK
6
CONTINUOUS
10
59.7098
20
-144.529
11
58.6108
21
-143.509
0
LINE
8
BLACK
6
CONTINUOUS
10
58.6108
20
-143.509
11
57.5377
21
-142.462
0
LINE
8
BLACK
6
CONTINUOUS
10
57.5377
20
-142.462
11
56.491
21
-141.389
0
LINE
8
BLACK
6
CONTINUOUS
10
56.491
20
-141.389
11
55.4715
21
-140.29
0
LINE
8
BLACK
6
CONTINUOUS
10
55.4715
20
-140.29
11
54.4797
21
-139.166
0
LINE
8
BLACK
6
CONTINUOUS
10
54.4797
20
-139.166
11
53.5163
21
-138.018
0
LINE
8
BLACK
6
CONTINUOUS
10
53.5163
20
-138.018
11
52.5819
21
-136.845
0
LINE
8
BLACK
6
CONTINUOUS
10
52.5819
20
-136.845
11
51.677
21
-135.65
0
LINE
8
BLACK
6
CONTINUOUS
10
51.677
20
-135.65
11
50.8023
21
-134.433
0
LINE
8
BLACK
6
CONTINUOUS
10
50.8023
20
-134.433
11
49.9583
21
-133.194
0
LINE
8
BLACK
6
CONTINUOUS
10
49.9583
20
-133.194
11
49.9583
21
-133.194
0
LINE
8
BLACK
6
CONTINUOUS
10
49.9583
20
-133.194
11
49.9556
21
-133.18
0
LINE
8
BLACK
6
CONTINUOUS
10
49.9556
20
-133.18
11
49.95
21
-133.166
0
LINE
8
BLACK
6
CONTINUOUS
10
49.95
20
-133.166
11
49.95
21
-66.8338
0
LINE
8
BLACK
6
CONTINUOUS
10
49.95
20
-66.8338
11
49.9556
21
-66.8204
0
LINE
8
BLACK
6
CONTINUOUS
10
49.9556
20
-66.8204
11
49.9583
21
-66.8061
0
LINE
8
BLACK
6
CONTINUOUS
10
49.9583
20
-66.8061
11
50.8024
21
-65.5672
0
LINE
8
BLACK
6
CONTINUOUS
10
50.8024
20
-65.5672
11
51.6771
21
-64.3498
0
LINE
8
BLACK
6
CONTINUOUS
10
51.6771
20
-64.3498
11
52.5819
21
-63.1546
0
LINE
8
BLACK
6
CONTINUOUS
10
52.5819
20
-63.1546
11
53.5163
21
-61.9824
0
LINE
8
BLACK
6
CONTINUOUS
10
53.5163
20
-61.9824
11
54.4797
21
-60.8339
0
LINE
8
BLACK
6
CONTINUOUS
10
54.4797
20
-60.8339
11
55.4715
21
-59.7098
0
LINE
8
BLACK
6
CONTINUOUS
10
55.4715
20
-59.7098
11
56.491
21
-58.6109
0
LINE
8
BLACK
6
CONTINUOUS
10
56.491
20
-58.6109
11
57.5377
21
-57.5377
0
LINE
8
BLACK
6
CONTINUOUS
10
57.5377
20
-57.5377
11
58.6109
21
-56.491
0
LINE
8
BLACK
6
CONTINUOUS
10
58.6109
20
-56.491
11
59.7098
21
-55.4715
0
LINE
8
BLACK
6
CONTINUOUS
10
59.7098
20
-55.4715
11
60.8339
21
-54.4797
0
LINE
8
BLACK
6
CONTINUOUS
10
60.8339
20
-54.4797
11
61.9824
21
-53.5163
0
LINE
8
BLACK
6
CONTINUOUS
10
61.9824
20
-53.5163
11
63.1546
21
-52.5819
0
LINE
8
BLACK
6
CONTINUOUS
10
63.1546
20
-52.5819
11
64.3498
21
-51.6771
0
LINE
8
BLACK
6
CONTINUOUS
10
64.3498
20
-51.6771
11
65.5672
21
-50.8024
0
LINE
8
BLACK
6
CONTINUOUS
10
65.5672
20
-50.8024
11
66.8061
21
-49.9583
0
LINE
8
BLACK
6
CONTINUOUS
10
66.8061
20
-49.9583
11
66.8204
21
-49.9556
0
LINE
8
BLACK
6
CONTINUOUS
10
66.8204
20
-49.9556
11
66.8338
21
-49.95
0
LINE
8
BLACK
6
CONTINUOUS
10
66.8338
20
-49.95
11
133.166
21
-49.95
0
LINE
8
BLACK
6
CONTINUOUS
10
133.166
20
-49.95
11
133.18
21
-49.9556
0
LINE
8
BLACK
6
CONTINUOUS
10
66.8409
20
-50.05
11
65.6219
21
-50.8805
0
LINE
8
BLACK
6
CONTINUOUS
10
65.6219
20
-50.8805
11
64.4064
21
-51.7538
0
LINE
8
BLACK
6
CONTINUOUS
10
64.4064
20
-51.7538
11
63.2131
21
-52.6572
0
LINE
8
BLACK
6
CONTINUOUS
10
63.2131
20
-52.6572
11
62.0428
21
-53.5901
0
LINE
8
BLACK
6
CONTINUOUS
10
62.0428
20
-53.5901
11
60.8961
21
-54.552
0
LINE
8
BLACK
6
CONTINUOUS
10
60.8961
20
-54.552
11
59.7738
21
-55.5422
0
LINE
8
BLACK
6
CONTINUOUS
10
59.7738
20
-55.5422
11
58.6766
21
-56.5601
0
LINE
8
BLACK
6
CONTINUOUS
10
58.6766
20
-56.5601
11
57.6051
21
-57.6051
0
LINE
8
BLACK
6
CONTINUOUS
10
57.6051
20
-57.6051
11
56.5601
21
-58.6766
0
LINE
8
BLACK
6
CONTINUOUS
10
56.5601
20
-58.6766
11
55.5422
21
-59.7738
0
LINE
8
BLACK
6
CONTINUOUS
10
55.5422
20
-59.7738
11
54.552
21
-60.8961
0
LINE
8
BLACK
6
CONTINUOUS
10
54.552
20
-60.8961
11
53.5901
21
-62.0428
0
LINE
8
BLACK
6
CONTINUOUS
10
53.5901
20
-62.0428
11
52.6572
21
-63.2131
0
LINE
8
BLACK
6
CONTINUOUS
10
52.6572
20
-63.2131
11
51.7538
21
-64.4064
0
LINE
8
BLACK
6
CONTINUOUS
10
51.7538
20
-64.4064
11
50.8805
21
-65.6219
0
LINE
8
BLACK
6
CONTINUOUS
10
50.8805
20
-65.6219
11
50.05
21
-66.8409
0
LINE
8
BLACK
6
CONTINUOUS
10
50.05
20
-66.8409
11
50.05
21
-133.159
0
LINE
8
BLACK
6
CONTINUOUS
10
50.05
20
-133.159
11
50.8805
21
-134.378
0
LINE
8
BLACK
6
CONTINUOUS
10
50.8805
20
-134.378
11
51.7538
21
-135.594
0
LINE
8
BLACK
6
CONTINUOUS
10
51.7538
20
-135.594
11
52.6572
21
-136.787
0
LINE
8
BLACK
6
CONTINUOUS
10
52.6572
20
-136.787
11
53.5901
21
-137.957
0
LINE
8
BLACK
6
CONTINUOUS
10
53.5901
20
-137.957
11
54.552
21
-139.104
0
LINE
8
BLACK
6
CONTINUOUS
10
54.552
20
-139.104
11
55.5422
21
-140.226
0
LINE
8
BLACK
6
CONTINUOUS
10
55.5422
20
-140.226
11
56.5601
21
-141.323
0
LINE
8
BLACK
6
CONTINUOUS
10
56.5601
20
-141.323
11
57.6051
21
-142.395
0
LINE
8
BLACK
6
CONTINUOUS
10
57.6051
20
-142.395
11
58.6766
21
-143.44
0
LINE
8
BLACK
6
CONTINUOUS
10
58.6766
20
-143.44
11
59.7738
21
-144.458
0
LINE
8
BLACK
6
CONTINUOUS
10
59.7738
20
-144.458
11
60.8961
21
-145.448
0
LINE
8
BLACK
6
CONTINUOUS
10
60.8961
20
-145.448
11
62.0428
21
-146.41
0
LINE
8
BLACK
6
CONTINUOUS
10
62.0428
20
-146.41
11
63.2131
21
-147.343
0
LINE
8
BLACK
6
CONTINUOUS
10
63.2131
20
-147.343
11
64.4064
21
-148.246
0
LINE
8
BLACK
6
CONTINUOUS
10
64.4064
20
-148.246
11
65.6219
21
-149.12
0
LINE
8
BLACK
6
CONTINUOUS
10
65.6219
20
-149.12
11
66.8409
21
-149.95
0
LINE
8
BLACK
6
CONTINUOUS
10
66.8409
20
-149.95
11
133.159
21
-149.95
0
LINE
8
BLACK
6
CONTINUOUS
10
133.159
20
-149.95
11
134.378
21
-149.12
0
LINE
8
BLACK
6
CONTINUOUS
10
134.378
20
-149.12
11
135.594
21
-148.246
0
LINE
8
BLACK
6
CONTINUOUS
10
135.594
20
-148.246
11
136.787
21
-147.343
0
LINE
8
BLACK
6
CONTINUOUS
10
136.787
20
-147.343
11
137.957
21
-146.41
0
LINE
8
BLACK
6
CONTINUOUS
10
137.957
20
-146.41
11
139.104
21
-145.448
0
LINE
8
BLACK
6
CONTINUOUS
10
139.104
20
-145.448
11
140.226
21
-144.458
0
LINE
8
BLACK
6
CONTINUOUS
10
140.226
20
-144.458
11
141.323
21
-143.44
0
LINE
8
BLACK
6
CONTINUOUS
10
141.323
20
-143.44
11
142.395
21
-142.395
0
LINE
8
BLACK
6
CONTINUOUS
10
142.395
20
-142.395
11
143.44
21
-141.323
0
LINE
8
BLACK
6
CONTINUOUS
10
143.44
20
-141.323
11
144.458
21
-140.226
0
LINE
8
BLACK
6
CONTINUOUS
10
144.458
20
-140.226
11
145.448
21
-139.104
0
LINE
8
BLACK
6
CONTINUOUS
10
145.448
20
-139.104
11
146.41
21
-137.957
0
LINE
8
BLACK
6
CONTINUOUS
10
146.41
20
-137.957
11
147.343
21
-136.787
0
LINE
8
BLACK
6
CONTINUOUS
10
147.343
20
-136.787
11
148.246
21
-135.594
0
LINE
8
BLACK
6
CONTINUOUS
10
148.246
20
-135.594
11
149.12
21
-134.378
0
LINE
8
BLACK
6
CONTINUOUS
10
149.12
20
-134.378
11
149.95
21
-133.159
0
LINE
8
BLACK
6
CONTINUOUS
10
149.95
20
-133.159
11
149.95
21
-66.8908
0
LINE
8
BLACK
6
CONTINUOUS
10
149.95
20
-66.8908
11
149.12
21
-65.6687
0
LINE
8
BLACK
6
CONTINUOUS
10
149.12
20
-65.6687
11
148.247
21
-64.4502
0
LINE
8
BLACK
6
CONTINUOUS
10
148.247
20
-64.4502
11
147.344
21
-63.2537
0
LINE
8
BLACK
6
CONTINUOUS
10
147.344
20
-63.2537
11
146.412
21
-62.0803
0
LINE
8
BLACK
6
CONTINUOUS
10
146.412
20
-62.0803
11
145.45
21
-60.9305
0
LINE
8
BLACK
6
CONTINUOUS
10
145.45
20
-60.9305
11
144.46
21
-59.805
0
LINE
8
BLACK
6
CONTINUOUS
10
144.46
20
-59.805
11
143.442
21
-58.7047
0
LINE
8
BLACK
6
CONTINUOUS
10
143.442
20
-58.7047
11
142.397
21
-57.6301
0
LINE
8
BLACK
6
CONTINUOUS
10
142.397
20
-57.6301
11
141.326
21
-56.5819
0
LINE
8
BLACK
6
CONTINUOUS
10
141.326
20
-56.5819
11
140.228
21
-55.5608
0
LINE
8
BLACK
6
CONTINUOUS
10
140.228
20
-55.5608
11
139.106
21
-54.5675
0
LINE
8
BLACK
6
CONTINUOUS
10
139.106
20
-54.5675
11
137.959
21
-53.6025
0
LINE
8
BLACK
6
CONTINUOUS
10
137.959
20
-53.6025
11
136.788
21
-52.6664
0
LINE
8
BLACK
6
CONTINUOUS
10
136.788
20
-52.6664
11
135.595
21
-51.7599
0
LINE
8
BLACK
6
CONTINUOUS
10
135.595
20
-51.7599
11
134.379
21
-50.8835
0
LINE
8
BLACK
6
CONTINUOUS
10
134.379
20
-50.8835
11
133.159
21
-50.05
0
LINE
8
BLACK
6
CONTINUOUS
10
133.159
20
-50.05
11
66.8409
21
-50.05
0
LINE
8
BLACK
6
CONTINUOUS
10
68.4362
20
-139.41
11
68.5352
21
-139.106
0
LINE
8
BLACK
6
CONTINUOUS
10
68.5352
20
-139.106
11
68.6715
21
-138.816
0
LINE
8
BLACK
6
CONTINUOUS
10
68.6715
20
-138.816
11
68.8431
21
-138.545
0
LINE
8
BLACK
6
CONTINUOUS
10
68.8431
20
-138.545
11
69.0472
21
-138.299
0
LINE
8
BLACK
6
CONTINUOUS
10
69.0472
20
-138.299
11
69.2807
21
-138.079
0
LINE
8
BLACK
6
CONTINUOUS
10
69.2807
20
-138.079
11
69.5398
21
-137.891
0
LINE
8
BLACK
6
CONTINUOUS
10
69.5398
20
-137.891
11
69.8204
21
-137.737
0
LINE
8
BLACK
6
CONTINUOUS
10
69.8204
20
-137.737
11
70.1181
21
-137.619
0
LINE
8
BLACK
6
CONTINUOUS
10
70.1181
20
-137.619
11
70.4283
21
-137.539
0
LINE
8
BLACK
6
CONTINUOUS
10
70.4283
20
-137.539
11
70.746
21
-137.499
0
LINE
8
BLACK
6
CONTINUOUS
10
70.746
20
-137.499
11
71.0662
21
-137.499
0
LINE
8
BLACK
6
CONTINUOUS
10
71.0662
20
-137.499
11
71.3839
21
-137.539
0
LINE
8
BLACK
6
CONTINUOUS
10
71.3839
20
-137.539
11
71.6941
21
-137.619
0
LINE
8
BLACK
6
CONTINUOUS
10
71.6941
20
-137.619
11
71.9918
21
-137.737
0
LINE
8
BLACK
6
CONTINUOUS
10
71.9918
20
-137.737
11
72.2725
21
-137.891
0
LINE
8
BLACK
6
CONTINUOUS
10
72.2725
20
-137.891
11
72.5315
21
-138.079
0
LINE
8
BLACK
6
CONTINUOUS
10
72.5315
20
-138.079
11
72.765
21
-138.299
0
LINE
8
BLACK
6
CONTINUOUS
10
72.765
20
-138.299
11
72.9691
21
-138.545
0
LINE
8
BLACK
6
CONTINUOUS
10
72.9691
20
-138.545
11
73.1407
21
-138.816
0
LINE
8
BLACK
6
CONTINUOUS
10
73.1407
20
-138.816
11
73.277
21
-139.106
0
LINE
8
BLACK
6
CONTINUOUS
10
73.277
20
-139.106
11
73.376
21
-139.41
0
LINE
8
BLACK
6
CONTINUOUS
10
73.376
20
-139.41
11
73.436
21
-139.725
0
LINE
8
BLACK
6
CONTINUOUS
10
73.436
20
-139.725
11
73.4561
21
-140.044
0
LINE
8
BLACK
6
CONTINUOUS
10
73.4561
20
-140.044
11
73.436
21
-140.364
0
LINE
8
BLACK
6
CONTINUOUS
10
73.436
20
-140.364
11
73.376
21
-140.678
0
LINE
8
BLACK
6
CONTINUOUS
10
73.376
20
-140.678
11
73.277
21
-140.983
0
LINE
8
BLACK
6
CONTINUOUS
10
73.277
20
-140.983
11
73.1407
21
-141.273
0
LINE
8
BLACK
6
CONTINUOUS
10
73.1407
20
-141.273
11
72.9691
21
-141.543
0
LINE
8
BLACK
6
CONTINUOUS
10
72.9691
20
-141.543
11
72.765
21
-141.79
0
LINE
8
BLACK
6
CONTINUOUS
10
72.765
20
-141.79
11
72.5315
21
-142.009
0
LINE
8
BLACK
6
CONTINUOUS
10
72.5315
20
-142.009
11
72.2725
21
-142.197
0
LINE
8
BLACK
6
CONTINUOUS
10
72.2725
20
-142.197
11
71.9918
21
-142.352
0
LINE
8
BLACK
6
CONTINUOUS
10
71.9918
20
-142.352
11
71.6941
21
-142.469
0
LINE
8
BLACK
6
CONTINUOUS
10
71.6941
20
-142.469
11
71.3839
21
-142.549
0
LINE
8
BLACK
6
CONTINUOUS
10
71.3839
20
-142.549
11
71.0662
21
-142.589
0
LINE
8
BLACK
6
CONTINUOUS
10
71.0662
20
-142.589
11
70.746
21
-142.589
0
LINE
8
BLACK
6
CONTINUOUS
10
70.746
20
-142.589
11
70.4283
21
-142.549
0
LINE
8
BLACK
6
CONTINUOUS
10
70.4283
20
-142.549
11
70.1181
21
-142.469
0
LINE
8
BLACK
6
CONTINUOUS
10
70.1181
20
-142.469
11
69.8204
21
-142.352
0
LINE
8
BLACK
6
CONTINUOUS
10
69.8204
20
-142.352
11
69.5398
21
-142.197
0
LINE
8
BLACK
6
CONTINUOUS
10
69.5398
20
-142.197
11
69.2807
21
-142.009
0
LINE
8
BLACK
6
CONTINUOUS
10
69.2807
20
-142.009
11
69.0472
21
-141.79
0
LINE
8
BLACK
6
CONTINUOUS
10
69.0472
20
-141.79
11
68.8431
21
-141.543
0
LINE
8
BLACK
6
CONTINUOUS
10
68.8431
20
-141.543
11
68.6715
21
-141.273
0
LINE
8
BLACK
6
CONTINUOUS
10
68.6715
20
-141.273
11
68.5352
21
-140.983
0
LINE
8
BLACK
6
CONTINUOUS
10
68.5352
20
-140.983
11
68.4362
21
-140.678
0
LINE
8
BLACK
6
CONTINUOUS
10
68.4362
20
-140.678
11
68.3762
21
-140.364
0
LINE
8
BLACK
6
CONTINUOUS
10
68.3762
20
-140.364
11
68.3561
21
-140.044
0
LINE
8
BLACK
6
CONTINUOUS
10
68.3561
20
-140.044
11
68.3762
21
-139.725
0
LINE
8
BLACK
6
CONTINUOUS
10
68.3762
20
-139.725
11
68.4362
21
-139.41
0
LINE
8
BLACK
6
CONTINUOUS
10
68.5284
20
-140.655
11
68.6237
21
-140.948
0
LINE
8
BLACK
6
CONTINUOUS
10
68.6237
20
-140.948
11
68.7549
21
-141.227
0
LINE
8
BLACK
6
CONTINUOUS
10
68.7549
20
-141.227
11
68.9201
21
-141.487
0
LINE
8
BLACK
6
CONTINUOUS
10
68.9201
20
-141.487
11
69.1166
21
-141.725
0
LINE
8
BLACK
6
CONTINUOUS
10
69.1166
20
-141.725
11
69.3413
21
-141.936
0
LINE
8
BLACK
6
CONTINUOUS
10
69.3413
20
-141.936
11
69.5907
21
-142.117
0
LINE
8
BLACK
6
CONTINUOUS
10
69.5907
20
-142.117
11
69.8609
21
-142.266
0
LINE
8
BLACK
6
CONTINUOUS
10
69.8609
20
-142.266
11
70.1475
21
-142.379
0
LINE
8
BLACK
6
CONTINUOUS
10
70.1475
20
-142.379
11
70.4461
21
-142.456
0
LINE
8
BLACK
6
CONTINUOUS
10
70.4461
20
-142.456
11
70.752
21
-142.494
0
LINE
8
BLACK
6
CONTINUOUS
10
70.752
20
-142.494
11
71.0603
21
-142.494
0
LINE
8
BLACK
6
CONTINUOUS
10
71.0603
20
-142.494
11
71.3661
21
-142.456
0
LINE
8
BLACK
6
CONTINUOUS
10
71.3661
20
-142.456
11
71.6647
21
-142.379
0
LINE
8
BLACK
6
CONTINUOUS
10
71.6647
20
-142.379
11
71.9513
21
-142.266
0
LINE
8
BLACK
6
CONTINUOUS
10
71.9513
20
-142.266
11
72.2215
21
-142.117
0
LINE
8
BLACK
6
CONTINUOUS
10
72.2215
20
-142.117
11
72.4709
21
-141.936
0
LINE
8
BLACK
6
CONTINUOUS
10
72.4709
20
-141.936
11
72.6956
21
-141.725
0
LINE
8
BLACK
6
CONTINUOUS
10
72.6956
20
-141.725
11
72.8921
21
-141.487
0
LINE
8
BLACK
6
CONTINUOUS
10
72.8921
20
-141.487
11
73.0573
21
-141.227
0
LINE
8
BLACK
6
CONTINUOUS
10
73.0573
20
-141.227
11
73.1886
21
-140.948
0
LINE
8
BLACK
6
CONTINUOUS
10
73.1886
20
-140.948
11
73.2838
21
-140.655
0
LINE
8
BLACK
6
CONTINUOUS
10
73.2838
20
-140.655
11
73.3416
21
-140.352
0
LINE
8
BLACK
6
CONTINUOUS
10
73.3416
20
-140.352
11
73.361
21
-140.044
0
LINE
8
BLACK
6
CONTINUOUS
10
73.361
20
-140.044
11
73.3416
21
-139.737
0
LINE
8
BLACK
6
CONTINUOUS
10
73.3416
20
-139.737
11
73.2838
21
-139.434
0
LINE
8
BLACK
6
CONTINUOUS
10
73.2838
20
-139.434
11
73.1886
21
-139.141
0
LINE
8
BLACK
6
CONTINUOUS
10
73.1886
20
-139.141
11
73.0573
21
-138.862
0
LINE
8
BLACK
6
CONTINUOUS
10
73.0573
20
-138.862
11
72.8921
21
-138.601
0
LINE
8
BLACK
6
CONTINUOUS
10
72.8921
20
-138.601
11
72.6956
21
-138.364
0
LINE
8
BLACK
6
CONTINUOUS
10
72.6956
20
-138.364
11
72.4709
21
-138.153
0
LINE
8
BLACK
6
CONTINUOUS
10
72.4709
20
-138.153
11
72.2215
21
-137.972
0
LINE
8
BLACK
6
CONTINUOUS
10
72.2215
20
-137.972
11
71.9513
21
-137.823
0
LINE
8
BLACK
6
CONTINUOUS
10
71.9513
20
-137.823
11
71.6647
21
-137.71
0
LINE
8
BLACK
6
CONTINUOUS
10
71.6647
20
-137.71
11
71.3661
21
-137.633
0
LINE
8
BLACK
6
CONTINUOUS
10
71.3661
20
-137.633
11
71.0603
21
-137.594
0
LINE
8
BLACK
6
CONTINUOUS
10
71.0603
20
-137.594
11
70.752
21
-137.594
0
LINE
8
BLACK
6
CONTINUOUS
10
70.752
20
-137.594
11
70.4461
21
-137.633
0
LINE
8
BLACK
6
CONTINUOUS
10
70.4461
20
-137.633
11
70.1475
21
-137.71
0
LINE
8
BLACK
6
CONTINUOUS
10
70.1475
20
-137.71
11
69.8609
21
-137.823
0
LINE
8
BLACK
6
CONTINUOUS
10
69.8609
20
-137.823
11
69.5907
21
-137.972
0
LINE
8
BLACK
6
CONTINUOUS
10
69.5907
20
-137.972
11
69.3413
21
-138.153
0
LINE
8
BLACK
6
CONTINUOUS
10
69.3413
20
-138.153
11
69.1166
21
-138.364
0
LINE
8
BLACK
6
CONTINUOUS
10
69.1166
20
-138.364
11
68.9201
21
-138.601
0
LINE
8
BLACK
6
CONTINUOUS
10
68.9201
20
-138.601
11
68.7549
21
-138.862
0
LINE
8
BLACK
6
CONTINUOUS
10
68.7549
20
-138.862
11
68.6237
21
-139.141
0
LINE
8
BLACK
6
CONTINUOUS
10
68.6237
20
-139.141
11
68.5284
21
-139.434
0
LINE
8
BLACK
6
CONTINUOUS
10
68.5284
20
-139.434
11
68.4706
21
-139.737
0
LINE
8
BLACK
6
CONTINUOUS
10
68.4706
20
-139.737
11
68.4513
21
-140.044
0
LINE
8
BLACK
6
CONTINUOUS
10
68.4513
20
-140.044
11
68.4706
21
-140.352
0
LINE
8
BLACK
6
CONTINUOUS
10
68.4706
20
-140.352
11
68.5284
21
-140.655
0
LINE
8
BLACK
6
CONTINUOUS
10
137.574
20
-128.46
11
137.673
21
-128.155
0
LINE
8
BLACK
6
CONTINUOUS
10
137.673
20
-128.155
11
137.81
21
-127.865
0
LINE
8
BLACK
6
CONTINUOUS
10
137.81
20
-127.865
11
137.981
21
-127.595
0
LINE
8
BLACK
6
CONTINUOUS
10
137.981
20
-127.595
11
138.185
21
-127.348
0
LINE
8
BLACK
6
CONTINUOUS
10
138.185
20
-127.348
11
138.419
21
-127.129
0
LINE
8
BLACK
6
CONTINUOUS
10
138.419
20
-127.129
11
138.678
21
-126.941
0
LINE
8
BLACK
6
CONTINUOUS
10
138.678
20
-126.941
11
138.959
21
-126.787
0
LINE
8
BLACK
6
CONTINUOUS
10
138.959
20
-126.787
11
139.256
21
-126.669
0
LINE
8
BLACK
6
CONTINUOUS
10
139.256
20
-126.669
11
139.566
21
-126.589
0
LINE
8
BLACK
6
CONTINUOUS
10
139.566
20
-126.589
11
139.884
21
-126.549
0
LINE
8
BLACK
6
CONTINUOUS
10
139.884
20
-126.549
11
140.204
21
-126.549
0
LINE
8
BLACK
6
CONTINUOUS
10
140.204
20
-126.549
11
140.522
21
-126.589
0
LINE
8
BLACK
6
CONTINUOUS
10
140.522
20
-126.589
11
140.832
21
-126.669
0
LINE
8
BLACK
6
CONTINUOUS
10
140.832
20
-126.669
11
141.13
21
-126.787
0
LINE
8
BLACK
6
CONTINUOUS
10
141.13
20
-126.787
11
141.411
21
-126.941
0
LINE
8
BLACK
6
CONTINUOUS
10
141.411
20
-126.941
11
141.67
21
-127.129
0
LINE
8
BLACK
6
CONTINUOUS
10
141.67
20
-127.129
11
141.903
21
-127.348
0
LINE
8
BLACK
6
CONTINUOUS
10
141.903
20
-127.348
11
142.107
21
-127.595
0
LINE
8
BLACK
6
CONTINUOUS
10
142.107
20
-127.595
11
142.279
21
-127.865
0
LINE
8
BLACK
6
CONTINUOUS
10
142.279
20
-127.865
11
142.415
21
-128.155
0
LINE
8
BLACK
6
CONTINUOUS
10
142.415
20
-128.155
11
142.514
21
-128.46
0
LINE
8
BLACK
6
CONTINUOUS
10
142.514
20
-128.46
11
142.574
21
-128.774
0
LINE
8
BLACK
6
CONTINUOUS
10
142.574
20
-128.774
11
142.594
21
-129.094
0
LINE
8
BLACK
6
CONTINUOUS
10
142.594
20
-129.094
11
142.574
21
-129.413
0
LINE
8
BLACK
6
CONTINUOUS
10
142.574
20
-129.413
11
142.514
21
-129.728
0
LINE
8
BLACK
6
CONTINUOUS
10
142.514
20
-129.728
11
142.415
21
-130.033
0
LINE
8
BLACK
6
CONTINUOUS
10
142.415
20
-130.033
11
142.279
21
-130.322
0
LINE
8
BLACK
6
CONTINUOUS
10
142.279
20
-130.322
11
142.107
21
-130.593
0
LINE
8
BLACK
6
CONTINUOUS
10
142.107
20
-130.593
11
141.903
21
-130.839
0
LINE
8
BLACK
6
CONTINUOUS
10
141.903
20
-130.839
11
141.67
21
-131.059
0
LINE
8
BLACK
6
CONTINUOUS
10
141.67
20
-131.059
11
141.411
21
-131.247
0
LINE
8
BLACK
6
CONTINUOUS
10
141.411
20
-131.247
11
141.13
21
-131.401
0
LINE
8
BLACK
6
CONTINUOUS
10
141.13
20
-131.401
11
140.832
21
-131.519
0
LINE
8
BLACK
6
CONTINUOUS
10
140.832
20
-131.519
11
140.522
21
-131.599
0
LINE
8
BLACK
6
CONTINUOUS
10
140.522
20
-131.599
11
140.204
21
-131.639
0
LINE
8
BLACK
6
CONTINUOUS
10
140.204
20
-131.639
11
139.884
21
-131.639
0
LINE
8
BLACK
6
CONTINUOUS
10
139.884
20
-131.639
11
139.566
21
-131.599
0
LINE
8
BLACK
6
CONTINUOUS
10
139.566
20
-131.599
11
139.256
21
-131.519
0
LINE
8
BLACK
6
CONTINUOUS
10
139.256
20
-131.519
11
138.959
21
-131.401
0
LINE
8
BLACK
6
CONTINUOUS
10
138.959
20
-131.401
11
138.678
21
-131.247
0
LINE
8
BLACK
6
CONTINUOUS
10
138.678
20
-131.247
11
138.419
21
-131.059
0
LINE
8
BLACK
6
CONTINUOUS
10
138.419
20
-131.059
11
138.185
21
-130.839
0
LINE
8
BLACK
6
CONTINUOUS
10
138.185
20
-130.839
11
137.981
21
-130.593
0
LINE
8
BLACK
6
CONTINUOUS
10
137.981
20
-130.593
11
137.81
21
-130.322
0
LINE
8
BLACK
6
CONTINUOUS
10
137.81
20
-130.322
11
137.673
21
-130.033
0
LINE
8
BLACK
6
CONTINUOUS
10
137.673
20
-130.033
11
137.574
21
-129.728
0
LINE
8
BLACK
6
CONTINUOUS
10
137.574
20
-129.728
11
137.514
21
-129.413
0
LINE
8
BLACK
6
CONTINUOUS
10
137.514
20
-129.413
11
137.494
21
-129.094
0
LINE
8
BLACK
6
CONTINUOUS
10
137.494
20
-129.094
11
137.514
21
-128.774
0
LINE
8
BLACK
6
CONTINUOUS
10
137.514
20
-128.774
11
137.574
21
-128.46
0
LINE
8
BLACK
6
CONTINUOUS
10
137.667
20
-129.704
11
137.762
21
-129.998
0
LINE
8
BLACK
6
CONTINUOUS
10
137.762
20
-129.998
11
137.893
21
-130.277
0
LINE
8
BLACK
6
CONTINUOUS
10
137.893
20
-130.277
11
138.058
21
-130.537
0
LINE
8
BLACK
6
CONTINUOUS
10
138.058
20
-130.537
11
138.255
21
-130.774
0
LINE
8
BLACK
6
CONTINUOUS
10
138.255
20
-130.774
11
138.48
21
-130.985
0
LINE
8
BLACK
6
CONTINUOUS
10
138.48
20
-130.985
11
138.729
21
-131.167
0
LINE
8
BLACK
6
CONTINUOUS
10
138.729
20
-131.167
11
138.999
21
-131.315
0
LINE
8
BLACK
6
CONTINUOUS
10
138.999
20
-131.315
11
139.286
21
-131.429
0
LINE
8
BLACK
6
CONTINUOUS
10
139.286
20
-131.429
11
139.584
21
-131.505
0
LINE
8
BLACK
6
CONTINUOUS
10
139.584
20
-131.505
11
139.89
21
-131.544
0
LINE
8
BLACK
6
CONTINUOUS
10
139.89
20
-131.544
11
140.198
21
-131.544
0
LINE
8
BLACK
6
CONTINUOUS
10
140.198
20
-131.544
11
140.504
21
-131.505
0
LINE
8
BLACK
6
CONTINUOUS
10
140.504
20
-131.505
11
140.803
21
-131.429
0
LINE
8
BLACK
6
CONTINUOUS
10
140.803
20
-131.429
11
141.09
21
-131.315
0
LINE
8
BLACK
6
CONTINUOUS
10
141.09
20
-131.315
11
141.36
21
-131.167
0
LINE
8
BLACK
6
CONTINUOUS
10
141.36
20
-131.167
11
141.609
21
-130.985
0
LINE
8
BLACK
6
CONTINUOUS
10
141.609
20
-130.985
11
141.834
21
-130.774
0
LINE
8
BLACK
6
CONTINUOUS
10
141.834
20
-130.774
11
142.03
21
-130.537
0
LINE
8
BLACK
6
CONTINUOUS
10
142.03
20
-130.537
11
142.195
21
-130.277
0
LINE
8
BLACK
6
CONTINUOUS
10
142.195
20
-130.277
11
142.327
21
-129.998
0
LINE
8
BLACK
6
CONTINUOUS
10
142.327
20
-129.998
11
142.422
21
-129.704
0
LINE
8
BLACK
6
CONTINUOUS
10
142.422
20
-129.704
11
142.48
21
-129.402
0
LINE
8
BLACK
6
CONTINUOUS
10
142.48
20
-129.402
11
142.499
21
-129.094
0
LINE
8
BLACK
6
CONTINUOUS
10
142.499
20
-129.094
11
142.48
21
-128.786
0
LINE
8
BLACK
6
CONTINUOUS
10
142.48
20
-128.786
11
142.422
21
-128.483
0
LINE
8
BLACK
6
CONTINUOUS
10
142.422
20
-128.483
11
142.327
21
-128.19
0
LINE
8
BLACK
6
CONTINUOUS
10
142.327
20
-128.19
11
142.195
21
-127.911
0
LINE
8
BLACK
6
CONTINUOUS
10
142.195
20
-127.911
11
142.03
21
-127.651
0
LINE
8
BLACK
6
CONTINUOUS
10
142.03
20
-127.651
11
141.834
21
-127.413
0
LINE
8
BLACK
6
CONTINUOUS
10
141.834
20
-127.413
11
141.609
21
-127.202
0
LINE
8
BLACK
6
CONTINUOUS
10
141.609
20
-127.202
11
141.36
21
-127.021
0
LINE
8
BLACK
6
CONTINUOUS
10
141.36
20
-127.021
11
141.09
21
-126.873
0
LINE
8
BLACK
6
CONTINUOUS
10
141.09
20
-126.873
11
140.803
21
-126.759
0
LINE
8
BLACK
6
CONTINUOUS
10
140.803
20
-126.759
11
140.504
21
-126.683
0
LINE
8
BLACK
6
CONTINUOUS
10
140.504
20
-126.683
11
140.198
21
-126.644
0
LINE
8
BLACK
6
CONTINUOUS
10
140.198
20
-126.644
11
139.89
21
-126.644
0
LINE
8
BLACK
6
CONTINUOUS
10
139.89
20
-126.644
11
139.584
21
-126.683
0
LINE
8
BLACK
6
CONTINUOUS
10
139.584
20
-126.683
11
139.286
21
-126.759
0
LINE
8
BLACK
6
CONTINUOUS
10
139.286
20
-126.759
11
138.999
21
-126.873
0
LINE
8
BLACK
6
CONTINUOUS
10
138.999
20
-126.873
11
138.729
21
-127.021
0
LINE
8
BLACK
6
CONTINUOUS
10
138.729
20
-127.021
11
138.48
21
-127.202
0
LINE
8
BLACK
6
CONTINUOUS
10
138.48
20
-127.202
11
138.255
21
-127.413
0
LINE
8
BLACK
6
CONTINUOUS
10
138.255
20
-127.413
11
138.058
21
-127.651
0
LINE
8
BLACK
6
CONTINUOUS
10
138.058
20
-127.651
11
137.893
21
-127.911
0
LINE
8
BLACK
6
CONTINUOUS
10
137.893
20
-127.911
11
137.762
21
-128.19
0
LINE
8
BLACK
6
CONTINUOUS
10
137.762
20
-128.19
11
137.667
21
-128.483
0
LINE
8
BLACK
6
CONTINUOUS
10
137.667
20
-128.483
11
137.609
21
-128.786
0
LINE
8
BLACK
6
CONTINUOUS
10
137.609
20
-128.786
11
137.589
21
-129.094
0
LINE
8
BLACK
6
CONTINUOUS
10
137.589
20
-129.094
11
137.609
21
-129.402
0
LINE
8
BLACK
6
CONTINUOUS
10
137.609
20
-129.402
11
137.667
21
-129.704
0
LINE
8
BLACK
6
CONTINUOUS
10
97.0355
20
-99.2828
11
97.1339
21
-98.9568
0
LINE
8
BLACK
6
CONTINUOUS
10
97.1339
20
-98.9568
11
97.2681
21
-98.6439
0
LINE
8
BLACK
6
CONTINUOUS
10
97.2681
20
-98.6439
11
97.4363
21
-98.3478
0
LINE
8
BLACK
6
CONTINUOUS
10
97.4363
20
-98.3478
11
97.6364
21
-98.0723
0
LINE
8
BLACK
6
CONTINUOUS
10
97.6364
20
-98.0723
11
97.866
21
-97.8209
0
LINE
8
BLACK
6
CONTINUOUS
10
97.866
20
-97.8209
11
98.1222
21
-97.5966
0
LINE
8
BLACK
6
CONTINUOUS
10
98.1222
20
-97.5966
11
98.4018
21
-97.4022
0
LINE
8
BLACK
6
CONTINUOUS
10
98.4018
20
-97.4022
11
98.7014
21
-97.2403
0
LINE
8
BLACK
6
CONTINUOUS
10
98.7014
20
-97.2403
11
99.0171
21
-97.1127
0
LINE
8
BLACK
6
CONTINUOUS
10
99.0171
20
-97.1127
11
99.3451
21
-97.0211
0
LINE
8
BLACK
6
CONTINUOUS
10
99.3451
20
-97.0211
11
99.6812
21
-96.9667
0
LINE
8
BLACK
6
CONTINUOUS
10
99.6812
20
-96.9667
11
100.021
21
-96.9501
0
LINE
8
BLACK
6
CONTINUOUS
10
100.021
20
-96.9501
11
100.361
21
-96.9715
0
LINE
8
BLACK
6
CONTINUOUS
10
100.361
20
-96.9715
11
100.696
21
-97.0306
0
LINE
8
BLACK
6
CONTINUOUS
10
100.696
20
-97.0306
11
101.023
21
-97.1267
0
LINE
8
BLACK
6
CONTINUOUS
10
101.023
20
-97.1267
11
101.337
21
-97.2587
0
LINE
8
BLACK
6
CONTINUOUS
10
101.337
20
-97.2587
11
101.634
21
-97.4248
0
LINE
8
BLACK
6
CONTINUOUS
10
101.634
20
-97.4248
11
101.911
21
-97.623
0
LINE
8
BLACK
6
CONTINUOUS
10
101.911
20
-97.623
11
102.164
21
-97.8509
0
LINE
8
BLACK
6
CONTINUOUS
10
102.164
20
-97.8509
11
102.39
21
-98.1055
0
LINE
8
BLACK
6
CONTINUOUS
10
102.39
20
-98.1055
11
102.587
21
-98.3837
0
LINE
8
BLACK
6
CONTINUOUS
10
102.587
20
-98.3837
11
102.751
21
-98.6821
0
LINE
8
BLACK
6
CONTINUOUS
10
102.751
20
-98.6821
11
102.88
21
-98.997
0
LINE
8
BLACK
6
CONTINUOUS
10
102.88
20
-98.997
11
102.974
21
-99.3243
0
LINE
8
BLACK
6
CONTINUOUS
10
102.974
20
-99.3243
11
103.031
21
-99.66
0
LINE
8
BLACK
6
CONTINUOUS
10
103.031
20
-99.66
11
103.05
21
-100
0
LINE
8
BLACK
6
CONTINUOUS
10
103.05
20
-100
11
103.049
21
-100.085
0
LINE
8
BLACK
6
CONTINUOUS
10
103.049
20
-100.085
11
103.02
21
-100.424
0
LINE
8
BLACK
6
CONTINUOUS
10
103.02
20
-100.424
11
102.954
21
-100.759
0
LINE
8
BLACK
6
CONTINUOUS
10
102.954
20
-100.759
11
102.851
21
-101.083
0
LINE
8
BLACK
6
CONTINUOUS
10
102.851
20
-101.083
11
102.713
21
-101.394
0
LINE
8
BLACK
6
CONTINUOUS
10
102.713
20
-101.394
11
102.54
21
-101.688
0
LINE
8
BLACK
6
CONTINUOUS
10
102.54
20
-101.688
11
102.336
21
-101.961
0
LINE
8
BLACK
6
CONTINUOUS
10
102.336
20
-101.961
11
102.103
21
-102.209
0
LINE
8
BLACK
6
CONTINUOUS
10
102.103
20
-102.209
11
101.844
21
-102.429
0
LINE
8
BLACK
6
CONTINUOUS
10
101.844
20
-102.429
11
101.562
21
-102.62
0
LINE
8
BLACK
6
CONTINUOUS
10
101.562
20
-102.62
11
101.26
21
-102.778
0
LINE
8
BLACK
6
CONTINUOUS
10
101.26
20
-102.778
11
100.943
21
-102.901
0
LINE
8
BLACK
6
CONTINUOUS
10
100.943
20
-102.901
11
100.613
21
-102.988
0
LINE
8
BLACK
6
CONTINUOUS
10
100.613
20
-102.988
11
100.276
21
-103.037
0
LINE
8
BLACK
6
CONTINUOUS
10
100.276
20
-103.037
11
99.9361
21
-103.049
0
LINE
8
BLACK
6
CONTINUOUS
10
99.9361
20
-103.049
11
99.5966
21
-103.023
0
LINE
8
BLACK
6
CONTINUOUS
10
99.5966
20
-103.023
11
99.2621
21
-102.959
0
LINE
8
BLACK
6
CONTINUOUS
10
99.2621
20
-102.959
11
98.9369
21
-102.859
0
LINE
8
BLACK
6
CONTINUOUS
10
98.9369
20
-102.859
11
98.6248
21
-102.722
0
LINE
8
BLACK
6
CONTINUOUS
10
98.6248
20
-102.722
11
98.3299
21
-102.552
0
LINE
8
BLACK
6
CONTINUOUS
10
98.3299
20
-102.552
11
98.0559
21
-102.35
0
LINE
8
BLACK
6
CONTINUOUS
10
98.0559
20
-102.35
11
97.806
21
-102.119
0
LINE
8
BLACK
6
CONTINUOUS
10
97.806
20
-102.119
11
97.5835
21
-101.861
0
LINE
8
BLACK
6
CONTINUOUS
10
97.5835
20
-101.861
11
97.3911
21
-101.58
0
LINE
8
BLACK
6
CONTINUOUS
10
97.3911
20
-101.58
11
97.2313
21
-101.279
0
LINE
8
BLACK
6
CONTINUOUS
10
97.2313
20
-101.279
11
97.1059
21
-100.963
0
LINE
8
BLACK
6
CONTINUOUS
10
97.1059
20
-100.963
11
97.0166
21
-100.634
0
LINE
8
BLACK
6
CONTINUOUS
10
97.0166
20
-100.634
11
96.9646
21
-100.298
0
LINE
8
BLACK
6
CONTINUOUS
10
96.9646
20
-100.298
11
96.9503
21
-99.9574
0
LINE
8
BLACK
6
CONTINUOUS
10
96.9503
20
-99.9574
11
96.9538
21
-99.9072
0
LINE
8
BLACK
6
CONTINUOUS
10
96.9538
20
-99.9072
11
96.974
21
-99.6177
0
LINE
8
BLACK
6
CONTINUOUS
10
96.974
20
-99.6177
11
97.0355
21
-99.2828
0
LINE
8
BLACK
6
CONTINUOUS
10
97.1033
20
-100.584
11
97.1896
21
-100.913
0
LINE
8
BLACK
6
CONTINUOUS
10
97.1896
20
-100.913
11
97.3132
21
-101.23
0
LINE
8
BLACK
6
CONTINUOUS
10
97.3132
20
-101.23
11
97.4724
21
-101.531
0
LINE
8
BLACK
6
CONTINUOUS
10
97.4724
20
-101.531
11
97.6651
21
-101.811
0
LINE
8
BLACK
6
CONTINUOUS
10
97.6651
20
-101.811
11
97.8887
21
-102.068
0
LINE
8
BLACK
6
CONTINUOUS
10
97.8887
20
-102.068
11
98.1404
21
-102.296
0
LINE
8
BLACK
6
CONTINUOUS
10
98.1404
20
-102.296
11
98.4166
21
-102.495
0
LINE
8
BLACK
6
CONTINUOUS
10
98.4166
20
-102.495
11
98.7139
21
-102.66
0
LINE
8
BLACK
6
CONTINUOUS
10
98.7139
20
-102.66
11
99.0282
21
-102.791
0
LINE
8
BLACK
6
CONTINUOUS
10
99.0282
20
-102.791
11
99.3554
21
-102.884
0
LINE
8
BLACK
6
CONTINUOUS
10
99.3554
20
-102.884
11
99.6911
21
-102.939
0
LINE
8
BLACK
6
CONTINUOUS
10
99.6911
20
-102.939
11
100.031
21
-102.955
0
LINE
8
BLACK
6
CONTINUOUS
10
100.031
20
-102.955
11
100.37
21
-102.932
0
LINE
8
BLACK
6
CONTINUOUS
10
100.37
20
-102.932
11
100.705
21
-102.87
0
LINE
8
BLACK
6
CONTINUOUS
10
100.705
20
-102.87
11
101.03
21
-102.77
0
LINE
8
BLACK
6
CONTINUOUS
10
101.03
20
-102.77
11
101.342
21
-102.633
0
LINE
8
BLACK
6
CONTINUOUS
10
101.342
20
-102.633
11
101.635
21
-102.461
0
LINE
8
BLACK
6
CONTINUOUS
10
101.635
20
-102.461
11
101.907
21
-102.257
0
LINE
8
BLACK
6
CONTINUOUS
10
101.907
20
-102.257
11
102.154
21
-102.023
0
LINE
8
BLACK
6
CONTINUOUS
10
102.154
20
-102.023
11
102.372
21
-101.762
0
LINE
8
BLACK
6
CONTINUOUS
10
102.372
20
-101.762
11
102.559
21
-101.477
0
LINE
8
BLACK
6
CONTINUOUS
10
102.559
20
-101.477
11
102.712
21
-101.174
0
LINE
8
BLACK
6
CONTINUOUS
10
102.712
20
-101.174
11
102.829
21
-100.854
0
LINE
8
BLACK
6
CONTINUOUS
10
102.829
20
-100.854
11
102.908
21
-100.523
0
LINE
8
BLACK
6
CONTINUOUS
10
102.908
20
-100.523
11
102.949
21
-100.186
0
LINE
8
BLACK
6
CONTINUOUS
10
102.949
20
-100.186
11
102.955
21
-100
0
LINE
8
BLACK
6
CONTINUOUS
10
102.955
20
-100
11
102.935
21
-99.6604
0
LINE
8
BLACK
6
CONTINUOUS
10
102.935
20
-99.6604
11
102.877
21
-99.3252
0
LINE
8
BLACK
6
CONTINUOUS
10
102.877
20
-99.3252
11
102.78
21
-98.999
0
LINE
8
BLACK
6
CONTINUOUS
10
102.78
20
-98.999
11
102.647
21
-98.6861
0
LINE
8
BLACK
6
CONTINUOUS
10
102.647
20
-98.6861
11
102.478
21
-98.3906
0
LINE
8
BLACK
6
CONTINUOUS
10
102.478
20
-98.3906
11
102.277
21
-98.1164
0
LINE
8
BLACK
6
CONTINUOUS
10
102.277
20
-98.1164
11
102.045
21
-97.8672
0
LINE
8
BLACK
6
CONTINUOUS
10
102.045
20
-97.8672
11
101.787
21
-97.6463
0
LINE
8
BLACK
6
CONTINUOUS
10
101.787
20
-97.6463
11
101.504
21
-97.4565
0
LINE
8
BLACK
6
CONTINUOUS
10
101.504
20
-97.4565
11
101.202
21
-97.3005
0
LINE
8
BLACK
6
CONTINUOUS
10
101.202
20
-97.3005
11
100.884
21
-97.1802
0
LINE
8
BLACK
6
CONTINUOUS
10
100.884
20
-97.1802
11
100.554
21
-97.0973
0
LINE
8
BLACK
6
CONTINUOUS
10
100.554
20
-97.0973
11
100.216
21
-97.0529
0
LINE
8
BLACK
6
CONTINUOUS
10
100.216
20
-97.0529
11
99.8763
21
-97.0476
0
LINE
8
BLACK
6
CONTINUOUS
10
99.8763
20
-97.0476
11
99.5377
21
-97.0814
0
LINE
8
BLACK
6
CONTINUOUS
10
99.5377
20
-97.0814
11
99.2053
21
-97.1539
0
LINE
8
BLACK
6
CONTINUOUS
10
99.2053
20
-97.1539
11
98.8835
21
-97.2641
0
LINE
8
BLACK
6
CONTINUOUS
10
98.8835
20
-97.2641
11
98.5764
21
-97.4105
0
LINE
8
BLACK
6
CONTINUOUS
10
98.5764
20
-97.4105
11
98.2882
21
-97.5913
0
LINE
8
BLACK
6
CONTINUOUS
10
98.2882
20
-97.5913
11
98.0227
21
-97.804
0
LINE
8
BLACK
6
CONTINUOUS
10
98.0227
20
-97.804
11
97.7834
21
-98.0458
0
LINE
8
BLACK
6
CONTINUOUS
10
97.7834
20
-98.0458
11
97.5735
21
-98.3135
0
LINE
8
BLACK
6
CONTINUOUS
10
97.5735
20
-98.3135
11
97.3957
21
-98.6036
0
LINE
8
BLACK
6
CONTINUOUS
10
97.3957
20
-98.6036
11
97.2525
21
-98.9122
0
LINE
8
BLACK
6
CONTINUOUS
10
97.2525
20
-98.9122
11
97.1457
21
-99.2352
0
LINE
8
BLACK
6
CONTINUOUS
10
97.1457
20
-99.2352
11
97.0767
21
-99.5683
0
LINE
8
BLACK
6
CONTINUOUS
10
97.0767
20
-99.5683
11
97.0465
21
-99.9072
0
LINE
8
BLACK
6
CONTINUOUS
10
97.0465
20
-99.9072
11
97.0554
21
-100.247
0
LINE
8
BLACK
6
CONTINUOUS
10
97.0554
20
-100.247
11
97.1033
21
-100.584
0
LINE
8
BLACK
6
CONTINUOUS
10
57.4858
20
-70.272
11
57.5848
21
-69.9674
0
LINE
8
BLACK
6
CONTINUOUS
10
57.5848
20
-69.9674
11
57.7211
21
-69.6776
0
LINE
8
BLACK
6
CONTINUOUS
10
57.7211
20
-69.6776
11
57.8927
21
-69.4073
0
LINE
8
BLACK
6
CONTINUOUS
10
57.8927
20
-69.4073
11
58.0968
21
-69.1605
0
LINE
8
BLACK
6
CONTINUOUS
10
58.0968
20
-69.1605
11
58.3303
21
-68.9413
0
LINE
8
BLACK
6
CONTINUOUS
10
58.3303
20
-68.9413
11
58.5893
21
-68.7531
0
LINE
8
BLACK
6
CONTINUOUS
10
58.5893
20
-68.7531
11
58.87
21
-68.5988
0
LINE
8
BLACK
6
CONTINUOUS
10
58.87
20
-68.5988
11
59.1677
21
-68.4809
0
LINE
8
BLACK
6
CONTINUOUS
10
59.1677
20
-68.4809
11
59.4779
21
-68.4013
0
LINE
8
BLACK
6
CONTINUOUS
10
59.4779
20
-68.4013
11
59.7956
21
-68.3611
0
LINE
8
BLACK
6
CONTINUOUS
10
59.7956
20
-68.3611
11
60.1158
21
-68.3611
0
LINE
8
BLACK
6
CONTINUOUS
10
60.1158
20
-68.3611
11
60.4335
21
-68.4013
0
LINE
8
BLACK
6
CONTINUOUS
10
60.4335
20
-68.4013
11
60.7437
21
-68.4809
0
LINE
8
BLACK
6
CONTINUOUS
10
60.7437
20
-68.4809
11
61.0414
21
-68.5988
0
LINE
8
BLACK
6
CONTINUOUS
10
61.0414
20
-68.5988
11
61.3221
21
-68.7531
0
LINE
8
BLACK
6
CONTINUOUS
10
61.3221
20
-68.7531
11
61.5811
21
-68.9413
0
LINE
8
BLACK
6
CONTINUOUS
10
61.5811
20
-68.9413
11
61.8146
21
-69.1605
0
LINE
8
BLACK
6
CONTINUOUS
10
61.8146
20
-69.1605
11
62.0187
21
-69.4073
0
LINE
8
BLACK
6
CONTINUOUS
10
62.0187
20
-69.4073
11
62.1903
21
-69.6776
0
LINE
8
BLACK
6
CONTINUOUS
10
62.1903
20
-69.6776
11
62.3266
21
-69.9674
0
LINE
8
BLACK
6
CONTINUOUS
10
62.3266
20
-69.9674
11
62.4256
21
-70.272
0
LINE
8
BLACK
6
CONTINUOUS
10
62.4256
20
-70.272
11
62.4856
21
-70.5865
0
LINE
8
BLACK
6
CONTINUOUS
10
62.4856
20
-70.5865
11
62.5057
21
-70.9061
0
LINE
8
BLACK
6
CONTINUOUS
10
62.5057
20
-70.9061
11
62.4856
21
-71.2257
0
LINE
8
BLACK
6
CONTINUOUS
10
62.4856
20
-71.2257
11
62.4256
21
-71.5403
0
LINE
8
BLACK
6
CONTINUOUS
10
62.4256
20
-71.5403
11
62.3266
21
-71.8448
0
LINE
8
BLACK
6
CONTINUOUS
10
62.3266
20
-71.8448
11
62.1903
21
-72.1346
0
LINE
8
BLACK
6
CONTINUOUS
10
62.1903
20
-72.1346
11
62.0187
21
-72.405
0
LINE
8
BLACK
6
CONTINUOUS
10
62.0187
20
-72.405
11
61.8146
21
-72.6517
0
LINE
8
BLACK
6
CONTINUOUS
10
61.8146
20
-72.6517
11
61.5811
21
-72.8709
0
LINE
8
BLACK
6
CONTINUOUS
10
61.5811
20
-72.8709
11
61.3221
21
-73.0591
0
LINE
8
BLACK
6
CONTINUOUS
10
61.3221
20
-73.0591
11
61.0414
21
-73.2134
0
LINE
8
BLACK
6
CONTINUOUS
10
61.0414
20
-73.2134
11
60.7437
21
-73.3313
0
LINE
8
BLACK
6
CONTINUOUS
10
60.7437
20
-73.3313
11
60.4335
21
-73.4109
0
LINE
8
BLACK
6
CONTINUOUS
10
60.4335
20
-73.4109
11
60.1158
21
-73.4511
0
LINE
8
BLACK
6
CONTINUOUS
10
60.1158
20
-73.4511
11
59.7956
21
-73.4511
0
LINE
8
BLACK
6
CONTINUOUS
10
59.7956
20
-73.4511
11
59.4779
21
-73.4109
0
LINE
8
BLACK
6
CONTINUOUS
10
59.4779
20
-73.4109
11
59.1677
21
-73.3313
0
LINE
8
BLACK
6
CONTINUOUS
10
59.1677
20
-73.3313
11
58.87
21
-73.2134
0
LINE
8
BLACK
6
CONTINUOUS
10
58.87
20
-73.2134
11
58.5893
21
-73.0591
0
LINE
8
BLACK
6
CONTINUOUS
10
58.5893
20
-73.0591
11
58.3303
21
-72.8709
0
LINE
8
BLACK
6
CONTINUOUS
10
58.3303
20
-72.8709
11
58.0968
21
-72.6517
0
LINE
8
BLACK
6
CONTINUOUS
10
58.0968
20
-72.6517
11
57.8927
21
-72.405
0
LINE
8
BLACK
6
CONTINUOUS
10
57.8927
20
-72.405
11
57.7211
21
-72.1346
0
LINE
8
BLACK
6
CONTINUOUS
10
57.7211
20
-72.1346
11
57.5848
21
-71.8448
0
LINE
8
BLACK
6
CONTINUOUS
10
57.5848
20
-71.8448
11
57.4858
21
-71.5403
0
LINE
8
BLACK
6
CONTINUOUS
10
57.4858
20
-71.5403
11
57.4258
21
-71.2257
0
LINE
8
BLACK
6
CONTINUOUS
10
57.4258
20
-71.2257
11
57.4057
21
-70.9061
0
LINE
8
BLACK
6
CONTINUOUS
10
57.4057
20
-70.9061
11
57.4258
21
-70.5865
0
LINE
8
BLACK
6
CONTINUOUS
10
57.4258
20
-70.5865
11
57.4858
21
-70.272
0
LINE
8
BLACK
6
CONTINUOUS
10
57.578
20
-71.5166
11
57.6732
21
-71.8098
0
LINE
8
BLACK
6
CONTINUOUS
10
57.6732
20
-71.8098
11
57.8045
21
-72.0887
0
LINE
8
BLACK
6
CONTINUOUS
10
57.8045
20
-72.0887
11
57.9697
21
-72.349
0
LINE
8
BLACK
6
CONTINUOUS
10
57.9697
20
-72.349
11
58.1662
21
-72.5866
0
LINE
8
BLACK
6
CONTINUOUS
10
58.1662
20
-72.5866
11
58.3909
21
-72.7976
0
LINE
8
BLACK
6
CONTINUOUS
10
58.3909
20
-72.7976
11
58.6403
21
-72.9788
0
LINE
8
BLACK
6
CONTINUOUS
10
58.6403
20
-72.9788
11
58.9105
21
-73.1273
0
LINE
8
BLACK
6
CONTINUOUS
10
58.9105
20
-73.1273
11
59.1971
21
-73.2408
0
LINE
8
BLACK
6
CONTINUOUS
10
59.1971
20
-73.2408
11
59.4957
21
-73.3175
0
LINE
8
BLACK
6
CONTINUOUS
10
59.4957
20
-73.3175
11
59.8016
21
-73.3561
0
LINE
8
BLACK
6
CONTINUOUS
10
59.8016
20
-73.3561
11
60.1098
21
-73.3561
0
LINE
8
BLACK
6
CONTINUOUS
10
60.1098
20
-73.3561
11
60.4157
21
-73.3175
0
LINE
8
BLACK
6
CONTINUOUS
10
60.4157
20
-73.3175
11
60.7143
21
-73.2408
0
LINE
8
BLACK
6
CONTINUOUS
10
60.7143
20
-73.2408
11
61.0009
21
-73.1273
0
LINE
8
BLACK
6
CONTINUOUS
10
61.0009
20
-73.1273
11
61.2711
21
-72.9788
0
LINE
8
BLACK
6
CONTINUOUS
10
61.2711
20
-72.9788
11
61.5205
21
-72.7976
0
LINE
8
BLACK
6
CONTINUOUS
10
61.5205
20
-72.7976
11
61.7452
21
-72.5866
0
LINE
8
BLACK
6
CONTINUOUS
10
61.7452
20
-72.5866
11
61.9417
21
-72.349
0
LINE
8
BLACK
6
CONTINUOUS
10
61.9417
20
-72.349
11
62.1069
21
-72.0887
0
LINE
8
BLACK
6
CONTINUOUS
10
62.1069
20
-72.0887
11
62.2382
21
-71.8098
0
LINE
8
BLACK
6
CONTINUOUS
10
62.2382
20
-71.8098
11
62.3334
21
-71.5166
0
LINE
8
BLACK
6
CONTINUOUS
10
62.3334
20
-71.5166
11
62.3912
21
-71.2138
0
LINE
8
BLACK
6
CONTINUOUS
10
62.3912
20
-71.2138
11
62.4105
21
-70.9061
0
LINE
8
BLACK
6
CONTINUOUS
10
62.4105
20
-70.9061
11
62.3912
21
-70.5984
0
LINE
8
BLACK
6
CONTINUOUS
10
62.3912
20
-70.5984
11
62.3334
21
-70.2956
0
LINE
8
BLACK
6
CONTINUOUS
10
62.3334
20
-70.2956
11
62.2382
21
-70.0024
0
LINE
8
BLACK
6
CONTINUOUS
10
62.2382
20
-70.0024
11
62.1069
21
-69.7235
0
LINE
8
BLACK
6
CONTINUOUS
10
62.1069
20
-69.7235
11
61.9417
21
-69.4632
0
LINE
8
BLACK
6
CONTINUOUS
10
61.9417
20
-69.4632
11
61.7452
21
-69.2257
0
LINE
8
BLACK
6
CONTINUOUS
10
61.7452
20
-69.2257
11
61.5205
21
-69.0146
0
LINE
8
BLACK
6
CONTINUOUS
10
61.5205
20
-69.0146
11
61.2711
21
-68.8334
0
LINE
8
BLACK
6
CONTINUOUS
10
61.2711
20
-68.8334
11
61.0009
21
-68.6849
0
LINE
8
BLACK
6
CONTINUOUS
10
61.0009
20
-68.6849
11
60.7143
21
-68.5714
0
LINE
8
BLACK
6
CONTINUOUS
10
60.7143
20
-68.5714
11
60.4157
21
-68.4947
0
LINE
8
BLACK
6
CONTINUOUS
10
60.4157
20
-68.4947
11
60.1098
21
-68.4561
0
LINE
8
BLACK
6
CONTINUOUS
10
60.1098
20
-68.4561
11
59.8016
21
-68.4561
0
LINE
8
BLACK
6
CONTINUOUS
10
59.8016
20
-68.4561
11
59.4957
21
-68.4947
0
LINE
8
BLACK
6
CONTINUOUS
10
59.4957
20
-68.4947
11
59.1971
21
-68.5714
0
LINE
8
BLACK
6
CONTINUOUS
10
59.1971
20
-68.5714
11
58.9105
21
-68.6849
0
LINE
8
BLACK
6
CONTINUOUS
10
58.9105
20
-68.6849
11
58.6403
21
-68.8334
0
LINE
8
BLACK
6
CONTINUOUS
10
58.6403
20
-68.8334
11
58.3909
21
-69.0146
0
LINE
8
BLACK
6
CONTINUOUS
10
58.3909
20
-69.0146
11
58.1662
21
-69.2257
0
LINE
8
BLACK
6
CONTINUOUS
10
58.1662
20
-69.2257
11
57.9697
21
-69.4632
0
LINE
8
BLACK
6
CONTINUOUS
10
57.9697
20
-69.4632
11
57.8045
21
-69.7235
0
LINE
8
BLACK
6
CONTINUOUS
10
57.8045
20
-69.7235
11
57.6732
21
-70.0024
0
LINE
8
BLACK
6
CONTINUOUS
10
57.6732
20
-70.0024
11
57.578
21
-70.2956
0
LINE
8
BLACK
6
CONTINUOUS
10
57.578
20
-70.2956
11
57.5202
21
-70.5984
0
LINE
8
BLACK
6
CONTINUOUS
10
57.5202
20
-70.5984
11
57.5009
21
-70.9061
0
LINE
8
BLACK
6
CONTINUOUS
10
57.5009
20
-70.9061
11
57.5202
21
-71.2138
0
LINE
8
BLACK
6
CONTINUOUS
10
57.5202
20
-71.2138
11
57.578
21
-71.5166
0
LINE
8
BLACK
6
CONTINUOUS
10
126.624
20
-59.3215
11
126.723
21
-59.017
0
LINE
8
BLACK
6
CONTINUOUS
10
126.723
20
-59.017
11
126.859
21
-58.7272
0
LINE
8
BLACK
6
CONTINUOUS
10
126.859
20
-58.7272
11
127.031
21
-58.4568
0
LINE
8
BLACK
6
CONTINUOUS
10
127.031
20
-58.4568
11
127.235
21
-58.2101
0
LINE
8
BLACK
6
CONTINUOUS
10
127.235
20
-58.2101
11
127.468
21
-57.9909
0
LINE
8
BLACK
6
CONTINUOUS
10
127.468
20
-57.9909
11
127.728
21
-57.8027
0
LINE
8
BLACK
6
CONTINUOUS
10
127.728
20
-57.8027
11
128.008
21
-57.6484
0
LINE
8
BLACK
6
CONTINUOUS
10
128.008
20
-57.6484
11
128.306
21
-57.5305
0
LINE
8
BLACK
6
CONTINUOUS
10
128.306
20
-57.5305
11
128.616
21
-57.4509
0
LINE
8
BLACK
6
CONTINUOUS
10
128.616
20
-57.4509
11
128.934
21
-57.4107
0
LINE
8
BLACK
6
CONTINUOUS
10
128.934
20
-57.4107
11
129.254
21
-57.4107
0
LINE
8
BLACK
6
CONTINUOUS
10
129.254
20
-57.4107
11
129.572
21
-57.4509
0
LINE
8
BLACK
6
CONTINUOUS
10
129.572
20
-57.4509
11
129.882
21
-57.5305
0
LINE
8
BLACK
6
CONTINUOUS
10
129.882
20
-57.5305
11
130.18
21
-57.6484
0
LINE
8
BLACK
6
CONTINUOUS
10
130.18
20
-57.6484
11
130.46
21
-57.8027
0
LINE
8
BLACK
6
CONTINUOUS
10
130.46
20
-57.8027
11
130.719
21
-57.9909
0
LINE
8
BLACK
6
CONTINUOUS
10
130.719
20
-57.9909
11
130.953
21
-58.2101
0
LINE
8
BLACK
6
CONTINUOUS
10
130.953
20
-58.2101
11
131.157
21
-58.4568
0
LINE
8
BLACK
6
CONTINUOUS
10
131.157
20
-58.4568
11
131.328
21
-58.7272
0
LINE
8
BLACK
6
CONTINUOUS
10
131.328
20
-58.7272
11
131.465
21
-59.017
0
LINE
8
BLACK
6
CONTINUOUS
10
131.465
20
-59.017
11
131.564
21
-59.3215
0
LINE
8
BLACK
6
CONTINUOUS
10
131.564
20
-59.3215
11
131.624
21
-59.6361
0
LINE
8
BLACK
6
CONTINUOUS
10
131.624
20
-59.6361
11
131.644
21
-59.9557
0
LINE
8
BLACK
6
CONTINUOUS
10
131.644
20
-59.9557
11
131.624
21
-60.2753
0
LINE
8
BLACK
6
CONTINUOUS
10
131.624
20
-60.2753
11
131.564
21
-60.5899
0
LINE
8
BLACK
6
CONTINUOUS
10
131.564
20
-60.5899
11
131.465
21
-60.8944
0
LINE
8
BLACK
6
CONTINUOUS
10
131.465
20
-60.8944
11
131.328
21
-61.1842
0
LINE
8
BLACK
6
CONTINUOUS
10
131.328
20
-61.1842
11
131.157
21
-61.4546
0
LINE
8
BLACK
6
CONTINUOUS
10
131.157
20
-61.4546
11
130.953
21
-61.7013
0
LINE
8
BLACK
6
CONTINUOUS
10
130.953
20
-61.7013
11
130.719
21
-61.9205
0
LINE
8
BLACK
6
CONTINUOUS
10
130.719
20
-61.9205
11
130.46
21
-62.1087
0
LINE
8
BLACK
6
CONTINUOUS
10
130.46
20
-62.1087
11
130.18
21
-62.263
0
LINE
8
BLACK
6
CONTINUOUS
10
130.18
20
-62.263
11
129.882
21
-62.3809
0
LINE
8
BLACK
6
CONTINUOUS
10
129.882
20
-62.3809
11
129.572
21
-62.4605
0
LINE
8
BLACK
6
CONTINUOUS
10
129.572
20
-62.4605
11
129.254
21
-62.5007
0
LINE
8
BLACK
6
CONTINUOUS
10
129.254
20
-62.5007
11
128.934
21
-62.5007
0
LINE
8
BLACK
6
CONTINUOUS
10
128.934
20
-62.5007
11
128.616
21
-62.4605
0
LINE
8
BLACK
6
CONTINUOUS
10
128.616
20
-62.4605
11
128.306
21
-62.3809
0
LINE
8
BLACK
6
CONTINUOUS
10
128.306
20
-62.3809
11
128.008
21
-62.263
0
LINE
8
BLACK
6
CONTINUOUS
10
128.008
20
-62.263
11
127.728
21
-62.1087
0
LINE
8
BLACK
6
CONTINUOUS
10
127.728
20
-62.1087
11
127.468
21
-61.9205
0
LINE
8
BLACK
6
CONTINUOUS
10
127.468
20
-61.9205
11
127.235
21
-61.7013
0
LINE
8
BLACK
6
CONTINUOUS
10
127.235
20
-61.7013
11
127.031
21
-61.4546
0
LINE
8
BLACK
6
CONTINUOUS
10
127.031
20
-61.4546
11
126.859
21
-61.1842
0
LINE
8
BLACK
6
CONTINUOUS
10
126.859
20
-61.1842
11
126.723
21
-60.8944
0
LINE
8
BLACK
6
CONTINUOUS
10
126.723
20
-60.8944
11
126.624
21
-60.5899
0
LINE
8
BLACK
6
CONTINUOUS
10
126.624
20
-60.5899
11
126.564
21
-60.2753
0
LINE
8
BLACK
6
CONTINUOUS
10
126.564
20
-60.2753
11
126.544
21
-59.9557
0
LINE
8
BLACK
6
CONTINUOUS
10
126.544
20
-59.9557
11
126.564
21
-59.6361
0
LINE
8
BLACK
6
CONTINUOUS
10
126.564
20
-59.6361
11
126.624
21
-59.3215
0
LINE
8
BLACK
6
CONTINUOUS
10
126.716
20
-60.5662
11
126.811
21
-60.8594
0
LINE
8
BLACK
6
CONTINUOUS
10
126.811
20
-60.8594
11
126.943
21
-61.1383
0
LINE
8
BLACK
6
CONTINUOUS
10
126.943
20
-61.1383
11
127.108
21
-61.3986
0
LINE
8
BLACK
6
CONTINUOUS
10
127.108
20
-61.3986
11
127.304
21
-61.6362
0
LINE
8
BLACK
6
CONTINUOUS
10
127.304
20
-61.6362
11
127.529
21
-61.8472
0
LINE
8
BLACK
6
CONTINUOUS
10
127.529
20
-61.8472
11
127.779
21
-62.0284
0
LINE
8
BLACK
6
CONTINUOUS
10
127.779
20
-62.0284
11
128.049
21
-62.1769
0
LINE
8
BLACK
6
CONTINUOUS
10
128.049
20
-62.1769
11
128.335
21
-62.2904
0
LINE
8
BLACK
6
CONTINUOUS
10
128.335
20
-62.2904
11
128.634
21
-62.3671
0
LINE
8
BLACK
6
CONTINUOUS
10
128.634
20
-62.3671
11
128.94
21
-62.4057
0
LINE
8
BLACK
6
CONTINUOUS
10
128.94
20
-62.4057
11
129.248
21
-62.4057
0
LINE
8
BLACK
6
CONTINUOUS
10
129.248
20
-62.4057
11
129.554
21
-62.3671
0
LINE
8
BLACK
6
CONTINUOUS
10
129.554
20
-62.3671
11
129.852
21
-62.2904
0
LINE
8
BLACK
6
CONTINUOUS
10
129.852
20
-62.2904
11
130.139
21
-62.1769
0
LINE
8
BLACK
6
CONTINUOUS
10
130.139
20
-62.1769
11
130.409
21
-62.0284
0
LINE
8
BLACK
6
CONTINUOUS
10
130.409
20
-62.0284
11
130.659
21
-61.8472
0
LINE
8
BLACK
6
CONTINUOUS
10
130.659
20
-61.8472
11
130.883
21
-61.6362
0
LINE
8
BLACK
6
CONTINUOUS
10
130.883
20
-61.6362
11
131.08
21
-61.3986
0
LINE
8
BLACK
6
CONTINUOUS
10
131.08
20
-61.3986
11
131.245
21
-61.1383
0
LINE
8
BLACK
6
CONTINUOUS
10
131.245
20
-61.1383
11
131.376
21
-60.8594
0
LINE
8
BLACK
6
CONTINUOUS
10
131.376
20
-60.8594
11
131.472
21
-60.5662
0
LINE
8
BLACK
6
CONTINUOUS
10
131.472
20
-60.5662
11
131.529
21
-60.2634
0
LINE
8
BLACK
6
CONTINUOUS
10
131.529
20
-60.2634
11
131.549
21
-59.9557
0
LINE
8
BLACK
6
CONTINUOUS
10
131.549
20
-59.9557
11
131.529
21
-59.648
0
LINE
8
BLACK
6
CONTINUOUS
10
131.529
20
-59.648
11
131.472
21
-59.3452
0
LINE
8
BLACK
6
CONTINUOUS
10
131.472
20
-59.3452
11
131.376
21
-59.052
0
LINE
8
BLACK
6
CONTINUOUS
10
131.376
20
-59.052
11
131.245
21
-58.7731
0
LINE
8
BLACK
6
CONTINUOUS
10
131.245
20
-58.7731
11
131.08
21
-58.5128
0
LINE
8
BLACK
6
CONTINUOUS
10
131.08
20
-58.5128
11
130.883
21
-58.2752
0
LINE
8
BLACK
6
CONTINUOUS
10
130.883
20
-58.2752
11
130.659
21
-58.0642
0
LINE
8
BLACK
6
CONTINUOUS
10
130.659
20
-58.0642
11
130.409
21
-57.883
0
LINE
8
BLACK
6
CONTINUOUS
10
130.409
20
-57.883
11
130.139
21
-57.7345
0
LINE
8
BLACK
6
CONTINUOUS
10
130.139
20
-57.7345
11
129.852
21
-57.621
0
LINE
8
BLACK
6
CONTINUOUS
10
129.852
20
-57.621
11
129.554
21
-57.5443
0
LINE
8
BLACK
6
CONTINUOUS
10
129.554
20
-57.5443
11
129.248
21
-57.5057
0
LINE
8
BLACK
6
CONTINUOUS
10
129.248
20
-57.5057
11
128.94
21
-57.5057
0
LINE
8
BLACK
6
CONTINUOUS
10
128.94
20
-57.5057
11
128.634
21
-57.5443
0
LINE
8
BLACK
6
CONTINUOUS
10
128.634
20
-57.5443
11
128.335
21
-57.621
0
LINE
8
BLACK
6
CONTINUOUS
10
128.335
20
-57.621
11
128.049
21
-57.7345
0
LINE
8
BLACK
6
CONTINUOUS
10
128.049
20
-57.7345
11
127.779
21
-57.883
0
LINE
8
BLACK
6
CONTINUOUS
10
127.779
20
-57.883
11
127.529
21
-58.0642
0
LINE
8
BLACK
6
CONTINUOUS
10
127.529
20
-58.0642
11
127.304
21
-58.2752
0
LINE
8
BLACK
6
CONTINUOUS
10
127.304
20
-58.2752
11
127.108
21
-58.5128
0
LINE
8
BLACK
6
CONTINUOUS
10
127.108
20
-58.5128
11
126.943
21
-58.7731
0
LINE
8
BLACK
6
CONTINUOUS
10
126.943
20
-58.7731
11
126.811
21
-59.052
0
LINE
8
BLACK
6
CONTINUOUS
10
126.811
20
-59.052
11
126.716
21
-59.3452
0
LINE
8
BLACK
6
CONTINUOUS
10
126.716
20
-59.3452
11
126.658
21
-59.648
0
LINE
8
BLACK
6
CONTINUOUS
10
126.658
20
-59.648
11
126.639
21
-59.9557
0
LINE
8
BLACK
6
CONTINUOUS
10
126.639
20
-59.9557
11
126.658
21
-60.2634
0
LINE
8
BLACK
6
CONTINUOUS
10
126.658
20
-60.2634
11
126.716
21
-60.5662
  0
ENDSEC
  0
EOF
