%TF.GenerationSoftware,KiCad,Pcbnew,(6.0.5)*%
%TF.CreationDate,2024-11-08T16:15:15+00:00*%
%TF.ProjectId,Main Board,4d61696e-2042-46f6-9172-642e6b696361,rev?*%
%TF.SameCoordinates,Original*%
%TF.FileFunction,Soldermask,Bot*%
%TF.FilePolarity,Negative*%
%FSLAX46Y46*%
G04 Gerber Fmt 4.6, Leading zero omitted, Abs format (unit mm)*
G04 Created by KiCad (PCBNEW (6.0.5)) date 2024-11-08 16:15:15*
%MOMM*%
%LPD*%
G01*
G04 APERTURE LIST*
G04 Aperture macros list*
%AMRoundRect*
0 Rectangle with rounded corners*
0 $1 Rounding radius*
0 $2 $3 $4 $5 $6 $7 $8 $9 X,Y pos of 4 corners*
0 Add a 4 corners polygon primitive as box body*
4,1,4,$2,$3,$4,$5,$6,$7,$8,$9,$2,$3,0*
0 Add four circle primitives for the rounded corners*
1,1,$1+$1,$2,$3*
1,1,$1+$1,$4,$5*
1,1,$1+$1,$6,$7*
1,1,$1+$1,$8,$9*
0 Add four rect primitives between the rounded corners*
20,1,$1+$1,$2,$3,$4,$5,0*
20,1,$1+$1,$4,$5,$6,$7,0*
20,1,$1+$1,$6,$7,$8,$9,0*
20,1,$1+$1,$8,$9,$2,$3,0*%
%AMHorizOval*
0 Thick line with rounded ends*
0 $1 width*
0 $2 $3 position (X,Y) of the first rounded end (center of the circle)*
0 $4 $5 position (X,Y) of the second rounded end (center of the circle)*
0 Add line between two ends*
20,1,$1,$2,$3,$4,$5,0*
0 Add two circle primitives to create the rounded ends*
1,1,$1,$2,$3*
1,1,$1,$4,$5*%
%AMRotRect*
0 Rectangle, with rotation*
0 The origin of the aperture is its center*
0 $1 length*
0 $2 width*
0 $3 Rotation angle, in degrees counterclockwise*
0 Add horizontal line*
21,1,$1,$2,0,0,$3*%
%AMFreePoly0*
4,1,22,0.500000,-0.750000,0.000000,-0.750000,0.000000,-0.745033,-0.079941,-0.743568,-0.215256,-0.701293,-0.333266,-0.622738,-0.424486,-0.514219,-0.481581,-0.384460,-0.499164,-0.250000,-0.500000,-0.250000,-0.500000,0.250000,-0.499164,0.250000,-0.499963,0.256109,-0.478152,0.396186,-0.417904,0.524511,-0.324060,0.630769,-0.204165,0.706417,-0.067858,0.745374,0.000000,0.744959,0.000000,0.750000,
0.500000,0.750000,0.500000,-0.750000,0.500000,-0.750000,$1*%
%AMFreePoly1*
4,1,20,0.000000,0.744959,0.073905,0.744508,0.209726,0.703889,0.328688,0.626782,0.421226,0.519385,0.479903,0.390333,0.500000,0.250000,0.500000,-0.250000,0.499851,-0.262216,0.476331,-0.402017,0.414519,-0.529596,0.319384,-0.634700,0.198574,-0.708877,0.061801,-0.746166,0.000000,-0.745033,0.000000,-0.750000,-0.500000,-0.750000,-0.500000,0.750000,0.000000,0.750000,0.000000,0.744959,
0.000000,0.744959,$1*%
G04 Aperture macros list end*
%ADD10C,1.000000*%
%ADD11RoundRect,0.250002X-1.699998X1.699998X-1.699998X-1.699998X1.699998X-1.699998X1.699998X1.699998X0*%
%ADD12C,3.900000*%
%ADD13R,1.431000X1.431000*%
%ADD14C,1.431000*%
%ADD15RotRect,2.000000X2.000000X315.000000*%
%ADD16C,2.000000*%
%ADD17O,3.000000X5.500000*%
%ADD18R,1.665000X1.665000*%
%ADD19C,1.665000*%
%ADD20RoundRect,0.197500X0.632500X-0.197500X0.632500X0.197500X-0.632500X0.197500X-0.632500X-0.197500X0*%
%ADD21RoundRect,0.225000X-0.250000X0.225000X-0.250000X-0.225000X0.250000X-0.225000X0.250000X0.225000X0*%
%ADD22RoundRect,0.200000X0.079538X0.330604X-0.290014X0.177530X-0.079538X-0.330604X0.290014X-0.177530X0*%
%ADD23RoundRect,0.225000X0.250000X-0.225000X0.250000X0.225000X-0.250000X0.225000X-0.250000X-0.225000X0*%
%ADD24RoundRect,0.225000X0.017678X-0.335876X0.335876X-0.017678X-0.017678X0.335876X-0.335876X0.017678X0*%
%ADD25RoundRect,0.200000X0.275000X-0.200000X0.275000X0.200000X-0.275000X0.200000X-0.275000X-0.200000X0*%
%ADD26RotRect,1.700000X1.700000X135.000000*%
%ADD27HorizOval,1.700000X0.000000X0.000000X0.000000X0.000000X0*%
%ADD28FreePoly0,0.000000*%
%ADD29FreePoly1,0.000000*%
%ADD30RoundRect,0.225000X-0.017678X0.335876X-0.335876X0.017678X0.017678X-0.335876X0.335876X-0.017678X0*%
%ADD31RotRect,0.500000X0.250000X225.000000*%
%ADD32RotRect,0.900000X1.600000X225.000000*%
%ADD33C,1.700000*%
%ADD34RoundRect,0.200000X0.200000X0.275000X-0.200000X0.275000X-0.200000X-0.275000X0.200000X-0.275000X0*%
%ADD35RoundRect,0.225000X0.225000X0.250000X-0.225000X0.250000X-0.225000X-0.250000X0.225000X-0.250000X0*%
%ADD36RoundRect,0.225000X-0.225000X-0.250000X0.225000X-0.250000X0.225000X0.250000X-0.225000X0.250000X0*%
%ADD37RoundRect,1.000000X0.230873X-0.295504X-0.230873X0.295504X-0.230873X0.295504X0.230873X-0.295504X0*%
%ADD38RoundRect,0.137500X0.856062X-0.425699X-0.205954X0.933620X-0.856062X0.425699X0.205954X-0.933620X0*%
%ADD39R,1.700000X1.700000*%
%ADD40O,1.700000X1.700000*%
%ADD41R,2.200000X0.600000*%
%ADD42R,2.600000X1.800000*%
%ADD43RoundRect,0.200000X-0.200000X-0.275000X0.200000X-0.275000X0.200000X0.275000X-0.200000X0.275000X0*%
%ADD44RotRect,0.300000X0.325000X315.000000*%
%ADD45RotRect,0.300000X0.325000X45.000000*%
%ADD46RoundRect,0.250000X-0.650000X0.325000X-0.650000X-0.325000X0.650000X-0.325000X0.650000X0.325000X0*%
%ADD47R,1.500000X1.500000*%
%ADD48FreePoly0,270.000000*%
%ADD49FreePoly1,270.000000*%
%ADD50RoundRect,0.197500X-0.059581X0.659934X-0.424513X0.508774X0.059581X-0.659934X0.424513X-0.508774X0*%
%ADD51RoundRect,0.200000X-0.275000X0.200000X-0.275000X-0.200000X0.275000X-0.200000X0.275000X0.200000X0*%
%ADD52C,0.700000*%
%ADD53R,1.500000X0.800000*%
%ADD54R,2.000000X1.450000*%
%ADD55FreePoly0,90.000000*%
%ADD56FreePoly1,90.000000*%
%ADD57R,0.500000X0.250000*%
%ADD58R,0.900000X1.600000*%
%ADD59RoundRect,0.100000X1.600000X1.700000X-1.600000X1.700000X-1.600000X-1.700000X1.600000X-1.700000X0*%
%ADD60FreePoly0,315.000000*%
%ADD61FreePoly1,315.000000*%
%ADD62RoundRect,0.200000X-0.079538X-0.330604X0.290014X-0.177530X0.079538X0.330604X-0.290014X0.177530X0*%
%ADD63RoundRect,0.100000X0.521491X-0.380070X-0.380070X0.521491X-0.521491X0.380070X0.380070X-0.521491X0*%
%ADD64R,2.000000X2.000000*%
%ADD65RoundRect,0.150000X-0.309359X-0.521491X0.521491X0.309359X0.309359X0.521491X-0.521491X-0.309359X0*%
%ADD66R,1.000000X1.800000*%
%ADD67R,0.250000X0.675000*%
%ADD68R,0.575000X0.250000*%
%ADD69C,1.210000*%
%ADD70RoundRect,0.227000X0.875000X0.375000X-0.875000X0.375000X-0.875000X-0.375000X0.875000X-0.375000X0*%
G04 APERTURE END LIST*
D10*
X131750000Y-119250000D02*
X103000000Y-119250000D01*
X90500000Y-160250000D02*
X90500000Y-132500000D01*
X151000000Y-110000000D02*
X141000000Y-110000000D01*
X90500000Y-132500000D02*
X103000000Y-119250000D01*
X131750000Y-119250000D02*
X141000000Y-110000000D01*
%TO.C,G\u002A\u002A\u002A*%
G36*
X61689226Y-111526537D02*
G01*
X61889433Y-111556632D01*
X62074087Y-111612205D01*
X62266605Y-111697412D01*
X62323514Y-111728057D01*
X62482170Y-111855340D01*
X62574466Y-112015752D01*
X62602756Y-112215220D01*
X62569394Y-112459670D01*
X62537613Y-112577520D01*
X62421608Y-112864589D01*
X62265884Y-113103923D01*
X62077479Y-113286131D01*
X61863427Y-113401824D01*
X61720323Y-113438282D01*
X61519043Y-113461722D01*
X61309690Y-113463682D01*
X61119994Y-113444124D01*
X60977681Y-113403010D01*
X60856314Y-113333548D01*
X60669146Y-113159751D01*
X60530338Y-112926428D01*
X60439358Y-112632547D01*
X60395672Y-112277077D01*
X60394422Y-112252236D01*
X60390954Y-112047700D01*
X60408353Y-111900975D01*
X60453690Y-111794605D01*
X60534033Y-111711130D01*
X60656452Y-111633094D01*
X60726893Y-111597040D01*
X60816361Y-111564364D01*
X60923966Y-111543244D01*
X61069714Y-111530050D01*
X61273609Y-111521154D01*
X61450050Y-111517764D01*
X61689226Y-111526537D01*
G37*
G36*
X65027884Y-111521685D02*
G01*
X65277360Y-111573922D01*
X65463224Y-111666707D01*
X65589052Y-111803844D01*
X65658420Y-111989136D01*
X65674902Y-112226388D01*
X65642074Y-112519401D01*
X65633222Y-112567881D01*
X65560113Y-112853310D01*
X65459572Y-113074240D01*
X65326185Y-113240005D01*
X65154538Y-113359938D01*
X65069228Y-113401592D01*
X64950364Y-113443661D01*
X64820609Y-113463448D01*
X64646538Y-113468065D01*
X64481358Y-113460992D01*
X64255821Y-113417482D01*
X64059175Y-113325826D01*
X63865307Y-113176270D01*
X63764611Y-113068826D01*
X63630567Y-112860215D01*
X63533529Y-112622820D01*
X63479053Y-112376582D01*
X63472699Y-112141443D01*
X63520023Y-111937344D01*
X63545691Y-111888336D01*
X63666102Y-111762785D01*
X63850148Y-111658336D01*
X64088397Y-111578464D01*
X64371420Y-111526644D01*
X64689784Y-111506351D01*
X64711222Y-111506193D01*
X65027884Y-111521685D01*
G37*
%TD*%
D11*
%TO.C,J1*%
X146000000Y-85950000D03*
D12*
X146000000Y-91450000D03*
%TD*%
D13*
%TO.C,RX1*%
X73998000Y-121248000D03*
D14*
X73998000Y-119241000D03*
X73998000Y-117235000D03*
X73998000Y-115228000D03*
X73998000Y-113222000D03*
X73998000Y-111215000D03*
X73998000Y-109208000D03*
X73998000Y-107202000D03*
X73998000Y-105195000D03*
X73998000Y-103189000D03*
X52002000Y-103189000D03*
X52002000Y-105195000D03*
X52002000Y-107202000D03*
X52002000Y-109208000D03*
X52002000Y-111215000D03*
X52002000Y-113222000D03*
X52002000Y-115228000D03*
X52002000Y-117235000D03*
X52002000Y-119241000D03*
X52002000Y-121248000D03*
%TD*%
D15*
%TO.C,BZ1*%
X133562994Y-135562994D03*
D16*
X138937006Y-140937006D03*
%TD*%
D17*
%TO.C,SW1*%
X146000000Y-98000000D03*
X146000000Y-106000000D03*
X146000000Y-114000000D03*
X146000000Y-122000000D03*
%TD*%
D18*
%TO.C,U4*%
X127640000Y-129733000D03*
D19*
X125100000Y-129733000D03*
X122560000Y-129733000D03*
X120020000Y-129733000D03*
X117480000Y-129733000D03*
X114940000Y-129733000D03*
X112400000Y-129733000D03*
X109860000Y-129733000D03*
X109860000Y-147767000D03*
X112400000Y-147767000D03*
X114940000Y-147767000D03*
X117480000Y-147767000D03*
X120020000Y-147767000D03*
X122560000Y-147767000D03*
X125100000Y-147767000D03*
X127640000Y-147767000D03*
%TD*%
%TO.C,IC1*%
X118885000Y-76380000D03*
X116345000Y-76380000D03*
X113805000Y-76380000D03*
X111265000Y-76380000D03*
X108725000Y-76380000D03*
X106185000Y-76380000D03*
X103645000Y-76380000D03*
X101105000Y-76380000D03*
X98565000Y-76380000D03*
X96025000Y-76380000D03*
X93485000Y-76380000D03*
X90945000Y-76380000D03*
X88405000Y-76380000D03*
X85865000Y-76380000D03*
X85865000Y-78920000D03*
X85865000Y-81460000D03*
X85865000Y-84000000D03*
X85865000Y-86540000D03*
X85865000Y-89080000D03*
X85865000Y-91620000D03*
X88405000Y-91620000D03*
X90945000Y-91620000D03*
X93485000Y-91620000D03*
X96025000Y-91620000D03*
X98565000Y-91620000D03*
X101105000Y-91620000D03*
X103645000Y-91620000D03*
X106185000Y-91620000D03*
X108725000Y-91620000D03*
X111265000Y-91620000D03*
X113805000Y-91620000D03*
X116345000Y-91620000D03*
X118885000Y-91620000D03*
X116345000Y-89080000D03*
%TD*%
D20*
%TO.C,U7*%
X90000000Y-100850000D03*
X86000000Y-100850000D03*
X86000000Y-99050000D03*
X90000000Y-99050000D03*
%TD*%
D21*
%TO.C,C5*%
X120290000Y-101775000D03*
X120290000Y-103325000D03*
%TD*%
D22*
%TO.C,R3*%
X107466960Y-115855623D03*
X105942558Y-116487051D03*
%TD*%
D23*
%TO.C,C12*%
X79500000Y-121275000D03*
X79500000Y-119725000D03*
%TD*%
D24*
%TO.C,C1*%
X128701992Y-102048008D03*
X129798008Y-100951992D03*
%TD*%
D25*
%TO.C,R14*%
X91900000Y-100775000D03*
X91900000Y-99125000D03*
%TD*%
D26*
%TO.C,SERVO1*%
X118392657Y-64995343D03*
D27*
X116596606Y-66791394D03*
X114800555Y-68587445D03*
%TD*%
D28*
%TO.C,JP9*%
X111350000Y-111500000D03*
D29*
X112650000Y-111500000D03*
%TD*%
D30*
%TO.C,C15*%
X109714501Y-81994473D03*
X108618485Y-83090489D03*
%TD*%
D25*
%TO.C,R7*%
X101110000Y-89405000D03*
X101110000Y-87755000D03*
%TD*%
D31*
%TO.C,U10*%
X113625304Y-87197918D03*
X113978858Y-87551472D03*
X114332411Y-87905025D03*
X114685965Y-88258579D03*
X113342462Y-89602082D03*
X112988908Y-89248528D03*
X112635355Y-88894975D03*
X112281801Y-88541421D03*
D32*
X113483883Y-88400000D03*
%TD*%
D33*
%TO.C,J4*%
X103650000Y-89100000D03*
%TD*%
D34*
%TO.C,R6*%
X111614999Y-106550000D03*
X109964999Y-106550000D03*
%TD*%
D35*
%TO.C,C9*%
X116215000Y-98250001D03*
X114665000Y-98250001D03*
%TD*%
D36*
%TO.C,C8*%
X117665000Y-98250001D03*
X119215000Y-98250001D03*
%TD*%
D28*
%TO.C,JP8*%
X93850000Y-55000000D03*
D29*
X95150000Y-55000000D03*
%TD*%
D24*
%TO.C,C14*%
X106514843Y-85194131D03*
X107610859Y-84098115D03*
%TD*%
D37*
%TO.C,IC2*%
X147158303Y-74445716D03*
X145156755Y-76009496D03*
X143155208Y-77573276D03*
X141153661Y-79137057D03*
X139152113Y-80700837D03*
X137150566Y-82264617D03*
X135149019Y-83828397D03*
X125196851Y-71090203D03*
X127198398Y-69526423D03*
X129199946Y-67962643D03*
X131201493Y-66398863D03*
X133203040Y-64835083D03*
X135204587Y-63271302D03*
X137206135Y-61707522D03*
D38*
X139133664Y-76064299D03*
%TD*%
D39*
%TO.C,M2*%
X122725000Y-91025000D03*
D40*
X125265000Y-91025000D03*
X122725000Y-88485000D03*
X125265000Y-88485000D03*
%TD*%
D23*
%TO.C,C10*%
X76500000Y-121275000D03*
X76500000Y-119725000D03*
%TD*%
D41*
%TO.C,J2*%
X70757500Y-80500000D03*
X70757500Y-81500000D03*
X70757500Y-82500000D03*
X70757500Y-83500000D03*
X70757500Y-84500000D03*
X70757500Y-85500000D03*
X70757500Y-86500000D03*
X70757500Y-87500000D03*
D42*
X73127500Y-77900000D03*
X73127500Y-90100000D03*
%TD*%
D43*
%TO.C,R9*%
X118775000Y-108000000D03*
X120425000Y-108000000D03*
%TD*%
D39*
%TO.C,M1_ENC1*%
X99300000Y-60800000D03*
D40*
X96760000Y-60800000D03*
X94220000Y-60800000D03*
X91680000Y-60800000D03*
%TD*%
D44*
%TO.C,U1*%
X126896447Y-100207107D03*
X126542893Y-99853553D03*
D45*
X126348439Y-99305546D03*
X126701992Y-98951992D03*
X127055546Y-98598439D03*
D44*
X127603553Y-98792893D03*
X127957107Y-99146447D03*
D45*
X128151561Y-99694454D03*
X127798008Y-100048008D03*
X127444454Y-100401561D03*
%TD*%
D39*
%TO.C,M3*%
X122725000Y-79525000D03*
D40*
X122725000Y-76985000D03*
%TD*%
D26*
%TO.C,SERVO2*%
X115842051Y-62465949D03*
D27*
X114046000Y-64262000D03*
X112249949Y-66058051D03*
%TD*%
D46*
%TO.C,C20*%
X142250000Y-101775000D03*
X142250000Y-104725000D03*
%TD*%
D47*
%TO.C,TP5*%
X103900000Y-145200000D03*
%TD*%
D21*
%TO.C,C4*%
X120339999Y-104925002D03*
X120339999Y-106475002D03*
%TD*%
D33*
%TO.C,J5*%
X106200000Y-89100000D03*
%TD*%
D39*
%TO.C,M2_ENC1*%
X114050000Y-53400000D03*
D40*
X111510000Y-53400000D03*
X108970000Y-53400000D03*
X106430000Y-53400000D03*
%TD*%
D23*
%TO.C,C11*%
X78000000Y-121275000D03*
X78000000Y-119725000D03*
%TD*%
D39*
%TO.C,M1*%
X122725000Y-85275000D03*
D40*
X125265000Y-85275000D03*
X122725000Y-82735000D03*
X125265000Y-82735000D03*
%TD*%
D46*
%TO.C,C21*%
X139750000Y-101775000D03*
X139750000Y-104725000D03*
%TD*%
D48*
%TO.C,JP2*%
X106934000Y-146450000D03*
D49*
X106934000Y-147750000D03*
%TD*%
D50*
%TO.C,U5*%
X104666125Y-108897826D03*
X106196858Y-112593344D03*
X104533875Y-113282174D03*
X103003142Y-109586656D03*
%TD*%
D51*
%TO.C,R13*%
X84100000Y-99124999D03*
X84100000Y-100774999D03*
%TD*%
D35*
%TO.C,C19*%
X118000000Y-79250000D03*
X116450000Y-79250000D03*
%TD*%
D52*
%TO.C,J3*%
X57192500Y-91250000D03*
X57192500Y-76750000D03*
D53*
X57792500Y-80795000D03*
X57792500Y-81895000D03*
X57792500Y-82995000D03*
X57792500Y-84095000D03*
X57792500Y-85195000D03*
X57792500Y-86295000D03*
X57792500Y-87395000D03*
X57792500Y-88495000D03*
D54*
X55192500Y-90875000D03*
X63492500Y-90875000D03*
X63492500Y-77125000D03*
X55192500Y-77125000D03*
%TD*%
D55*
%TO.C,JP6*%
X92250000Y-95250000D03*
D56*
X92250000Y-93950000D03*
%TD*%
D57*
%TO.C,U11*%
X116675000Y-80500000D03*
X116675000Y-81000000D03*
X116675000Y-81500000D03*
X116675000Y-82000000D03*
X114775000Y-82000000D03*
X114775000Y-81500000D03*
X114775000Y-81000000D03*
X114775000Y-80500000D03*
D58*
X115725000Y-81250000D03*
%TD*%
D47*
%TO.C,TP3*%
X103900000Y-140000000D03*
%TD*%
D25*
%TO.C,R2*%
X98560000Y-89415000D03*
X98560000Y-87765000D03*
%TD*%
D59*
%TO.C,BT2*%
X138550000Y-135000000D03*
X107450000Y-135000000D03*
%TD*%
D60*
%TO.C,JP4*%
X122540381Y-100040381D03*
D61*
X123459619Y-100959619D03*
%TD*%
D62*
%TO.C,R4*%
X105330264Y-115008844D03*
X106854666Y-114377416D03*
%TD*%
D34*
%TO.C,R1*%
X111615002Y-105000000D03*
X109965002Y-105000000D03*
%TD*%
D26*
%TO.C,SERVO3*%
X113294606Y-59933394D03*
D27*
X111498555Y-61729445D03*
X109702504Y-63525496D03*
%TD*%
D24*
%TO.C,C16*%
X110461002Y-88559100D03*
X111557018Y-87463084D03*
%TD*%
D21*
%TO.C,C3*%
X88000000Y-53425000D03*
X88000000Y-54975000D03*
%TD*%
D28*
%TO.C,JP7*%
X93850000Y-52500000D03*
D29*
X95150000Y-52500000D03*
%TD*%
D39*
%TO.C,M3_ENC1*%
X106580000Y-57100000D03*
D40*
X104040000Y-57100000D03*
X101500000Y-57100000D03*
X98960000Y-57100000D03*
%TD*%
D63*
%TO.C,U3*%
X137745629Y-96415425D03*
X137286010Y-96875045D03*
X136826390Y-97334664D03*
X136366771Y-97794283D03*
X135907151Y-98253903D03*
X135447532Y-98713522D03*
X134987913Y-99173142D03*
X134528293Y-99632761D03*
X130480107Y-95584575D03*
X130939726Y-95124955D03*
X131399346Y-94665336D03*
X131858965Y-94205717D03*
X132318585Y-93746097D03*
X132778204Y-93286478D03*
X133237823Y-92826858D03*
X133697443Y-92367239D03*
%TD*%
D35*
%TO.C,C7*%
X117215000Y-108000000D03*
X115665000Y-108000000D03*
%TD*%
D28*
%TO.C,JP10*%
X111350000Y-114000000D03*
D29*
X112650000Y-114000000D03*
%TD*%
D60*
%TO.C,JP3*%
X131540381Y-98540381D03*
D61*
X132459619Y-99459619D03*
%TD*%
D64*
%TO.C,TP1*%
X122790000Y-105899999D03*
%TD*%
D65*
%TO.C,Q1*%
X92558839Y-109934664D03*
X91215336Y-108591161D03*
X93212913Y-107937087D03*
%TD*%
D31*
%TO.C,U9*%
X109674264Y-83830761D03*
X110027818Y-84184315D03*
X110381371Y-84537868D03*
X110734925Y-84891422D03*
X109391422Y-86234925D03*
X109037868Y-85881371D03*
X108684315Y-85527818D03*
X108330761Y-85174264D03*
D32*
X109532843Y-85032843D03*
%TD*%
D22*
%TO.C,R5*%
X103869736Y-107171156D03*
X102345334Y-107802584D03*
%TD*%
D66*
%TO.C,Y1*%
X118190000Y-100213000D03*
X115690000Y-100213000D03*
%TD*%
D47*
%TO.C,TP4*%
X103900000Y-142600000D03*
%TD*%
D30*
%TO.C,C17*%
X113678338Y-85341763D03*
X112582322Y-86437779D03*
%TD*%
D67*
%TO.C,U6*%
X118190000Y-102799999D03*
D68*
X118253000Y-103612999D03*
X118253000Y-104112999D03*
X118253000Y-104612999D03*
X118253000Y-105112999D03*
D67*
X118190000Y-105925999D03*
X117690000Y-105925999D03*
X117190000Y-105925999D03*
X116690000Y-105925999D03*
X116190000Y-105925999D03*
X115690000Y-105925999D03*
X115190000Y-105925999D03*
X114690000Y-105925999D03*
X114190000Y-105925999D03*
X113690000Y-105925999D03*
D68*
X113627000Y-105112999D03*
X113627000Y-104612999D03*
X113627000Y-104112999D03*
X113627000Y-103612999D03*
D67*
X113690000Y-102799999D03*
X114190000Y-102799999D03*
X114690000Y-102799999D03*
X115190000Y-102799999D03*
X115690000Y-102799999D03*
X116190000Y-102799999D03*
X116690000Y-102799999D03*
X117190000Y-102799999D03*
X117690000Y-102799999D03*
%TD*%
D24*
%TO.C,C6*%
X129286864Y-94108489D03*
X130382880Y-93012473D03*
%TD*%
D47*
%TO.C,TP2*%
X103900000Y-137400000D03*
%TD*%
D25*
%TO.C,R8*%
X82550000Y-100775000D03*
X82550000Y-99125000D03*
%TD*%
D36*
%TO.C,C18*%
X113450000Y-79250000D03*
X115000000Y-79250000D03*
%TD*%
D21*
%TO.C,C2*%
X90200000Y-53425000D03*
X90200000Y-54975000D03*
%TD*%
D47*
%TO.C,TP6*%
X103900000Y-147800000D03*
%TD*%
D69*
%TO.C,U2*%
X77000000Y-59000000D03*
D70*
X85000000Y-52700000D03*
X85000000Y-54200000D03*
X85000000Y-55700000D03*
X85000000Y-57200000D03*
X85000000Y-58700000D03*
X85000000Y-60200000D03*
X85000000Y-61700000D03*
X85000000Y-63200000D03*
X85000000Y-64700000D03*
X85000000Y-66200000D03*
X69000000Y-66200000D03*
X69000000Y-64700000D03*
X69000000Y-63200000D03*
X69000000Y-61700000D03*
X69000000Y-60200000D03*
X69000000Y-58700000D03*
X69000000Y-57200000D03*
X69000000Y-55700000D03*
X69000000Y-54200000D03*
X69000000Y-52700000D03*
%TD*%
D55*
%TO.C,JP5*%
X94750000Y-95250000D03*
D56*
X94750000Y-93950000D03*
%TD*%
M02*
