M48
; DRILL file {KiCad (6.0.5)} date Fri Nov  8 16:15:20 2024
; FORMAT={-:-/ absolute / metric / decimal}
; #@! TF.CreationDate,2024-11-08T16:15:20+00:00
; #@! TF.GenerationSoftware,Kicad,Pcbnew,(6.0.5)
; #@! TF.FileFunction,Plated,1,2,PTH
FMAT,2
METRIC
; #@! TA.AperFunction,Plated,PTH,ViaDrill
T1C0.300
; #@! TA.AperFunction,Plated,PTH,ViaDrill
T2C0.400
; #@! TA.AperFunction,Plated,PTH,ComponentDrill
T3C0.920
; #@! TA.AperFunction,Plated,PTH,ComponentDrill
T4C1.000
; #@! TA.AperFunction,Plated,PTH,ComponentDrill
T5C1.110
; #@! TA.AperFunction,Plated,PTH,ComponentDrill
T6C1.700
; #@! TA.AperFunction,Plated,PTH,ComponentDrill
T7C2.500
%
G90
G05
T1
X82.5Y-119.75
X85.825Y-96.0
X90.65Y-108.05
X92.78Y-100.78
X96.25Y-82.0
X96.25Y-82.75
X96.25Y-83.5
X96.25Y-84.25
X101.1Y-78.9
X103.37Y-106.03
X105.5Y-96.0
X105.73Y-83.54
X106.99Y-83.48
X107.0Y-97.5
X107.25Y-82.0
X108.0Y-82.47
X109.575Y-87.39
X110.0Y-79.25
X110.95Y-86.85
X111.975Y-85.825
X114.49Y-101.05
X115.0Y-78.5
X115.665Y-108.875
X116.45Y-78.5
X117.247Y-104.613
X117.75Y-94.5
X119.215Y-99.175
X121.19Y-103.0
X121.2Y-106.5
X121.5Y-98.25
X121.99Y-103.15
X122.0Y-96.0
X123.5Y-97.5
X125.0Y-94.5
X125.85Y-98.95
X128.0Y-97.5
X128.25Y-95.25
X130.4Y-101.55
X130.5Y-97.5
X132.0Y-96.25
X132.073Y-97.177
X132.1Y-77.05
X132.85Y-77.05
X136.45Y-91.8
X136.95Y-92.3
X137.5Y-103.0
X139.75Y-105.75
X141.025Y-104.725
X141.6Y-98.95
X142.25Y-105.75
T2
X64.9Y-54.2
X65.275Y-64.7
X89.4Y-63.2
X91.85Y-54.975
X106.5Y-66.75
X110.25Y-68.0
X127.8Y-78.0
X127.8Y-79.0
X129.75Y-92.375
X136.25Y-65.0
T3
X52.002Y-103.189
X52.002Y-105.195
X52.002Y-107.202
X52.002Y-109.208
X52.002Y-111.215
X52.002Y-113.222
X52.002Y-115.228
X52.002Y-117.235
X52.002Y-119.241
X52.002Y-121.248
X73.998Y-103.189
X73.998Y-105.195
X73.998Y-107.202
X73.998Y-109.208
X73.998Y-111.215
X73.998Y-113.222
X73.998Y-115.228
X73.998Y-117.235
X73.998Y-119.241
X73.998Y-121.248
T4
X91.68Y-60.8
X94.22Y-60.8
X96.76Y-60.8
X98.96Y-57.1
X99.3Y-60.8
X101.5Y-57.1
X103.65Y-89.1
X104.04Y-57.1
X106.2Y-89.1
X106.43Y-53.4
X106.58Y-57.1
X108.97Y-53.4
X109.703Y-63.525
X111.499Y-61.729
X111.51Y-53.4
X112.25Y-66.058
X113.295Y-59.933
X114.046Y-64.262
X114.05Y-53.4
X114.801Y-68.587
X115.842Y-62.466
X116.597Y-66.791
X118.393Y-64.995
X122.725Y-76.985
X122.725Y-79.525
X122.725Y-82.735
X122.725Y-85.275
X122.725Y-88.485
X122.725Y-91.025
X125.265Y-82.735
X125.265Y-85.275
X125.265Y-88.485
X125.265Y-91.025
X133.563Y-135.563
X138.937Y-140.937
T5
X85.865Y-76.38
X85.865Y-78.92
X85.865Y-81.46
X85.865Y-84.0
X85.865Y-86.54
X85.865Y-89.08
X85.865Y-91.62
X88.405Y-76.38
X88.405Y-91.62
X90.945Y-76.38
X90.945Y-91.62
X93.485Y-76.38
X93.485Y-91.62
X96.025Y-76.38
X96.025Y-91.62
X98.565Y-76.38
X98.565Y-91.62
X101.105Y-76.38
X101.105Y-91.62
X103.645Y-76.38
X103.645Y-91.62
X106.185Y-76.38
X106.185Y-91.62
X108.725Y-76.38
X108.725Y-91.62
X109.86Y-129.733
X109.86Y-147.767
X111.265Y-76.38
X111.265Y-91.62
X112.4Y-129.733
X112.4Y-147.767
X113.805Y-76.38
X113.805Y-91.62
X114.94Y-129.733
X114.94Y-147.767
X116.345Y-76.38
X116.345Y-89.08
X116.345Y-91.62
X117.48Y-129.733
X117.48Y-147.767
X118.885Y-76.38
X118.885Y-91.62
X120.02Y-129.733
X120.02Y-147.767
X122.56Y-129.733
X122.56Y-147.767
X125.1Y-129.733
X125.1Y-147.767
X127.64Y-129.733
X127.64Y-147.767
T7
X146.0Y-85.95
X146.0Y-91.45
T6
G00X146.0Y-99.65
M15
G01X146.0Y-96.35
M16
G05
G00X146.0Y-107.65
M15
G01X146.0Y-104.35
M16
G05
G00X146.0Y-115.65
M15
G01X146.0Y-112.35
M16
G05
G00X146.0Y-123.65
M15
G01X146.0Y-120.35
M16
G05
T0
M30
